<svg id="kity_svg_6" xmlns="http://www.w3.org/2000/svg" xmlns:xlink="http://www.w3.org/1999/xlink" version="1.1" width="1027" height="714" style="background: rgb(251, 251, 251); visibility: visible;" viewBox="0 0 1027 714"><defs id="kity_defs_7"><linearGradient id="kity_linearGradient_17" x1="0" y1="0" x2="0" y2="1"><stop id="kity_stop_18" offset="0" stop-color="rgb(255, 255, 255)"></stop><stop id="kity_stop_19" offset="1" stop-color="rgb(204, 204, 204)"></stop></linearGradient><marker id="kity_marker_2" orient="auto" refX="6" refY="0" viewBox="-7 -7 14 14" markerWidth="7" markerHeight="7" markerUnits="userSpaceOnUse"><path id="kity_path_3" fill="rgb(115, 161, 191)" stroke="none" d="M6,0A6,6,0,1,1,-6,0A6,6,0,1,1,6,0"></path></marker></defs><g id="kity_g_8"><g id="minder1" text-rendering="optimize-speed"><g id="minder_connect_group1"><path id="kity_path_31" fill="none" stroke="rgb(115, 161, 191)" stroke-width="1" d="M48.5,343.5A44,249,0,0,1,92.5,94.5"></path><path id="kity_path_33" fill="none" stroke="rgb(115, 161, 191)" stroke-width="1" d="M190.5,94.5C198.5,94.5,198.5,94.5,206.5,94.5"></path><path id="kity_path_35" fill="none" stroke="rgb(115, 161, 191)" stroke-width="1" d="M324.5,94.5C332.5,94.5,332.5,94.5,340.5,94.5"></path><path id="kity_path_37" fill="none" stroke="rgb(115, 161, 191)" stroke-width="1" d="M434.5,94.5C442.5,94.5,442.5,29.5,450.5,29.5"></path><path id="kity_path_39" fill="none" stroke="rgb(115, 161, 191)" stroke-width="1" d="M434.5,94.5C442.5,94.5,442.5,55.5,450.5,55.5"></path><path id="kity_path_41" fill="none" stroke="rgb(115, 161, 191)" stroke-width="1" d="M434.5,94.5C442.5,94.5,442.5,81.5,450.5,81.5"></path><path id="kity_path_43" fill="none" stroke="rgb(115, 161, 191)" stroke-width="1" d="M434.5,94.5C442.5,94.5,442.5,107.5,450.5,107.5"></path><path id="kity_path_45" fill="none" stroke="rgb(115, 161, 191)" stroke-width="1" d="M434.5,94.5C442.5,94.5,442.5,133.5,450.5,133.5"></path><path id="kity_path_47" fill="none" stroke="rgb(115, 161, 191)" stroke-width="1" d="M434.5,94.5C442.5,94.5,442.5,159.5,450.5,159.5"></path><path id="kity_path_49" fill="none" stroke="rgb(115, 161, 191)" stroke-width="1" d="M48.5,343.5A47,57,0,0,1,95.5,286.5"></path><path id="kity_path_51" fill="none" stroke="rgb(115, 161, 191)" stroke-width="1" d="M193.5,286.5C201.5,286.5,201.5,286.5,209.5,286.5"></path><path id="kity_path_53" fill="none" stroke="rgb(115, 161, 191)" stroke-width="1" d="M291.5,286.5C299.5,286.5,299.5,286.5,307.5,286.5"></path><path id="kity_path_55" fill="none" stroke="rgb(115, 161, 191)" stroke-width="1" d="M389.5,286.5C397.5,286.5,397.5,195.5,405.5,195.5"></path><path id="kity_path_57" fill="none" stroke="rgb(115, 161, 191)" stroke-width="1" d="M389.5,286.5C397.5,286.5,397.5,221.5,405.5,221.5"></path><path id="kity_path_59" fill="none" stroke="rgb(115, 161, 191)" stroke-width="1" d="M389.5,286.5C397.5,286.5,397.5,247.5,405.5,247.5"></path><path id="kity_path_61" fill="none" stroke="rgb(115, 161, 191)" stroke-width="1" d="M389.5,286.5C397.5,286.5,397.5,273.5,405.5,273.5"></path><path id="kity_path_63" fill="none" stroke="rgb(115, 161, 191)" stroke-width="1" d="M389.5,286.5C397.5,286.5,397.5,299.5,405.5,299.5"></path><path id="kity_path_65" fill="none" stroke="rgb(115, 161, 191)" stroke-width="1" d="M389.5,286.5C397.5,286.5,397.5,325.5,405.5,325.5"></path><path id="kity_path_67" fill="none" stroke="rgb(115, 161, 191)" stroke-width="1" d="M389.5,286.5C397.5,286.5,397.5,351.5,405.5,351.5"></path><path id="kity_path_69" fill="none" stroke="rgb(115, 161, 191)" stroke-width="1" d="M389.5,286.5C397.5,286.5,397.5,377.5,405.5,377.5"></path><path id="kity_path_71" fill="none" stroke="rgb(115, 161, 191)" stroke-width="1" d="M48.5,343.5A47,131,0,0,0,95.5,474.5"></path><path id="kity_path_93" fill="none" stroke="rgb(115, 161, 191)" stroke-width="1" d="M48.5,343.5A43,317,0,0,0,91.5,660.5"></path><path id="kity_path_322" fill="none" stroke="rgb(115, 161, 191)" stroke-width="1" d="M621.5,410.5C629.5,410.5,629.5,410.5,637.5,410.5"></path><path id="kity_path_323" fill="none" stroke="rgb(115, 161, 191)" stroke-width="1" d="M485.5,474.5C494.5,474.5,494.5,410.5,503.5,410.5"></path><path id="kity_path_324" fill="none" stroke="rgb(115, 161, 191)" stroke-width="1" d="M619.5,463.5C627.5,463.5,627.5,463.5,635.5,463.5"></path><path id="kity_path_325" fill="none" stroke="rgb(115, 161, 191)" stroke-width="1" d="M485.5,474.5C493.5,474.5,493.5,463.5,501.5,463.5"></path><path id="kity_path_326" fill="none" stroke="rgb(115, 161, 191)" stroke-width="1" d="M620.5,521.5C628.5,521.5,628.5,521.5,636.5,521.5"></path><path id="kity_path_327" fill="none" stroke="rgb(115, 161, 191)" stroke-width="1" d="M485.5,474.5C494,474.5,494,521.5,502.5,521.5"></path><path id="kity_path_328" fill="none" stroke="rgb(115, 161, 191)" stroke-width="1" d="M573.5,550.5C581.5,550.5,581.5,550.5,589.5,550.5"></path><path id="kity_path_329" fill="none" stroke="rgb(115, 161, 191)" stroke-width="1" d="M485.5,474.5C494.5,474.5,494.5,550.5,503.5,550.5"></path><path id="kity_path_330" fill="none" stroke="rgb(115, 161, 191)" stroke-width="1" d="M351.5,474.5C359.5,474.5,359.5,474.5,367.5,474.5"></path><path id="kity_path_331" fill="none" stroke="rgb(115, 161, 191)" stroke-width="1" d="M193.5,474.5C201.5,474.5,201.5,474.5,209.5,474.5"></path></g><g id="minder_node1"><path id="node_outline1" fill="rgb(115, 161, 191)" stroke="rgb(115, 161, 191)" d="M25.5,329.5h46a5,5,0,0,1,5,5v18a5,5,0,0,1,-5,5h-46a5,5,0,0,1,-5,-5v-18a5,5,0,0,1,5,-5z" stroke-width="3"></path><g id="node_text1" fill="white"><text id="kity_text_22" text-rendering="inherit" font-size="16" dy=".8em" y="335.5" x="32.5">科学</text></g></g><g id="kity_g_12" display="none"><path id="kity_path_13" fill="none" stroke="none" d="M32.5,343.5h0v0h0z"></path></g><g id="kity_g_14" display="none"><path id="kity_path_15" fill="rgba(0, 92, 153, 0.5)" stroke="none" d="M96.5,484.5h96v8h-96z"></path><path id="kity_path_16" fill="none" stroke="rgb(0, 76, 128)" d="M96.5,484.5L192.5,484.5" stroke-width="1"></path></g><g id="minder_node2"><g id="node_expander9" style="cursor: pointer;"><path id="kity_path_231" fill="white" stroke="gray" d="M93.5,94.5A6,6,0,1,1,81.5,94.5A6,6,0,1,1,93.5,94.5"></path><path id="kity_path_232" fill="none" stroke="gray" d="M83,94.5L92,94.5"></path></g><path id="node_outline10" fill="rgb(238, 243, 246)" stroke="rgb(115, 161, 191)" d="M97.5,81.5h90a3,3,0,0,1,3,3v20a3,3,0,0,1,-3,3h-90a3,3,0,0,1,-3,-3v-20a3,3,0,0,1,3,-3z" stroke-width="1"></path><g id="node_text10" fill="black"><text id="kity_text_115" text-rendering="inherit" font-size="14" dy=".8em" y="87.5" x="114.5">自然现象</text></g></g><g id="minder_node3"><g id="node_expander8" style="cursor: pointer;"><path id="kity_path_228" fill="white" stroke="gray" d="M206.5,94.5A6,6,0,1,1,194.5,94.5A6,6,0,1,1,206.5,94.5"></path><path id="kity_path_229" fill="none" stroke="gray" d="M196,94.5L205,94.5"></path></g><path id="node_outline9" fill="none" stroke="none" d="M211.5,67.5h108a5,5,0,0,1,5,5v44a5,5,0,0,1,-5,5h-108a5,5,0,0,1,-5,-5v-44a5,5,0,0,1,5,-5z"></path><g id="node_text9" fill="black"><text id="kity_text_111" text-rendering="inherit" font-size="12" dy=".8em" y="70.5" x="211.5">研究无机自然界</text><text id="kity_text_112" text-rendering="inherit" font-size="12" dy=".8em" y="88.5" x="211.5">和包括人的生物属性</text><text id="kity_text_113" text-rendering="inherit" font-size="12" dy=".8em" y="106.5" x="211.5">在内的有机自然界</text></g></g><g id="minder_node4"><g id="node_expander7" style="cursor: pointer;"><path id="kity_path_225" fill="white" stroke="gray" d="M340.5,94.5A6,6,0,1,1,328.5,94.5A6,6,0,1,1,340.5,94.5"></path><path id="kity_path_226" fill="none" stroke="gray" d="M330,94.5L339,94.5"></path></g><path id="node_outline8" fill="none" stroke="none" d="M345.5,67.5h84a5,5,0,0,1,5,5v44a5,5,0,0,1,-5,5h-84a5,5,0,0,1,-5,-5v-44a5,5,0,0,1,5,-5z"></path><g id="node_text8" fill="black"><text id="kity_text_107" text-rendering="inherit" font-size="12" dy=".8em" y="70.5" x="345.5">未经过人类行为</text><text id="kity_text_108" text-rendering="inherit" font-size="12" dy=".8em" y="88.5" x="345.5">就已经存在的</text><text id="kity_text_109" text-rendering="inherit" font-size="12" dy=".8em" y="106.5" x="345.5">自然现象</text></g></g><g id="minder_node5"><g id="node_expander1" display="none" style="cursor: pointer;"><path id="kity_path_207" fill="white" stroke="gray" d="M450.5,29.5A6,6,0,1,1,438.5,29.5A6,6,0,1,1,450.5,29.5"></path><path id="kity_path_208" fill="none" stroke="gray"></path></g><path id="node_outline2" fill="none" stroke="none" d="M455.5,20.5h24a5,5,0,0,1,5,5v8a5,5,0,0,1,-5,5h-24a5,5,0,0,1,-5,-5v-8a5,5,0,0,1,5,-5z"></path><g id="node_text2" fill="black"><text id="kity_text_95" text-rendering="inherit" font-size="12" dy=".8em" y="23.5" x="455.5">数学</text></g></g><g id="minder_node6"><g id="node_expander2" display="none" style="cursor: pointer;"><path id="kity_path_210" fill="white" stroke="gray" d="M450.5,55.5A6,6,0,1,1,438.5,55.5A6,6,0,1,1,450.5,55.5"></path><path id="kity_path_211" fill="none" stroke="gray"></path></g><path id="node_outline3" fill="none" stroke="none" d="M455.5,46.5h24a5,5,0,0,1,5,5v8a5,5,0,0,1,-5,5h-24a5,5,0,0,1,-5,-5v-8a5,5,0,0,1,5,-5z"></path><g id="node_text3" fill="black"><text id="kity_text_97" text-rendering="inherit" font-size="12" dy=".8em" y="49.5" x="455.5">物理</text></g></g><g id="minder_node7"><g id="node_expander3" display="none" style="cursor: pointer;"><path id="kity_path_213" fill="white" stroke="gray" d="M450.5,81.5A6,6,0,1,1,438.5,81.5A6,6,0,1,1,450.5,81.5"></path><path id="kity_path_214" fill="none" stroke="gray"></path></g><path id="node_outline4" fill="none" stroke="none" d="M455.5,72.5h24a5,5,0,0,1,5,5v8a5,5,0,0,1,-5,5h-24a5,5,0,0,1,-5,-5v-8a5,5,0,0,1,5,-5z"></path><g id="node_text4" fill="black"><text id="kity_text_99" text-rendering="inherit" font-size="12" dy=".8em" y="75.5" x="455.5">化学</text></g></g><g id="minder_node8"><g id="node_expander4" display="none" style="cursor: pointer;"><path id="kity_path_216" fill="white" stroke="gray" d="M450.5,107.5A6,6,0,1,1,438.5,107.5A6,6,0,1,1,450.5,107.5"></path><path id="kity_path_217" fill="none" stroke="gray"></path></g><path id="node_outline5" fill="none" stroke="none" d="M455.5,98.5h36a5,5,0,0,1,5,5v8a5,5,0,0,1,-5,5h-36a5,5,0,0,1,-5,-5v-8a5,5,0,0,1,5,-5z"></path><g id="node_text5" fill="black"><text id="kity_text_101" text-rendering="inherit" font-size="12" dy=".8em" y="101.5" x="455.5">生物学</text></g></g><g id="minder_node9"><g id="node_expander5" display="none" style="cursor: pointer;"><path id="kity_path_219" fill="white" stroke="gray" d="M450.5,133.5A6,6,0,1,1,438.5,133.5A6,6,0,1,1,450.5,133.5"></path><path id="kity_path_220" fill="none" stroke="gray"></path></g><path id="node_outline6" fill="none" stroke="none" d="M455.5,124.5h24a5,5,0,0,1,5,5v8a5,5,0,0,1,-5,5h-24a5,5,0,0,1,-5,-5v-8a5,5,0,0,1,5,-5z"></path><g id="node_text6" fill="black"><text id="kity_text_103" text-rendering="inherit" font-size="12" dy=".8em" y="127.5" x="455.5">天文</text></g></g><g id="minder_node10"><g id="node_expander6" display="none" style="cursor: pointer;"><path id="kity_path_222" fill="white" stroke="gray" d="M450.5,159.5A6,6,0,1,1,438.5,159.5A6,6,0,1,1,450.5,159.5"></path><path id="kity_path_223" fill="none" stroke="gray"></path></g><path id="node_outline7" fill="none" stroke="none" d="M455.5,150.5h48a5,5,0,0,1,5,5v8a5,5,0,0,1,-5,5h-48a5,5,0,0,1,-5,-5v-8a5,5,0,0,1,5,-5z"></path><g id="node_text7" fill="black"><text id="kity_text_105" text-rendering="inherit" font-size="12" dy=".8em" y="153.5" x="455.5">地球科学</text></g></g><g id="minder_node11"><g id="node_expander20" style="cursor: pointer;"><path id="kity_path_264" fill="white" stroke="gray" d="M96.5,286.5A6,6,0,1,1,84.5,286.5A6,6,0,1,1,96.5,286.5"></path><path id="kity_path_265" fill="none" stroke="gray" d="M86,286.5L95,286.5"></path></g><path id="node_outline21" fill="rgb(238, 243, 246)" stroke="rgb(115, 161, 191)" d="M100.5,273.5h90a3,3,0,0,1,3,3v20a3,3,0,0,1,-3,3h-90a3,3,0,0,1,-3,-3v-20a3,3,0,0,1,3,-3z" stroke-width="1"></path><g id="node_text21" fill="black"><text id="kity_text_140" text-rendering="inherit" font-size="14" dy=".8em" y="279.5" x="117.5">社会现象</text></g></g><g id="minder_node12"><g id="node_expander19" style="cursor: pointer;"><path id="kity_path_261" fill="white" stroke="gray" d="M209.5,286.5A6,6,0,1,1,197.5,286.5A6,6,0,1,1,209.5,286.5"></path><path id="kity_path_262" fill="none" stroke="gray" d="M199,286.5L208,286.5"></path></g><path id="node_outline20" fill="none" stroke="none" d="M214.5,268.5h72a5,5,0,0,1,5,5v26a5,5,0,0,1,-5,5h-72a5,5,0,0,1,-5,-5v-26a5,5,0,0,1,5,-5z"></path><g id="node_text20" fill="black"><text id="kity_text_137" text-rendering="inherit" font-size="12" dy=".8em" y="271.5" x="214.5">研究人类社会</text><text id="kity_text_138" text-rendering="inherit" font-size="12" dy=".8em" y="289.5" x="214.5">的种种现象</text></g></g><g id="minder_node13"><g id="node_expander18" style="cursor: pointer;"><path id="kity_path_258" fill="white" stroke="gray" d="M307.5,286.5A6,6,0,1,1,295.5,286.5A6,6,0,1,1,307.5,286.5"></path><path id="kity_path_259" fill="none" stroke="gray" d="M297,286.5L306,286.5"></path></g><path id="node_outline19" fill="none" stroke="none" d="M312.5,259.5h72a5,5,0,0,1,5,5v44a5,5,0,0,1,-5,5h-72a5,5,0,0,1,-5,-5v-44a5,5,0,0,1,5,-5z"></path><g id="node_text19" fill="black"><text id="kity_text_133" text-rendering="inherit" font-size="12" dy=".8em" y="262.5" x="312.5">经过人类行为</text><text id="kity_text_134" text-rendering="inherit" font-size="12" dy=".8em" y="280.5" x="312.5">才能存在的</text><text id="kity_text_135" text-rendering="inherit" font-size="12" dy=".8em" y="298.5" x="312.5">社会现象</text></g></g><g id="minder_node14"><g id="node_expander10" display="none" style="cursor: pointer;"><path id="kity_path_234" fill="white" stroke="gray" d="M405.5,195.5A6,6,0,1,1,393.5,195.5A6,6,0,1,1,405.5,195.5"></path><path id="kity_path_235" fill="none" stroke="gray"></path></g><path id="node_outline11" fill="none" stroke="none" d="M410.5,186.5h24a5,5,0,0,1,5,5v8a5,5,0,0,1,-5,5h-24a5,5,0,0,1,-5,-5v-8a5,5,0,0,1,5,-5z"></path><g id="node_text11" fill="black"><text id="kity_text_117" text-rendering="inherit" font-size="12" dy=".8em" y="189.5" x="410.5">经济</text></g></g><g id="minder_node15"><g id="node_expander11" display="none" style="cursor: pointer;"><path id="kity_path_237" fill="white" stroke="gray" d="M405.5,221.5A6,6,0,1,1,393.5,221.5A6,6,0,1,1,405.5,221.5"></path><path id="kity_path_238" fill="none" stroke="gray"></path></g><path id="node_outline12" fill="none" stroke="none" d="M410.5,212.5h24a5,5,0,0,1,5,5v8a5,5,0,0,1,-5,5h-24a5,5,0,0,1,-5,-5v-8a5,5,0,0,1,5,-5z"></path><g id="node_text12" fill="black"><text id="kity_text_119" text-rendering="inherit" font-size="12" dy=".8em" y="215.5" x="410.5">政治</text></g></g><g id="minder_node16"><g id="node_expander12" display="none" style="cursor: pointer;"><path id="kity_path_240" fill="white" stroke="gray" d="M405.5,247.5A6,6,0,1,1,393.5,247.5A6,6,0,1,1,405.5,247.5"></path><path id="kity_path_241" fill="none" stroke="gray"></path></g><path id="node_outline13" fill="none" stroke="none" d="M410.5,238.5h24a5,5,0,0,1,5,5v8a5,5,0,0,1,-5,5h-24a5,5,0,0,1,-5,-5v-8a5,5,0,0,1,5,-5z"></path><g id="node_text13" fill="black"><text id="kity_text_121" text-rendering="inherit" font-size="12" dy=".8em" y="241.5" x="410.5">管理</text></g></g><g id="minder_node17"><g id="node_expander13" display="none" style="cursor: pointer;"><path id="kity_path_243" fill="white" stroke="gray" d="M405.5,273.5A6,6,0,1,1,393.5,273.5A6,6,0,1,1,405.5,273.5"></path><path id="kity_path_244" fill="none" stroke="gray"></path></g><path id="node_outline14" fill="none" stroke="none" d="M410.5,264.5h24a5,5,0,0,1,5,5v8a5,5,0,0,1,-5,5h-24a5,5,0,0,1,-5,-5v-8a5,5,0,0,1,5,-5z"></path><g id="node_text14" fill="black"><text id="kity_text_123" text-rendering="inherit" font-size="12" dy=".8em" y="267.5" x="410.5">军事</text></g></g><g id="minder_node18"><g id="node_expander14" display="none" style="cursor: pointer;"><path id="kity_path_246" fill="white" stroke="gray" d="M405.5,299.5A6,6,0,1,1,393.5,299.5A6,6,0,1,1,405.5,299.5"></path><path id="kity_path_247" fill="none" stroke="gray"></path></g><path id="node_outline15" fill="none" stroke="none" d="M410.5,290.5h24a5,5,0,0,1,5,5v8a5,5,0,0,1,-5,5h-24a5,5,0,0,1,-5,-5v-8a5,5,0,0,1,5,-5z"></path><g id="node_text15" fill="black"><text id="kity_text_125" text-rendering="inherit" font-size="12" dy=".8em" y="293.5" x="410.5">教育</text></g></g><g id="minder_node19"><g id="node_expander15" display="none" style="cursor: pointer;"><path id="kity_path_249" fill="white" stroke="gray" d="M405.5,325.5A6,6,0,1,1,393.5,325.5A6,6,0,1,1,405.5,325.5"></path><path id="kity_path_250" fill="none" stroke="gray"></path></g><path id="node_outline16" fill="none" stroke="none" d="M410.5,316.5h36a5,5,0,0,1,5,5v8a5,5,0,0,1,-5,5h-36a5,5,0,0,1,-5,-5v-8a5,5,0,0,1,5,-5z"></path><g id="node_text16" fill="black"><text id="kity_text_127" text-rendering="inherit" font-size="12" dy=".8em" y="319.5" x="410.5">人类学</text></g></g><g id="minder_node20"><g id="node_expander16" display="none" style="cursor: pointer;"><path id="kity_path_252" fill="white" stroke="gray" d="M405.5,351.5A6,6,0,1,1,393.5,351.5A6,6,0,1,1,405.5,351.5"></path><path id="kity_path_253" fill="none" stroke="gray"></path></g><path id="node_outline17" fill="none" stroke="none" d="M410.5,342.5h36a5,5,0,0,1,5,5v8a5,5,0,0,1,-5,5h-36a5,5,0,0,1,-5,-5v-8a5,5,0,0,1,5,-5z"></path><g id="node_text17" fill="black"><text id="kity_text_129" text-rendering="inherit" font-size="12" dy=".8em" y="345.5" x="410.5">新闻学</text></g></g><g id="minder_node21"><g id="node_expander17" display="none" style="cursor: pointer;"><path id="kity_path_255" fill="white" stroke="gray" d="M405.5,377.5A6,6,0,1,1,393.5,377.5A6,6,0,1,1,405.5,377.5"></path><path id="kity_path_256" fill="none" stroke="gray"></path></g><path id="node_outline18" fill="none" stroke="none" d="M410.5,368.5h36a5,5,0,0,1,5,5v8a5,5,0,0,1,-5,5h-36a5,5,0,0,1,-5,-5v-8a5,5,0,0,1,5,-5z"></path><g id="node_text18" fill="black"><text id="kity_text_131" text-rendering="inherit" font-size="12" dy=".8em" y="371.5" x="410.5">心理学</text></g></g><g id="minder_node22" opacity="1"><g id="node_expander31" style="cursor: pointer;"><path id="kity_path_297" fill="white" stroke="gray" d="M96.5,474.5A6,6,0,1,1,84.5,474.5A6,6,0,1,1,96.5,474.5"></path><path id="kity_path_298" fill="none" stroke="gray" d="M86,474.5L95,474.5"></path></g><path id="node_outline32" fill="rgb(238, 243, 246)" stroke="rgb(115, 161, 191)" d="M100.5,461.5h90a3,3,0,0,1,3,3v20a3,3,0,0,1,-3,3h-90a3,3,0,0,1,-3,-3v-20a3,3,0,0,1,3,-3z" stroke-width="1"></path><g id="node_text32" fill="black"><text id="kity_text_169" text-rendering="inherit" font-size="14" dy=".8em" y="467.5" x="117.5">思维现象</text></g></g><g id="minder_node33" opacity="1"><g id="node_expander32" style="cursor: pointer;" display="none"><path id="kity_path_300" fill="white" stroke="gray" d="M92.5,660.5A6,6,0,1,1,80.5,660.5A6,6,0,1,1,92.5,660.5"></path><path id="kity_path_301" fill="none" stroke="gray"></path></g><path id="node_outline33" fill="rgb(238, 243, 246)" stroke="rgb(115, 161, 191)" d="M96.5,626.5h412a3,3,0,0,1,3,3v62a3,3,0,0,1,-3,3h-412a3,3,0,0,1,-3,-3v-62a3,3,0,0,1,3,-3z" stroke-width="1"></path><g id="node_text33" fill="black"><text id="kity_text_171" text-rendering="inherit" font-size="14" dy=".8em" y="632.5" x="113.5">科学史关于自然界、人类社会和思维发展规律的知识体系。</text><text id="kity_text_172" text-rendering="inherit" font-size="14" dy=".8em" y="653.5" x="113.5">从研究对象看，可分为自然科学、社会科学和思维科学；</text><text id="kity_text_173" text-rendering="inherit" font-size="14" dy=".8em" y="674.5" x="113.5">从同实践的关系看，可分为理论科学、技术科学和应用科学。</text></g></g><g id="minder_node26"><g id="node_expander21" style="cursor: pointer;" display="none"><path id="kity_path_267" fill="white" stroke="gray" d="M637.5,410.5A6,6,0,1,1,625.5,410.5A6,6,0,1,1,637.5,410.5"></path><path id="kity_path_268" fill="none" stroke="gray"></path></g><path id="node_outline22" fill="none" stroke="none" d="M642.5,401.5h360a5,5,0,0,1,5,5v8a5,5,0,0,1,-5,5h-360a5,5,0,0,1,-5,-5v-8a5,5,0,0,1,5,-5z" stroke-width="3"></path><g id="node_text22" fill="black"><text id="kity_text_142" text-rendering="inherit" font-size="12" dy=".8em" y="404.5" x="642.5">用词进行判断、推理并得出结论的过程，又叫词的思维或者逻辑思维</text></g></g><g id="minder_node25"><g id="node_expander22" style="cursor: pointer;"><path id="kity_path_270" fill="white" stroke="gray" d="M503.5,410.5A6,6,0,1,1,491.5,410.5A6,6,0,1,1,503.5,410.5"></path><path id="kity_path_271" fill="none" stroke="gray" d="M493,410.5L502,410.5"></path></g><path id="node_outline23" fill="none" stroke="none" d="M508.5,401.5h108a5,5,0,0,1,5,5v8a5,5,0,0,1,-5,5h-108a5,5,0,0,1,-5,-5v-8a5,5,0,0,1,5,-5z"></path><g id="node_text23" fill="black"><text id="kity_text_144" text-rendering="inherit" font-size="12" dy=".8em" y="404.5" x="508.5">抽象（逻辑）思维学</text></g></g><g id="minder_node28"><g id="node_expander23" display="none" style="cursor: pointer;"><path id="kity_path_273" fill="white" stroke="gray" d="M635.5,463.5A6,6,0,1,1,623.5,463.5A6,6,0,1,1,635.5,463.5"></path><path id="kity_path_274" fill="none" stroke="gray"></path></g><path id="node_outline24" fill="none" stroke="none" d="M640.5,436.5h336a5,5,0,0,1,5,5v44a5,5,0,0,1,-5,5h-336a5,5,0,0,1,-5,-5v-44a5,5,0,0,1,5,-5z"></path><g id="node_text24" fill="black"><text id="kity_text_146" text-rendering="inherit" font-size="12" dy=".8em" y="439.5" x="640.5">建立在经验或直感的基础上。</text><text id="kity_text_147" text-rendering="inherit" font-size="12" dy=".8em" y="457.5" x="640.5">形象思维学主要研究人类根据经验或直感产生智能活动的行为，</text><text id="kity_text_148" text-rendering="inherit" font-size="12" dy=".8em" y="475.5" x="640.5">以及如何用计算机实现这一过程并使之上升为理论</text></g></g><g id="minder_node27"><g id="node_expander24" style="cursor: pointer;"><path id="kity_path_276" fill="white" stroke="gray" d="M501.5,463.5A6,6,0,1,1,489.5,463.5A6,6,0,1,1,501.5,463.5"></path><path id="kity_path_277" fill="none" stroke="gray" d="M491,463.5L500,463.5"></path></g><path id="node_outline25" fill="none" stroke="none" d="M506.5,454.5h108a5,5,0,0,1,5,5v8a5,5,0,0,1,-5,5h-108a5,5,0,0,1,-5,-5v-8a5,5,0,0,1,5,-5z"></path><g id="node_text25" fill="black"><text id="kity_text_150" text-rendering="inherit" font-size="12" dy=".8em" y="457.5" x="506.5">形象（直感）思维学</text></g></g><g id="minder_node30"><g id="node_expander25" display="none" style="cursor: pointer;"><path id="kity_path_279" fill="white" stroke="gray" d="M636.5,521.5A6,6,0,1,1,624.5,521.5A6,6,0,1,1,636.5,521.5"></path><path id="kity_path_280" fill="none" stroke="gray"></path></g><path id="node_outline26" fill="none" stroke="none" d="M641.5,512.5h300a5,5,0,0,1,5,5v8a5,5,0,0,1,-5,5h-300a5,5,0,0,1,-5,-5v-8a5,5,0,0,1,5,-5z"></path><g id="node_text26" fill="black"><text id="kity_text_152" text-rendering="inherit" font-size="12" dy=".8em" y="515.5" x="641.5">是形象思维的扩展，由直感的显意识扩展到灵感的潜意识</text></g></g><g id="minder_node29"><g id="node_expander26" style="cursor: pointer;"><path id="kity_path_282" fill="white" stroke="gray" d="M502.5,521.5A6,6,0,1,1,490.5,521.5A6,6,0,1,1,502.5,521.5"></path><path id="kity_path_283" fill="none" stroke="gray" d="M492,521.5L501,521.5"></path></g><path id="node_outline27" fill="none" stroke="none" d="M507.5,512.5h108a5,5,0,0,1,5,5v8a5,5,0,0,1,-5,5h-108a5,5,0,0,1,-5,-5v-8a5,5,0,0,1,5,-5z"></path><g id="node_text27" fill="black"><text id="kity_text_154" text-rendering="inherit" font-size="12" dy=".8em" y="515.5" x="507.5">灵感（顿悟）思维学</text></g></g><g id="minder_node32"><g id="node_expander27" display="none" style="cursor: pointer;"><path id="kity_path_285" fill="white" stroke="gray" d="M589.5,550.5A6,6,0,1,1,577.5,550.5A6,6,0,1,1,589.5,550.5"></path><path id="kity_path_286" fill="none" stroke="gray"></path></g><path id="node_outline28" fill="none" stroke="none" d="M594.5,541.5h120a5,5,0,0,1,5,5v8a5,5,0,0,1,-5,5h-120a5,5,0,0,1,-5,-5v-8a5,5,0,0,1,5,-5z"></path><g id="node_text28" fill="black"><text id="kity_text_156" text-rendering="inherit" font-size="12" dy=".8em" y="544.5" x="594.5">研究人、集体如何思维</text></g></g><g id="minder_node31"><g id="node_expander28" style="cursor: pointer;"><path id="kity_path_288" fill="white" stroke="gray" d="M503.5,550.5A6,6,0,1,1,491.5,550.5A6,6,0,1,1,503.5,550.5"></path><path id="kity_path_289" fill="none" stroke="gray" d="M493,550.5L502,550.5"></path></g><path id="node_outline29" fill="none" stroke="none" d="M508.5,541.5h60a5,5,0,0,1,5,5v8a5,5,0,0,1,-5,5h-60a5,5,0,0,1,-5,-5v-8a5,5,0,0,1,5,-5z"></path><g id="node_text29" fill="black"><text id="kity_text_158" text-rendering="inherit" font-size="12" dy=".8em" y="544.5" x="508.5">社会思维学</text></g></g><g id="minder_node24"><g id="node_expander29" style="cursor: pointer;"><path id="kity_path_291" fill="white" stroke="gray" d="M367.5,474.5A6,6,0,1,1,355.5,474.5A6,6,0,1,1,367.5,474.5"></path><path id="kity_path_292" fill="none" stroke="gray" d="M357,474.5L366,474.5"></path></g><path id="node_outline30" fill="none" stroke="none" d="M372.5,438.5h108a5,5,0,0,1,5,5v62a5,5,0,0,1,-5,5h-108a5,5,0,0,1,-5,-5v-62a5,5,0,0,1,5,-5z"></path><g id="node_text30" fill="black"><text id="kity_text_160" text-rendering="inherit" font-size="12" dy=".8em" y="441.5" x="372.5">未经过人的行为</text><text id="kity_text_161" text-rendering="inherit" font-size="12" dy=".8em" y="459.5" x="372.5">未外化成事实的</text><text id="kity_text_162" text-rendering="inherit" font-size="12" dy=".8em" y="477.5" x="372.5">观念作用和观念形态</text><text id="kity_text_163" text-rendering="inherit" font-size="12" dy=".8em" y="495.5" x="372.5">思维现象</text></g></g><g id="minder_node23"><g id="node_expander30" style="cursor: pointer;"><path id="kity_path_294" fill="white" stroke="gray" d="M209.5,474.5A6,6,0,1,1,197.5,474.5A6,6,0,1,1,209.5,474.5"></path><path id="kity_path_295" fill="none" stroke="gray" d="M199,474.5L208,474.5"></path></g><path id="node_outline31" fill="none" stroke="none" d="M214.5,447.5h132a5,5,0,0,1,5,5v44a5,5,0,0,1,-5,5h-132a5,5,0,0,1,-5,-5v-44a5,5,0,0,1,5,-5z"></path><g id="node_text31" fill="black"><text id="kity_text_165" text-rendering="inherit" font-size="12" dy=".8em" y="450.5" x="214.5">研究人的意识与大脑、</text><text id="kity_text_166" text-rendering="inherit" font-size="12" dy=".8em" y="468.5" x="214.5">精神与物质、</text><text id="kity_text_167" text-rendering="inherit" font-size="12" dy=".8em" y="486.5" x="214.5">主观与客观的综合性科学</text></g></g></g></g></svg>