<svg id="kity_svg_6" xmlns="http://www.w3.org/2000/svg" xmlns:xlink="http://www.w3.org/1999/xlink" version="1.1" width="602" height="539" style="background: rgb(251, 251, 251); visibility: visible;" viewBox="0 0 602 539"><defs id="kity_defs_7"><linearGradient id="kity_linearGradient_17" x1="0" y1="0" x2="0" y2="1"><stop id="kity_stop_18" offset="0" stop-color="rgb(255, 255, 255)"></stop><stop id="kity_stop_19" offset="1" stop-color="rgb(204, 204, 204)"></stop></linearGradient><marker id="kity_marker_2" orient="auto" refX="6" refY="0" viewBox="-7 -7 14 14" markerWidth="7" markerHeight="7" markerUnits="userSpaceOnUse"><path id="kity_path_3" fill="rgb(115, 161, 191)" stroke="none" d="M6,0A6,6,0,1,1,-6,0A6,6,0,1,1,6,0"></path></marker></defs><g id="kity_g_8"><g id="minder1" text-rendering="optimize-speed"><g id="minder_connect_group1"><path id="kity_path_31" fill="none" stroke="rgb(115, 161, 191)" stroke-width="1" d="M64.5,272.5A60,217,0,0,1,124.5,55.5"></path><path id="kity_path_33" fill="none" stroke="rgb(115, 161, 191)" stroke-width="1" d="M222.5,55.5C230.5,55.5,230.5,29.5,238.5,29.5"></path><path id="kity_path_35" fill="none" stroke="rgb(115, 161, 191)" stroke-width="1" d="M222.5,55.5C230.5,55.5,230.5,55.5,238.5,55.5"></path><path id="kity_path_37" fill="none" stroke="rgb(115, 161, 191)" stroke-width="1" d="M222.5,55.5C230.5,55.5,230.5,81.5,238.5,81.5"></path><path id="kity_path_39" fill="none" stroke="rgb(115, 161, 191)" stroke-width="1" d="M64.5,272.5A60,118,0,0,1,124.5,154.5"></path><path id="kity_path_41" fill="none" stroke="rgb(115, 161, 191)" stroke-width="1" d="M222.5,154.5C230.5,154.5,230.5,128.5,238.5,128.5"></path><path id="kity_path_43" fill="none" stroke="rgb(115, 161, 191)" stroke-width="1" d="M296.5,128.5C304.5,128.5,304.5,115.5,312.5,115.5"></path><path id="kity_path_45" fill="none" stroke="rgb(115, 161, 191)" stroke-width="1" d="M296.5,128.5C304.5,128.5,304.5,141.5,312.5,141.5"></path><path id="kity_path_47" fill="none" stroke="rgb(115, 161, 191)" stroke-width="1" d="M222.5,154.5C230.5,154.5,230.5,180.5,238.5,180.5"></path><path id="kity_path_49" fill="none" stroke="rgb(115, 161, 191)" stroke-width="1" d="M308.5,180.5C316.5,180.5,316.5,167.5,324.5,167.5"></path><path id="kity_path_51" fill="none" stroke="rgb(115, 161, 191)" stroke-width="1" d="M308.5,180.5C316.5,180.5,316.5,193.5,324.5,193.5"></path><path id="kity_path_53" fill="none" stroke="rgb(115, 161, 191)" stroke-width="1" d="M64.5,272.5A61,225,0,0,0,125.5,497.5"></path><path id="kity_path_63" fill="none" stroke="rgb(115, 161, 191)" stroke-width="1" d="M64.5,272.5A60,20,0,0,0,124.5,292.5"></path><path id="kity_path_65" fill="none" stroke="rgb(115, 161, 191)" stroke-width="1" d="M222.5,292.5C230.5,292.5,230.5,253.5,238.5,253.5"></path><path id="kity_path_67" fill="none" stroke="rgb(115, 161, 191)" stroke-width="1" d="M296.5,253.5C304.5,253.5,304.5,227.5,312.5,227.5"></path><path id="kity_path_69" fill="none" stroke="rgb(115, 161, 191)" stroke-width="1" d="M296.5,253.5C304.5,253.5,304.5,253.5,312.5,253.5"></path><path id="kity_path_71" fill="none" stroke="rgb(115, 161, 191)" stroke-width="1" d="M296.5,253.5C304.5,253.5,304.5,279.5,312.5,279.5"></path><path id="kity_path_73" fill="none" stroke="rgb(115, 161, 191)" stroke-width="1" d="M222.5,292.5C230.5,292.5,230.5,331.5,238.5,331.5"></path><path id="kity_path_75" fill="none" stroke="rgb(115, 161, 191)" stroke-width="1" d="M296.5,331.5C304.5,331.5,304.5,305.5,312.5,305.5"></path><path id="kity_path_77" fill="none" stroke="rgb(115, 161, 191)" stroke-width="1" d="M296.5,331.5C304.5,331.5,304.5,357.5,312.5,357.5"></path><path id="kity_path_79" fill="none" stroke="rgb(115, 161, 191)" stroke-width="1" d="M358.5,357.5C366.5,357.5,366.5,331.5,374.5,331.5"></path><path id="kity_path_81" fill="none" stroke="rgb(115, 161, 191)" stroke-width="1" d="M358.5,357.5C366.5,357.5,366.5,357.5,374.5,357.5"></path><path id="kity_path_83" fill="none" stroke="rgb(115, 161, 191)" stroke-width="1" d="M358.5,357.5C366.5,357.5,366.5,383.5,374.5,383.5"></path><path id="kity_path_85" fill="none" stroke="rgb(115, 161, 191)" stroke-width="1" d="M64.5,272.5A60,158,0,0,0,124.5,430.5"></path><path id="kity_path_87" fill="none" stroke="rgb(115, 161, 191)" stroke-width="1" d="M222.5,430.5C230.5,430.5,230.5,417.5,238.5,417.5"></path><path id="kity_path_89" fill="none" stroke="rgb(115, 161, 191)" stroke-width="1" d="M222.5,430.5C230.5,430.5,230.5,443.5,238.5,443.5"></path><path id="kity_path_274" fill="none" stroke="rgb(115, 161, 191)" stroke-width="1" d="M329.5,484.5C337.5,484.5,337.5,484.5,345.5,484.5"></path><path id="kity_path_275" fill="none" stroke="rgb(115, 161, 191)" stroke-width="1" d="M223.5,497.5C231.5,497.5,231.5,484.5,239.5,484.5"></path><path id="kity_path_276" fill="none" stroke="rgb(115, 161, 191)" stroke-width="1" d="M329.5,510.5C337.5,510.5,337.5,510.5,345.5,510.5"></path><path id="kity_path_277" fill="none" stroke="rgb(115, 161, 191)" stroke-width="1" d="M223.5,497.5C231.5,497.5,231.5,510.5,239.5,510.5"></path></g><g id="minder_node1"><path id="node_outline1" fill="rgb(115, 161, 191)" stroke="rgb(115, 161, 191)" d="M25.5,258.5h78a5,5,0,0,1,5,5v18a5,5,0,0,1,-5,5h-78a5,5,0,0,1,-5,-5v-18a5,5,0,0,1,5,-5z" stroke-width="3"></path><g id="node_text1" fill="white"><text id="kity_text_22" text-rendering="inherit" font-size="16" dy=".8em" y="264.5" x="32.5">高效阅读</text></g></g><g id="kity_g_14" display="none"><path id="kity_path_15" fill="rgba(0, 92, 153, 0.5)" stroke="none" d="M126.5,508.5h96v8h-96z"></path><path id="kity_path_16" fill="none" stroke="rgb(0, 76, 128)" d="M126.5,508.5L222.5,508.5" stroke-width="1"></path></g><g id="minder_node2"><g id="node_expander4" style="cursor: pointer;"><path id="kity_path_190" fill="white" stroke="gray" d="M125.5,55.5A6,6,0,1,1,113.5,55.5A6,6,0,1,1,125.5,55.5"></path><path id="kity_path_191" fill="none" stroke="gray" d="M115,55.5L124,55.5"></path></g><path id="node_outline5" fill="rgb(238, 243, 246)" stroke="rgb(115, 161, 191)" d="M129.5,42.5h90a3,3,0,0,1,3,3v20a3,3,0,0,1,-3,3h-90a3,3,0,0,1,-3,-3v-20a3,3,0,0,1,3,-3z" stroke-width="1"></path><g id="node_text5" fill="black"><text id="kity_text_97" text-rendering="inherit" font-size="14" dy=".8em" y="48.5" x="146.5">目标阅读</text></g></g><g id="minder_node3"><g id="node_expander1" style="cursor: pointer;" display="none"><path id="kity_path_181" fill="white" stroke="gray" d="M238.5,29.5A6,6,0,1,1,226.5,29.5A6,6,0,1,1,238.5,29.5"></path><path id="kity_path_182" fill="none" stroke="gray"></path></g><path id="node_outline2" fill="none" stroke="none" d="M243.5,20.5h143a5,5,0,0,1,5,5v8a5,5,0,0,1,-5,5h-143a5,5,0,0,1,-5,-5v-8a5,5,0,0,1,5,-5z"></path><g id="node_text2" fill="black"><text id="kity_text_91" text-rendering="inherit" font-size="12" dy=".8em" y="23.5" x="243.5">有 兴趣/具体目标 的去阅读</text></g></g><g id="minder_node4"><g id="node_expander2" style="cursor: pointer;" display="none"><path id="kity_path_184" fill="white" stroke="gray" d="M238.5,55.5A6,6,0,1,1,226.5,55.5A6,6,0,1,1,238.5,55.5"></path><path id="kity_path_185" fill="none" stroke="gray"></path></g><path id="node_outline3" fill="none" stroke="none" d="M243.5,46.5h72a5,5,0,0,1,5,5v8a5,5,0,0,1,-5,5h-72a5,5,0,0,1,-5,-5v-8a5,5,0,0,1,5,-5z"></path><g id="node_text3" fill="black"><text id="kity_text_93" text-rendering="inherit" font-size="12" dy=".8em" y="49.5" x="243.5">从书中找答案</text></g></g><g id="minder_node5"><g id="node_expander3" style="cursor: pointer;" display="none"><path id="kity_path_187" fill="white" stroke="gray" d="M238.5,81.5A6,6,0,1,1,226.5,81.5A6,6,0,1,1,238.5,81.5"></path><path id="kity_path_188" fill="none" stroke="gray"></path></g><path id="node_outline4" fill="none" stroke="none" d="M243.5,72.5h84a5,5,0,0,1,5,5v8a5,5,0,0,1,-5,5h-84a5,5,0,0,1,-5,-5v-8a5,5,0,0,1,5,-5z"></path><g id="node_text4" fill="black"><text id="kity_text_95" text-rendering="inherit" font-size="12" dy=".8em" y="75.5" x="243.5">记录找到的答案</text></g></g><g id="minder_node6"><g id="node_expander11" style="cursor: pointer;"><path id="kity_path_211" fill="white" stroke="gray" d="M125.5,154.5A6,6,0,1,1,113.5,154.5A6,6,0,1,1,125.5,154.5"></path><path id="kity_path_212" fill="none" stroke="gray" d="M115,154.5L124,154.5"></path></g><path id="node_outline12" fill="rgb(238, 243, 246)" stroke="rgb(115, 161, 191)" d="M129.5,141.5h90a3,3,0,0,1,3,3v20a3,3,0,0,1,-3,3h-90a3,3,0,0,1,-3,-3v-20a3,3,0,0,1,3,-3z" stroke-width="1"></path><g id="node_text12" fill="black"><text id="kity_text_111" text-rendering="inherit" font-size="14" dy=".8em" y="147.5" x="146.5">脉络重点</text></g></g><g id="minder_node7"><g id="node_expander7" style="cursor: pointer;"><path id="kity_path_199" fill="white" stroke="gray" d="M238.5,128.5A6,6,0,1,1,226.5,128.5A6,6,0,1,1,238.5,128.5"></path><path id="kity_path_200" fill="none" stroke="gray" d="M228,128.5L237,128.5"></path></g><path id="node_outline8" fill="none" stroke="none" d="M243.5,119.5h48a5,5,0,0,1,5,5v8a5,5,0,0,1,-5,5h-48a5,5,0,0,1,-5,-5v-8a5,5,0,0,1,5,-5z"></path><g id="node_text8" fill="black"><text id="kity_text_103" text-rendering="inherit" font-size="12" dy=".8em" y="122.5" x="243.5">把握脉络</text></g></g><g id="minder_node8"><g id="node_expander5" style="cursor: pointer;" display="none"><path id="kity_path_193" fill="white" stroke="gray" d="M312.5,115.5A6,6,0,1,1,300.5,115.5A6,6,0,1,1,312.5,115.5"></path><path id="kity_path_194" fill="none" stroke="gray"></path></g><path id="node_outline6" fill="none" stroke="none" d="M317.5,106.5h48a5,5,0,0,1,5,5v8a5,5,0,0,1,-5,5h-48a5,5,0,0,1,-5,-5v-8a5,5,0,0,1,5,-5z"></path><g id="node_text6" fill="black"><text id="kity_text_99" text-rendering="inherit" font-size="12" dy=".8em" y="109.5" x="317.5">目录结构</text></g></g><g id="minder_node9"><g id="node_expander6" style="cursor: pointer;" display="none"><path id="kity_path_196" fill="white" stroke="gray" d="M312.5,141.5A6,6,0,1,1,300.5,141.5A6,6,0,1,1,312.5,141.5"></path><path id="kity_path_197" fill="none" stroke="gray"></path></g><path id="node_outline7" fill="none" stroke="none" d="M317.5,132.5h60a5,5,0,0,1,5,5v8a5,5,0,0,1,-5,5h-60a5,5,0,0,1,-5,-5v-8a5,5,0,0,1,5,-5z"></path><g id="node_text7" fill="black"><text id="kity_text_101" text-rendering="inherit" font-size="12" dy=".8em" y="135.5" x="317.5">序言、后记</text></g></g><g id="minder_node10"><g id="node_expander10" style="cursor: pointer;"><path id="kity_path_208" fill="white" stroke="gray" d="M238.5,180.5A6,6,0,1,1,226.5,180.5A6,6,0,1,1,238.5,180.5"></path><path id="kity_path_209" fill="none" stroke="gray" d="M228,180.5L237,180.5"></path></g><path id="node_outline11" fill="none" stroke="none" d="M243.5,171.5h60a5,5,0,0,1,5,5v8a5,5,0,0,1,-5,5h-60a5,5,0,0,1,-5,-5v-8a5,5,0,0,1,5,-5z"></path><g id="node_text11" fill="black"><text id="kity_text_109" text-rendering="inherit" font-size="12" dy=".8em" y="174.5" x="243.5">非匀速阅读</text></g></g><g id="minder_node11"><g id="node_expander8" style="cursor: pointer;" display="none"><path id="kity_path_202" fill="white" stroke="gray" d="M324.5,167.5A6,6,0,1,1,312.5,167.5A6,6,0,1,1,324.5,167.5"></path><path id="kity_path_203" fill="none" stroke="gray"></path></g><path id="node_outline9" fill="none" stroke="none" d="M329.5,158.5h96a5,5,0,0,1,5,5v8a5,5,0,0,1,-5,5h-96a5,5,0,0,1,-5,-5v-8a5,5,0,0,1,5,-5z"></path><g id="node_text9" fill="black"><text id="kity_text_105" text-rendering="inherit" font-size="12" dy=".8em" y="161.5" x="329.5">重点部分反复阅读</text></g></g><g id="minder_node12"><g id="node_expander9" style="cursor: pointer;" display="none"><path id="kity_path_205" fill="white" stroke="gray" d="M324.5,193.5A6,6,0,1,1,312.5,193.5A6,6,0,1,1,324.5,193.5"></path><path id="kity_path_206" fill="none" stroke="gray"></path></g><path id="node_outline10" fill="none" stroke="none" d="M329.5,184.5h108a5,5,0,0,1,5,5v8a5,5,0,0,1,-5,5h-108a5,5,0,0,1,-5,-5v-8a5,5,0,0,1,5,-5z"></path><g id="node_text10" fill="black"><text id="kity_text_107" text-rendering="inherit" font-size="12" dy=".8em" y="187.5" x="329.5">非重点部分扫描阅读</text></g></g><g id="minder_node13" opacity="1"><g id="node_expander16" style="cursor: pointer;"><path id="kity_path_226" fill="white" stroke="gray" d="M126.5,497.5A6,6,0,1,1,114.5,497.5A6,6,0,1,1,126.5,497.5"></path><path id="kity_path_227" fill="none" stroke="gray" d="M116,497.5L125,497.5"></path></g><path id="node_outline17" fill="rgb(238, 243, 246)" stroke="rgb(115, 161, 191)" d="M130.5,484.5h90a3,3,0,0,1,3,3v20a3,3,0,0,1,-3,3h-90a3,3,0,0,1,-3,-3v-20a3,3,0,0,1,3,-3z" stroke-width="1"></path><g id="node_text17" fill="black"><text id="kity_text_121" text-rendering="inherit" font-size="14" dy=".8em" y="490.5" x="147.5">体系阅读</text></g></g><g id="minder_node18"><g id="node_expander27" style="cursor: pointer;"><path id="kity_path_259" fill="white" stroke="gray" d="M125.5,292.5A6,6,0,1,1,113.5,292.5A6,6,0,1,1,125.5,292.5"></path><path id="kity_path_260" fill="none" stroke="gray" d="M115,292.5L124,292.5"></path></g><path id="node_outline28" fill="rgb(238, 243, 246)" stroke="rgb(115, 161, 191)" d="M129.5,279.5h90a3,3,0,0,1,3,3v20a3,3,0,0,1,-3,3h-90a3,3,0,0,1,-3,-3v-20a3,3,0,0,1,3,-3z" stroke-width="1"></path><g id="node_text28" fill="black"><text id="kity_text_143" text-rendering="inherit" font-size="14" dy=".8em" y="285.5" x="146.5">知识沉淀</text></g></g><g id="minder_node19"><g id="node_expander20" style="cursor: pointer;"><path id="kity_path_238" fill="white" stroke="gray" d="M238.5,253.5A6,6,0,1,1,226.5,253.5A6,6,0,1,1,238.5,253.5"></path><path id="kity_path_239" fill="none" stroke="gray" d="M228,253.5L237,253.5"></path></g><path id="node_outline21" fill="none" stroke="none" d="M243.5,244.5h48a5,5,0,0,1,5,5v8a5,5,0,0,1,-5,5h-48a5,5,0,0,1,-5,-5v-8a5,5,0,0,1,5,-5z"></path><g id="node_text21" fill="black"><text id="kity_text_129" text-rendering="inherit" font-size="12" dy=".8em" y="247.5" x="243.5">存档形式</text></g></g><g id="minder_node20"><g id="node_expander17" style="cursor: pointer;" display="none"><path id="kity_path_229" fill="white" stroke="gray" d="M312.5,227.5A6,6,0,1,1,300.5,227.5A6,6,0,1,1,312.5,227.5"></path><path id="kity_path_230" fill="none" stroke="gray"></path></g><path id="node_outline18" fill="none" stroke="none" d="M317.5,218.5h36a5,5,0,0,1,5,5v8a5,5,0,0,1,-5,5h-36a5,5,0,0,1,-5,-5v-8a5,5,0,0,1,5,-5z"></path><g id="node_text18" fill="black"><text id="kity_text_123" text-rendering="inherit" font-size="12" dy=".8em" y="221.5" x="317.5">云笔记</text></g></g><g id="minder_node21"><g id="node_expander18" style="cursor: pointer;" display="none"><path id="kity_path_232" fill="white" stroke="gray" d="M312.5,253.5A6,6,0,1,1,300.5,253.5A6,6,0,1,1,312.5,253.5"></path><path id="kity_path_233" fill="none" stroke="gray"></path></g><path id="node_outline19" fill="none" stroke="none" d="M317.5,244.5h24a5,5,0,0,1,5,5v8a5,5,0,0,1,-5,5h-24a5,5,0,0,1,-5,-5v-8a5,5,0,0,1,5,-5z"></path><g id="node_text19" fill="black"><text id="kity_text_125" text-rendering="inherit" font-size="12" dy=".8em" y="247.5" x="317.5">脑图</text></g></g><g id="minder_node22"><g id="node_expander19" style="cursor: pointer;" display="none"><path id="kity_path_235" fill="white" stroke="gray" d="M312.5,279.5A6,6,0,1,1,300.5,279.5A6,6,0,1,1,312.5,279.5"></path><path id="kity_path_236" fill="none" stroke="gray"></path></g><path id="node_outline20" fill="none" stroke="none" d="M317.5,270.5h84a5,5,0,0,1,5,5v8a5,5,0,0,1,-5,5h-84a5,5,0,0,1,-5,-5v-8a5,5,0,0,1,5,-5z"></path><g id="node_text20" fill="black"><text id="kity_text_127" text-rendering="inherit" font-size="12" dy=".8em" y="273.5" x="317.5">笔记本、草稿纸</text></g></g><g id="minder_node23"><g id="node_expander26" style="cursor: pointer;"><path id="kity_path_256" fill="white" stroke="gray" d="M238.5,331.5A6,6,0,1,1,226.5,331.5A6,6,0,1,1,238.5,331.5"></path><path id="kity_path_257" fill="none" stroke="gray" d="M228,331.5L237,331.5"></path></g><path id="node_outline27" fill="none" stroke="none" d="M243.5,322.5h48a5,5,0,0,1,5,5v8a5,5,0,0,1,-5,5h-48a5,5,0,0,1,-5,-5v-8a5,5,0,0,1,5,-5z"></path><g id="node_text27" fill="black"><text id="kity_text_141" text-rendering="inherit" font-size="12" dy=".8em" y="325.5" x="243.5">搜索方式</text></g></g><g id="minder_node24"><g id="node_expander21" style="cursor: pointer;" display="none"><path id="kity_path_241" fill="white" stroke="gray" d="M312.5,305.5A6,6,0,1,1,300.5,305.5A6,6,0,1,1,312.5,305.5"></path><path id="kity_path_242" fill="none" stroke="gray"></path></g><path id="node_outline22" fill="none" stroke="none" d="M317.5,296.5h36a5,5,0,0,1,5,5v8a5,5,0,0,1,-5,5h-36a5,5,0,0,1,-5,-5v-8a5,5,0,0,1,5,-5z"></path><g id="node_text22" fill="black"><text id="kity_text_131" text-rendering="inherit" font-size="12" dy=".8em" y="299.5" x="317.5">打标签</text></g></g><g id="minder_node25"><g id="node_expander25" style="cursor: pointer;"><path id="kity_path_253" fill="white" stroke="gray" d="M312.5,357.5A6,6,0,1,1,300.5,357.5A6,6,0,1,1,312.5,357.5"></path><path id="kity_path_254" fill="none" stroke="gray" d="M302,357.5L311,357.5"></path></g><path id="node_outline26" fill="none" stroke="none" d="M317.5,348.5h36a5,5,0,0,1,5,5v8a5,5,0,0,1,-5,5h-36a5,5,0,0,1,-5,-5v-8a5,5,0,0,1,5,-5z"></path><g id="node_text26" fill="black"><text id="kity_text_139" text-rendering="inherit" font-size="12" dy=".8em" y="351.5" x="317.5">建分类</text></g></g><g id="minder_node26"><g id="node_expander22" style="cursor: pointer;" display="none"><path id="kity_path_244" fill="white" stroke="gray" d="M374.5,331.5A6,6,0,1,1,362.5,331.5A6,6,0,1,1,374.5,331.5"></path><path id="kity_path_245" fill="none" stroke="gray"></path></g><path id="node_outline23" fill="none" stroke="none" d="M379.5,322.5h24a5,5,0,0,1,5,5v8a5,5,0,0,1,-5,5h-24a5,5,0,0,1,-5,-5v-8a5,5,0,0,1,5,-5z"></path><g id="node_text23" fill="black"><text id="kity_text_133" text-rendering="inherit" font-size="12" dy=".8em" y="325.5" x="379.5">经济</text></g></g><g id="minder_node27"><g id="node_expander23" style="cursor: pointer;" display="none"><path id="kity_path_247" fill="white" stroke="gray" d="M374.5,357.5A6,6,0,1,1,362.5,357.5A6,6,0,1,1,374.5,357.5"></path><path id="kity_path_248" fill="none" stroke="gray"></path></g><path id="node_outline24" fill="none" stroke="none" d="M379.5,348.5h24a5,5,0,0,1,5,5v8a5,5,0,0,1,-5,5h-24a5,5,0,0,1,-5,-5v-8a5,5,0,0,1,5,-5z"></path><g id="node_text24" fill="black"><text id="kity_text_135" text-rendering="inherit" font-size="12" dy=".8em" y="351.5" x="379.5">社科</text></g></g><g id="minder_node28"><g id="node_expander24" style="cursor: pointer;" display="none"><path id="kity_path_250" fill="white" stroke="gray" d="M374.5,383.5A6,6,0,1,1,362.5,383.5A6,6,0,1,1,374.5,383.5"></path><path id="kity_path_251" fill="none" stroke="gray"></path></g><path id="node_outline25" fill="none" stroke="none" d="M379.5,374.5h24a5,5,0,0,1,5,5v8a5,5,0,0,1,-5,5h-24a5,5,0,0,1,-5,-5v-8a5,5,0,0,1,5,-5z"></path><g id="node_text25" fill="black"><text id="kity_text_137" text-rendering="inherit" font-size="12" dy=".8em" y="377.5" x="379.5">管理</text></g></g><g id="minder_node29"><g id="node_expander30" style="cursor: pointer;"><path id="kity_path_268" fill="white" stroke="gray" d="M125.5,430.5A6,6,0,1,1,113.5,430.5A6,6,0,1,1,125.5,430.5"></path><path id="kity_path_269" fill="none" stroke="gray" d="M115,430.5L124,430.5"></path></g><path id="node_outline31" fill="rgb(238, 243, 246)" stroke="rgb(115, 161, 191)" d="M129.5,417.5h90a3,3,0,0,1,3,3v20a3,3,0,0,1,-3,3h-90a3,3,0,0,1,-3,-3v-20a3,3,0,0,1,3,-3z" stroke-width="1"></path><g id="node_text31" fill="black"><text id="kity_text_149" text-rendering="inherit" font-size="14" dy=".8em" y="423.5" x="146.5">总结输出</text></g></g><g id="minder_node30"><g id="node_expander28" style="cursor: pointer;" display="none"><path id="kity_path_262" fill="white" stroke="gray" d="M238.5,417.5A6,6,0,1,1,226.5,417.5A6,6,0,1,1,238.5,417.5"></path><path id="kity_path_263" fill="none" stroke="gray"></path></g><path id="node_outline29" fill="none" stroke="none" d="M243.5,408.5h132a5,5,0,0,1,5,5v8a5,5,0,0,1,-5,5h-132a5,5,0,0,1,-5,-5v-8a5,5,0,0,1,5,-5z"></path><g id="node_text29" fill="black"><text id="kity_text_145" text-rendering="inherit" font-size="12" dy=".8em" y="411.5" x="243.5">告诉别人这本书在说什么</text></g></g><g id="minder_node31"><g id="node_expander29" style="cursor: pointer;" display="none"><path id="kity_path_265" fill="white" stroke="gray" d="M238.5,443.5A6,6,0,1,1,226.5,443.5A6,6,0,1,1,238.5,443.5"></path><path id="kity_path_266" fill="none" stroke="gray"></path></g><path id="node_outline30" fill="none" stroke="none" d="M243.5,434.5h204a5,5,0,0,1,5,5v8a5,5,0,0,1,-5,5h-204a5,5,0,0,1,-5,-5v-8a5,5,0,0,1,5,-5z"></path><g id="node_text30" fill="black"><text id="kity_text_147" text-rendering="inherit" font-size="12" dy=".8em" y="437.5" x="243.5">这本书有什么精彩的观点、主题、内容</text></g></g><g id="kity_g_12" display="none"><path id="kity_path_13" fill="none" stroke="rgb(66, 94, 112)" d="M243.5,494.5h204a5,5,0,0,1,5,5v8a5,5,0,0,1,-5,5h-204a5,5,0,0,1,-5,-5v-8a5,5,0,0,1,5,-5z" stroke-width="5"></path></g><g id="minder_node15"><g id="node_expander12" style="cursor: pointer;" display="none"><path id="kity_path_214" fill="white" stroke="gray" d="M345.5,484.5A6,6,0,1,1,333.5,484.5A6,6,0,1,1,345.5,484.5"></path><path id="kity_path_215" fill="none" stroke="gray"></path></g><path id="node_outline13" fill="none" stroke="none" d="M350.5,475.5h177a5,5,0,0,1,5,5v8a5,5,0,0,1,-5,5h-177a5,5,0,0,1,-5,-5v-8a5,5,0,0,1,5,-5z"></path><g id="node_text13" fill="black"><text id="kity_text_113" text-rendering="inherit" font-size="12" dy=".8em" y="478.5" x="350.5">深化特定领域的书籍阅读(计算机)</text></g></g><g id="minder_node14"><g id="node_expander13" style="cursor: pointer;"><path id="kity_path_217" fill="white" stroke="gray" d="M239.5,484.5A6,6,0,1,1,227.5,484.5A6,6,0,1,1,239.5,484.5"></path><path id="kity_path_218" fill="none" stroke="gray" d="M229,484.5L238,484.5"></path></g><path id="node_outline14" fill="none" stroke="none" d="M244.5,475.5h80a5,5,0,0,1,5,5v8a5,5,0,0,1,-5,5h-80a5,5,0,0,1,-5,-5v-8a5,5,0,0,1,5,-5z"></path><g id="node_text14" fill="black"><text id="kity_text_115" text-rendering="inherit" font-size="12" dy=".8em" y="478.5" x="244.5">垂直阅读[专才]</text></g></g><g id="minder_node17"><g id="node_expander14" style="cursor: pointer;" display="none"><path id="kity_path_220" fill="white" stroke="gray" d="M345.5,510.5A6,6,0,1,1,333.5,510.5A6,6,0,1,1,345.5,510.5"></path><path id="kity_path_221" fill="none" stroke="gray"></path></g><path id="node_outline15" fill="none" stroke="none" d="M350.5,501.5h227a5,5,0,0,1,5,5v8a5,5,0,0,1,-5,5h-227a5,5,0,0,1,-5,-5v-8a5,5,0,0,1,5,-5z"></path><g id="node_text15" fill="black"><text id="kity_text_117" text-rendering="inherit" font-size="12" dy=".8em" y="504.5" x="350.5">所有专业领域的书籍阅读(社科+心理+技术)</text></g></g><g id="minder_node16"><g id="node_expander15" style="cursor: pointer;"><path id="kity_path_223" fill="white" stroke="gray" d="M239.5,510.5A6,6,0,1,1,227.5,510.5A6,6,0,1,1,239.5,510.5"></path><path id="kity_path_224" fill="none" stroke="gray" d="M229,510.5L238,510.5"></path></g><path id="node_outline16" fill="none" stroke="none" d="M244.5,501.5h80a5,5,0,0,1,5,5v8a5,5,0,0,1,-5,5h-80a5,5,0,0,1,-5,-5v-8a5,5,0,0,1,5,-5z"></path><g id="node_text16" fill="black"><text id="kity_text_119" text-rendering="inherit" font-size="12" dy=".8em" y="504.5" x="244.5">水平阅读[通才]</text></g></g></g></g></svg>