<svg id="kity_svg_6" xmlns="http://www.w3.org/2000/svg" xmlns:xlink="http://www.w3.org/1999/xlink" version="1.1" width="546" height="972" style="background: rgb(251, 251, 251); visibility: visible;" viewBox="0 0 546 972"><defs id="kity_defs_7"><linearGradient id="kity_linearGradient_17" x1="0" y1="0" x2="0" y2="1"><stop id="kity_stop_18" offset="0" stop-color="rgb(255, 255, 255)"></stop><stop id="kity_stop_19" offset="1" stop-color="rgb(204, 204, 204)"></stop></linearGradient><marker id="kity_marker_2" orient="auto" refX="6" refY="0" viewBox="-7 -7 14 14" markerWidth="7" markerHeight="7" markerUnits="userSpaceOnUse"><path id="kity_path_3" fill="rgb(115, 161, 191)" stroke="none" d="M6,0A6,6,0,1,1,-6,0A6,6,0,1,1,6,0"></path></marker></defs><g id="kity_g_8"><g id="minder1" text-rendering="optimize-speed"><g id="minder_connect_group1"><path id="kity_path_31" fill="none" stroke="rgb(115, 161, 191)" stroke-width="1" d="M72.5,492.5A68,437,0,0,1,140.5,55.5"></path><path id="kity_path_33" fill="none" stroke="rgb(115, 161, 191)" stroke-width="1" d="M210.5,55.5C218.5,55.5,218.5,29.5,226.5,29.5"></path><path id="kity_path_35" fill="none" stroke="rgb(115, 161, 191)" stroke-width="1" d="M210.5,55.5C218.5,55.5,218.5,55.5,226.5,55.5"></path><path id="kity_path_37" fill="none" stroke="rgb(115, 161, 191)" stroke-width="1" d="M210.5,55.5C218.5,55.5,218.5,81.5,226.5,81.5"></path><path id="kity_path_39" fill="none" stroke="rgb(115, 161, 191)" stroke-width="1" d="M72.5,492.5A68,325,0,0,1,140.5,167.5"></path><path id="kity_path_41" fill="none" stroke="rgb(115, 161, 191)" stroke-width="1" d="M266.5,167.5C274.5,167.5,274.5,115.5,282.5,115.5"></path><path id="kity_path_43" fill="none" stroke="rgb(115, 161, 191)" stroke-width="1" d="M266.5,167.5C274.5,167.5,274.5,141.5,282.5,141.5"></path><path id="kity_path_45" fill="none" stroke="rgb(115, 161, 191)" stroke-width="1" d="M266.5,167.5C274.5,167.5,274.5,167.5,282.5,167.5"></path><path id="kity_path_47" fill="none" stroke="rgb(115, 161, 191)" stroke-width="1" d="M266.5,167.5C274.5,167.5,274.5,193.5,282.5,193.5"></path><path id="kity_path_49" fill="none" stroke="rgb(115, 161, 191)" stroke-width="1" d="M266.5,167.5C274.5,167.5,274.5,219.5,282.5,219.5"></path><path id="kity_path_51" fill="none" stroke="rgb(115, 161, 191)" stroke-width="1" d="M72.5,492.5A68,161,0,0,1,140.5,331.5"></path><path id="kity_path_53" fill="none" stroke="rgb(115, 161, 191)" stroke-width="1" d="M294.5,331.5C302.5,331.5,302.5,253.5,310.5,253.5"></path><path id="kity_path_55" fill="none" stroke="rgb(115, 161, 191)" stroke-width="1" d="M294.5,331.5C302.5,331.5,302.5,279.5,310.5,279.5"></path><path id="kity_path_57" fill="none" stroke="rgb(115, 161, 191)" stroke-width="1" d="M294.5,331.5C302.5,331.5,302.5,305.5,310.5,305.5"></path><path id="kity_path_59" fill="none" stroke="rgb(115, 161, 191)" stroke-width="1" d="M294.5,331.5C302.5,331.5,302.5,331.5,310.5,331.5"></path><path id="kity_path_61" fill="none" stroke="rgb(115, 161, 191)" stroke-width="1" d="M294.5,331.5C302.5,331.5,302.5,357.5,310.5,357.5"></path><path id="kity_path_63" fill="none" stroke="rgb(115, 161, 191)" stroke-width="1" d="M294.5,331.5C302.5,331.5,302.5,383.5,310.5,383.5"></path><path id="kity_path_65" fill="none" stroke="rgb(115, 161, 191)" stroke-width="1" d="M294.5,331.5C302.5,331.5,302.5,409.5,310.5,409.5"></path><path id="kity_path_67" fill="none" stroke="rgb(115, 161, 191)" stroke-width="1" d="M72.5,492.5A68,23,0,0,1,140.5,469.5"></path><path id="kity_path_69" fill="none" stroke="rgb(115, 161, 191)" stroke-width="1" d="M336.5,469.5C344.5,469.5,344.5,443.5,352.5,443.5"></path><path id="kity_path_71" fill="none" stroke="rgb(115, 161, 191)" stroke-width="1" d="M336.5,469.5C344.5,469.5,344.5,469.5,352.5,469.5"></path><path id="kity_path_73" fill="none" stroke="rgb(115, 161, 191)" stroke-width="1" d="M336.5,469.5C344.5,469.5,344.5,495.5,352.5,495.5"></path><path id="kity_path_75" fill="none" stroke="rgb(115, 161, 191)" stroke-width="1" d="M72.5,492.5A68,50,0,0,0,140.5,542.5"></path><path id="kity_path_77" fill="none" stroke="rgb(115, 161, 191)" stroke-width="1" d="M392.5,542.5C400.5,542.5,400.5,529.5,408.5,529.5"></path><path id="kity_path_79" fill="none" stroke="rgb(115, 161, 191)" stroke-width="1" d="M392.5,542.5C400.5,542.5,400.5,555.5,408.5,555.5"></path><path id="kity_path_81" fill="none" stroke="rgb(115, 161, 191)" stroke-width="1" d="M72.5,492.5A68,188,0,0,0,140.5,680.5"></path><path id="kity_path_83" fill="none" stroke="rgb(115, 161, 191)" stroke-width="1" d="M294.5,680.5C302.5,680.5,302.5,589.5,310.5,589.5"></path><path id="kity_path_85" fill="none" stroke="rgb(115, 161, 191)" stroke-width="1" d="M294.5,680.5C302.5,680.5,302.5,615.5,310.5,615.5"></path><path id="kity_path_87" fill="none" stroke="rgb(115, 161, 191)" stroke-width="1" d="M294.5,680.5C302.5,680.5,302.5,641.5,310.5,641.5"></path><path id="kity_path_89" fill="none" stroke="rgb(115, 161, 191)" stroke-width="1" d="M294.5,680.5C302.5,680.5,302.5,667.5,310.5,667.5"></path><path id="kity_path_91" fill="none" stroke="rgb(115, 161, 191)" stroke-width="1" d="M294.5,680.5C302.5,680.5,302.5,693.5,310.5,693.5"></path><path id="kity_path_93" fill="none" stroke="rgb(115, 161, 191)" stroke-width="1" d="M294.5,680.5C302.5,680.5,302.5,719.5,310.5,719.5"></path><path id="kity_path_95" fill="none" stroke="rgb(115, 161, 191)" stroke-width="1" d="M294.5,680.5C302.5,680.5,302.5,745.5,310.5,745.5"></path><path id="kity_path_97" fill="none" stroke="rgb(115, 161, 191)" stroke-width="1" d="M294.5,680.5C302.5,680.5,302.5,771.5,310.5,771.5"></path><path id="kity_path_99" fill="none" stroke="rgb(115, 161, 191)" stroke-width="1" d="M72.5,492.5A68,352,0,0,0,140.5,844.5"></path><path id="kity_path_101" fill="none" stroke="rgb(115, 161, 191)" stroke-width="1" d="M322.5,844.5C330.5,844.5,330.5,805.5,338.5,805.5"></path><path id="kity_path_103" fill="none" stroke="rgb(115, 161, 191)" stroke-width="1" d="M322.5,844.5C330.5,844.5,330.5,831.5,338.5,831.5"></path><path id="kity_path_105" fill="none" stroke="rgb(115, 161, 191)" stroke-width="1" d="M322.5,844.5C330.5,844.5,330.5,857.5,338.5,857.5"></path><path id="kity_path_107" fill="none" stroke="rgb(115, 161, 191)" stroke-width="1" d="M322.5,844.5C330.5,844.5,330.5,883.5,338.5,883.5"></path><path id="kity_path_109" fill="none" stroke="rgb(115, 161, 191)" stroke-width="1" d="M72.5,492.5A68,438,0,0,0,140.5,930.5"></path><path id="kity_path_111" fill="none" stroke="rgb(115, 161, 191)" stroke-width="1" d="M364.5,930.5C372.5,930.5,372.5,917.5,380.5,917.5"></path><path id="kity_path_113" fill="none" stroke="rgb(115, 161, 191)" stroke-width="1" d="M364.5,930.5C372.5,930.5,372.5,943.5,380.5,943.5"></path></g><g id="minder_node1"><path id="node_outline1" fill="rgb(115, 161, 191)" stroke="rgb(57, 80, 96)" d="M25.5,478.5h94a5,5,0,0,1,5,5v18a5,5,0,0,1,-5,5h-94a5,5,0,0,1,-5,-5v-18a5,5,0,0,1,5,-5z" stroke-width="3"></path><g id="node_text1" fill="white"><text id="kity_text_22" text-rendering="inherit" font-size="16" dy=".8em" y="484.5" x="32.5">经济法基础</text></g></g><g id="kity_g_12"><path id="kity_path_13" fill="none" stroke="none" d="M32.5,492.5h0v0h0z"></path></g><g id="kity_g_14"><path id="kity_path_15" fill="none" stroke="none" d="M32.5,492.5h0v0h0z"></path><path id="kity_path_16" fill="none" stroke="none"></path></g><g id="minder_node2"><g id="node_expander4" style="cursor: pointer;"><path id="kity_path_250" fill="white" stroke="gray" d="M141.5,55.5A6,6,0,1,1,129.5,55.5A6,6,0,1,1,141.5,55.5"></path><path id="kity_path_251" fill="none" stroke="gray" d="M131,55.5L140,55.5"></path></g><path id="node_outline5" fill="rgb(238, 243, 246)" stroke="rgb(115, 161, 191)" d="M145.5,42.5h62a3,3,0,0,1,3,3v20a3,3,0,0,1,-3,3h-62a3,3,0,0,1,-3,-3v-20a3,3,0,0,1,3,-3z" stroke-width="1"></path><g id="node_text5" fill="black"><text id="kity_text_121" text-rendering="inherit" font-size="14" dy=".8em" y="48.5" x="162.5">总论</text></g></g><g id="minder_node3"><g id="node_expander1" style="cursor: pointer;" display="none"><path id="kity_path_241" fill="white" stroke="gray" d="M226.5,29.5A6,6,0,1,1,214.5,29.5A6,6,0,1,1,226.5,29.5"></path><path id="kity_path_242" fill="none" stroke="gray"></path></g><path id="node_outline2" fill="none" stroke="none" d="M231.5,20.5h48a5,5,0,0,1,5,5v8a5,5,0,0,1,-5,5h-48a5,5,0,0,1,-5,-5v-8a5,5,0,0,1,5,-5z"></path><g id="node_text2" fill="black"><text id="kity_text_115" text-rendering="inherit" font-size="12" dy=".8em" y="23.5" x="231.5">法律基础</text></g></g><g id="minder_node4"><g id="node_expander2" style="cursor: pointer;" display="none"><path id="kity_path_244" fill="white" stroke="gray" d="M226.5,55.5A6,6,0,1,1,214.5,55.5A6,6,0,1,1,226.5,55.5"></path><path id="kity_path_245" fill="none" stroke="gray"></path></g><path id="node_outline3" fill="none" stroke="none" d="M231.5,46.5h108a5,5,0,0,1,5,5v8a5,5,0,0,1,-5,5h-108a5,5,0,0,1,-5,-5v-8a5,5,0,0,1,5,-5z"></path><g id="node_text3" fill="black"><text id="kity_text_117" text-rendering="inherit" font-size="12" dy=".8em" y="49.5" x="231.5">经济纠纷的解决途径</text></g></g><g id="minder_node5"><g id="node_expander3" style="cursor: pointer;" display="none"><path id="kity_path_247" fill="white" stroke="gray" d="M226.5,81.5A6,6,0,1,1,214.5,81.5A6,6,0,1,1,226.5,81.5"></path><path id="kity_path_248" fill="none" stroke="gray"></path></g><path id="node_outline4" fill="none" stroke="none" d="M231.5,72.5h48a5,5,0,0,1,5,5v8a5,5,0,0,1,-5,5h-48a5,5,0,0,1,-5,-5v-8a5,5,0,0,1,5,-5z"></path><g id="node_text4" fill="black"><text id="kity_text_119" text-rendering="inherit" font-size="12" dy=".8em" y="75.5" x="231.5">法律责任</text></g></g><g id="minder_node6"><g id="node_expander10" style="cursor: pointer;"><path id="kity_path_268" fill="white" stroke="gray" d="M141.5,167.5A6,6,0,1,1,129.5,167.5A6,6,0,1,1,141.5,167.5"></path><path id="kity_path_269" fill="none" stroke="gray" d="M131,167.5L140,167.5"></path></g><path id="node_outline11" fill="rgb(238, 243, 246)" stroke="rgb(115, 161, 191)" d="M145.5,154.5h118a3,3,0,0,1,3,3v20a3,3,0,0,1,-3,3h-118a3,3,0,0,1,-3,-3v-20a3,3,0,0,1,3,-3z" stroke-width="1"></path><g id="node_text11" fill="black"><text id="kity_text_133" text-rendering="inherit" font-size="14" dy=".8em" y="160.5" x="162.5">会计法律制度</text></g></g><g id="minder_node7"><g id="node_expander5" style="cursor: pointer;" display="none"><path id="kity_path_253" fill="white" stroke="gray" d="M282.5,115.5A6,6,0,1,1,270.5,115.5A6,6,0,1,1,282.5,115.5"></path><path id="kity_path_254" fill="none" stroke="gray"></path></g><path id="node_outline6" fill="none" stroke="none" d="M287.5,106.5h96a5,5,0,0,1,5,5v8a5,5,0,0,1,-5,5h-96a5,5,0,0,1,-5,-5v-8a5,5,0,0,1,5,-5z"></path><g id="node_text6" fill="black"><text id="kity_text_123" text-rendering="inherit" font-size="12" dy=".8em" y="109.5" x="287.5">会计法律制度概述</text></g></g><g id="minder_node8"><g id="node_expander6" style="cursor: pointer;" display="none"><path id="kity_path_256" fill="white" stroke="gray" d="M282.5,141.5A6,6,0,1,1,270.5,141.5A6,6,0,1,1,282.5,141.5"></path><path id="kity_path_257" fill="none" stroke="gray"></path></g><path id="node_outline7" fill="none" stroke="none" d="M287.5,132.5h84a5,5,0,0,1,5,5v8a5,5,0,0,1,-5,5h-84a5,5,0,0,1,-5,-5v-8a5,5,0,0,1,5,-5z"></path><g id="node_text7" fill="black"><text id="kity_text_125" text-rendering="inherit" font-size="12" dy=".8em" y="135.5" x="287.5">会计核算与监督</text></g></g><g id="minder_node9"><g id="node_expander7" style="cursor: pointer;" display="none"><path id="kity_path_259" fill="white" stroke="gray" d="M282.5,167.5A6,6,0,1,1,270.5,167.5A6,6,0,1,1,282.5,167.5"></path><path id="kity_path_260" fill="none" stroke="gray"></path></g><path id="node_outline8" fill="none" stroke="none" d="M287.5,158.5h108a5,5,0,0,1,5,5v8a5,5,0,0,1,-5,5h-108a5,5,0,0,1,-5,-5v-8a5,5,0,0,1,5,-5z"></path><g id="node_text8" fill="black"><text id="kity_text_127" text-rendering="inherit" font-size="12" dy=".8em" y="161.5" x="287.5">会计机构和会计人员</text></g></g><g id="minder_node10"><g id="node_expander8" style="cursor: pointer;" display="none"><path id="kity_path_262" fill="white" stroke="gray" d="M282.5,193.5A6,6,0,1,1,270.5,193.5A6,6,0,1,1,282.5,193.5"></path><path id="kity_path_263" fill="none" stroke="gray"></path></g><path id="node_outline9" fill="none" stroke="none" d="M287.5,184.5h72a5,5,0,0,1,5,5v8a5,5,0,0,1,-5,5h-72a5,5,0,0,1,-5,-5v-8a5,5,0,0,1,5,-5z"></path><g id="node_text9" fill="black"><text id="kity_text_129" text-rendering="inherit" font-size="12" dy=".8em" y="187.5" x="287.5">会计职业道德</text></g></g><g id="minder_node11"><g id="node_expander9" style="cursor: pointer;" display="none"><path id="kity_path_265" fill="white" stroke="gray" d="M282.5,219.5A6,6,0,1,1,270.5,219.5A6,6,0,1,1,282.5,219.5"></path><path id="kity_path_266" fill="none" stroke="gray"></path></g><path id="node_outline10" fill="none" stroke="none" d="M287.5,210.5h156a5,5,0,0,1,5,5v8a5,5,0,0,1,-5,5h-156a5,5,0,0,1,-5,-5v-8a5,5,0,0,1,5,-5z"></path><g id="node_text10" fill="black"><text id="kity_text_131" text-rendering="inherit" font-size="12" dy=".8em" y="213.5" x="287.5">违反会计法律制度的法律责任</text></g></g><g id="minder_node12"><g id="node_expander18" style="cursor: pointer;"><path id="kity_path_292" fill="white" stroke="gray" d="M141.5,331.5A6,6,0,1,1,129.5,331.5A6,6,0,1,1,141.5,331.5"></path><path id="kity_path_293" fill="none" stroke="gray" d="M131,331.5L140,331.5"></path></g><path id="node_outline19" fill="rgb(238, 243, 246)" stroke="rgb(115, 161, 191)" d="M145.5,318.5h146a3,3,0,0,1,3,3v20a3,3,0,0,1,-3,3h-146a3,3,0,0,1,-3,-3v-20a3,3,0,0,1,3,-3z" stroke-width="1"></path><g id="node_text19" fill="black"><text id="kity_text_149" text-rendering="inherit" font-size="14" dy=".8em" y="324.5" x="162.5">支付结算法律制度</text></g></g><g id="minder_node13"><g id="node_expander11" style="cursor: pointer;" display="none"><path id="kity_path_271" fill="white" stroke="gray" d="M310.5,253.5A6,6,0,1,1,298.5,253.5A6,6,0,1,1,310.5,253.5"></path><path id="kity_path_272" fill="none" stroke="gray"></path></g><path id="node_outline12" fill="none" stroke="none" d="M315.5,244.5h72a5,5,0,0,1,5,5v8a5,5,0,0,1,-5,5h-72a5,5,0,0,1,-5,-5v-8a5,5,0,0,1,5,-5z"></path><g id="node_text12" fill="black"><text id="kity_text_135" text-rendering="inherit" font-size="12" dy=".8em" y="247.5" x="315.5">支付结算概述</text></g></g><g id="minder_node14"><g id="node_expander12" style="cursor: pointer;" display="none"><path id="kity_path_274" fill="white" stroke="gray" d="M310.5,279.5A6,6,0,1,1,298.5,279.5A6,6,0,1,1,310.5,279.5"></path><path id="kity_path_275" fill="none" stroke="gray"></path></g><path id="node_outline13" fill="none" stroke="none" d="M315.5,270.5h72a5,5,0,0,1,5,5v8a5,5,0,0,1,-5,5h-72a5,5,0,0,1,-5,-5v-8a5,5,0,0,1,5,-5z"></path><g id="node_text13" fill="black"><text id="kity_text_137" text-rendering="inherit" font-size="12" dy=".8em" y="273.5" x="315.5">银行结算账户</text></g></g><g id="minder_node15"><g id="node_expander13" style="cursor: pointer;" display="none"><path id="kity_path_277" fill="white" stroke="gray" d="M310.5,305.5A6,6,0,1,1,298.5,305.5A6,6,0,1,1,310.5,305.5"></path><path id="kity_path_278" fill="none" stroke="gray"></path></g><path id="node_outline14" fill="none" stroke="none" d="M315.5,296.5h24a5,5,0,0,1,5,5v8a5,5,0,0,1,-5,5h-24a5,5,0,0,1,-5,-5v-8a5,5,0,0,1,5,-5z"></path><g id="node_text14" fill="black"><text id="kity_text_139" text-rendering="inherit" font-size="12" dy=".8em" y="299.5" x="315.5">票据</text></g></g><g id="minder_node16"><g id="node_expander14" style="cursor: pointer;" display="none"><path id="kity_path_280" fill="white" stroke="gray" d="M310.5,331.5A6,6,0,1,1,298.5,331.5A6,6,0,1,1,310.5,331.5"></path><path id="kity_path_281" fill="none" stroke="gray"></path></g><path id="node_outline15" fill="none" stroke="none" d="M315.5,322.5h36a5,5,0,0,1,5,5v8a5,5,0,0,1,-5,5h-36a5,5,0,0,1,-5,-5v-8a5,5,0,0,1,5,-5z"></path><g id="node_text15" fill="black"><text id="kity_text_141" text-rendering="inherit" font-size="12" dy=".8em" y="325.5" x="315.5">银行卡</text></g></g><g id="minder_node17"><g id="node_expander15" style="cursor: pointer;" display="none"><path id="kity_path_283" fill="white" stroke="gray" d="M310.5,357.5A6,6,0,1,1,298.5,357.5A6,6,0,1,1,310.5,357.5"></path><path id="kity_path_284" fill="none" stroke="gray"></path></g><path id="node_outline16" fill="none" stroke="none" d="M315.5,348.5h48a5,5,0,0,1,5,5v8a5,5,0,0,1,-5,5h-48a5,5,0,0,1,-5,-5v-8a5,5,0,0,1,5,-5z"></path><g id="node_text16" fill="black"><text id="kity_text_143" text-rendering="inherit" font-size="12" dy=".8em" y="351.5" x="315.5">网上支付</text></g></g><g id="minder_node18"><g id="node_expander16" style="cursor: pointer;" display="none"><path id="kity_path_286" fill="white" stroke="gray" d="M310.5,383.5A6,6,0,1,1,298.5,383.5A6,6,0,1,1,310.5,383.5"></path><path id="kity_path_287" fill="none" stroke="gray"></path></g><path id="node_outline17" fill="none" stroke="none" d="M315.5,374.5h132a5,5,0,0,1,5,5v8a5,5,0,0,1,-5,5h-132a5,5,0,0,1,-5,-5v-8a5,5,0,0,1,5,-5z"></path><g id="node_text17" fill="black"><text id="kity_text_145" text-rendering="inherit" font-size="12" dy=".8em" y="377.5" x="315.5">结算方式和其他支付工具</text></g></g><g id="minder_node19"><g id="node_expander17" style="cursor: pointer;" display="none"><path id="kity_path_289" fill="white" stroke="gray" d="M310.5,409.5A6,6,0,1,1,298.5,409.5A6,6,0,1,1,310.5,409.5"></path><path id="kity_path_290" fill="none" stroke="gray"></path></g><path id="node_outline18" fill="none" stroke="none" d="M315.5,400.5h108a5,5,0,0,1,5,5v8a5,5,0,0,1,-5,5h-108a5,5,0,0,1,-5,-5v-8a5,5,0,0,1,5,-5z"></path><g id="node_text18" fill="black"><text id="kity_text_147" text-rendering="inherit" font-size="12" dy=".8em" y="403.5" x="315.5">结算纪律与法律责任</text></g></g><g id="minder_node20"><g id="node_expander22" style="cursor: pointer;"><path id="kity_path_304" fill="white" stroke="gray" d="M141.5,469.5A6,6,0,1,1,129.5,469.5A6,6,0,1,1,141.5,469.5"></path><path id="kity_path_305" fill="none" stroke="gray" d="M131,469.5L140,469.5"></path></g><path id="node_outline23" fill="rgb(238, 243, 246)" stroke="rgb(115, 161, 191)" d="M145.5,456.5h188a3,3,0,0,1,3,3v20a3,3,0,0,1,-3,3h-188a3,3,0,0,1,-3,-3v-20a3,3,0,0,1,3,-3z" stroke-width="1"></path><g id="node_text23" fill="black"><text id="kity_text_157" text-rendering="inherit" font-size="14" dy=".8em" y="462.5" x="162.5">增值税、消费税法律制度</text></g></g><g id="minder_node21"><g id="node_expander19" style="cursor: pointer;" display="none"><path id="kity_path_295" fill="white" stroke="gray" d="M352.5,443.5A6,6,0,1,1,340.5,443.5A6,6,0,1,1,352.5,443.5"></path><path id="kity_path_296" fill="none" stroke="gray"></path></g><path id="node_outline20" fill="none" stroke="none" d="M357.5,434.5h96a5,5,0,0,1,5,5v8a5,5,0,0,1,-5,5h-96a5,5,0,0,1,-5,-5v-8a5,5,0,0,1,5,-5z"></path><g id="node_text20" fill="black"><text id="kity_text_151" text-rendering="inherit" font-size="12" dy=".8em" y="437.5" x="357.5">税收法律制度概述</text></g></g><g id="minder_node22"><g id="node_expander20" style="cursor: pointer;" display="none"><path id="kity_path_298" fill="white" stroke="gray" d="M352.5,469.5A6,6,0,1,1,340.5,469.5A6,6,0,1,1,352.5,469.5"></path><path id="kity_path_299" fill="none" stroke="gray"></path></g><path id="node_outline21" fill="none" stroke="none" d="M357.5,460.5h84a5,5,0,0,1,5,5v8a5,5,0,0,1,-5,5h-84a5,5,0,0,1,-5,-5v-8a5,5,0,0,1,5,-5z"></path><g id="node_text21" fill="black"><text id="kity_text_153" text-rendering="inherit" font-size="12" dy=".8em" y="463.5" x="357.5">增值税法律制度</text></g></g><g id="minder_node23"><g id="node_expander21" style="cursor: pointer;" display="none"><path id="kity_path_301" fill="white" stroke="gray" d="M352.5,495.5A6,6,0,1,1,340.5,495.5A6,6,0,1,1,352.5,495.5"></path><path id="kity_path_302" fill="none" stroke="gray"></path></g><path id="node_outline22" fill="none" stroke="none" d="M357.5,486.5h84a5,5,0,0,1,5,5v8a5,5,0,0,1,-5,5h-84a5,5,0,0,1,-5,-5v-8a5,5,0,0,1,5,-5z"></path><g id="node_text22" fill="black"><text id="kity_text_155" text-rendering="inherit" font-size="12" dy=".8em" y="489.5" x="357.5">消费税法律制度</text></g></g><g id="minder_node24"><g id="node_expander25" style="cursor: pointer;"><path id="kity_path_313" fill="white" stroke="gray" d="M141.5,542.5A6,6,0,1,1,129.5,542.5A6,6,0,1,1,141.5,542.5"></path><path id="kity_path_314" fill="none" stroke="gray" d="M131,542.5L140,542.5"></path></g><path id="node_outline26" fill="rgb(238, 243, 246)" stroke="rgb(115, 161, 191)" d="M145.5,529.5h244a3,3,0,0,1,3,3v20a3,3,0,0,1,-3,3h-244a3,3,0,0,1,-3,-3v-20a3,3,0,0,1,3,-3z" stroke-width="1"></path><g id="node_text26" fill="black"><text id="kity_text_163" text-rendering="inherit" font-size="14" dy=".8em" y="535.5" x="162.5">企业所得税、个人所得税法律制度</text></g></g><g id="minder_node25"><g id="node_expander23" style="cursor: pointer;" display="none"><path id="kity_path_307" fill="white" stroke="gray" d="M408.5,529.5A6,6,0,1,1,396.5,529.5A6,6,0,1,1,408.5,529.5"></path><path id="kity_path_308" fill="none" stroke="gray"></path></g><path id="node_outline24" fill="none" stroke="none" d="M413.5,520.5h108a5,5,0,0,1,5,5v8a5,5,0,0,1,-5,5h-108a5,5,0,0,1,-5,-5v-8a5,5,0,0,1,5,-5z"></path><g id="node_text24" fill="black"><text id="kity_text_159" text-rendering="inherit" font-size="12" dy=".8em" y="523.5" x="413.5">企业所得税法律制度</text></g></g><g id="minder_node26"><g id="node_expander24" style="cursor: pointer;" display="none"><path id="kity_path_310" fill="white" stroke="gray" d="M408.5,555.5A6,6,0,1,1,396.5,555.5A6,6,0,1,1,408.5,555.5"></path><path id="kity_path_311" fill="none" stroke="gray"></path></g><path id="node_outline25" fill="none" stroke="none" d="M413.5,546.5h108a5,5,0,0,1,5,5v8a5,5,0,0,1,-5,5h-108a5,5,0,0,1,-5,-5v-8a5,5,0,0,1,5,-5z"></path><g id="node_text25" fill="black"><text id="kity_text_161" text-rendering="inherit" font-size="12" dy=".8em" y="549.5" x="413.5">个人所得税法律制度</text></g></g><g id="minder_node27"><g id="node_expander34" style="cursor: pointer;"><path id="kity_path_340" fill="white" stroke="gray" d="M141.5,680.5A6,6,0,1,1,129.5,680.5A6,6,0,1,1,141.5,680.5"></path><path id="kity_path_341" fill="none" stroke="gray" d="M131,680.5L140,680.5"></path></g><path id="node_outline35" fill="rgb(238, 243, 246)" stroke="rgb(115, 161, 191)" d="M145.5,667.5h146a3,3,0,0,1,3,3v20a3,3,0,0,1,-3,3h-146a3,3,0,0,1,-3,-3v-20a3,3,0,0,1,3,-3z" stroke-width="1"></path><g id="node_text35" fill="black"><text id="kity_text_181" text-rendering="inherit" font-size="14" dy=".8em" y="673.5" x="162.5">其他税收法律制度</text></g></g><g id="minder_node28"><g id="node_expander26" style="cursor: pointer;" display="none"><path id="kity_path_316" fill="white" stroke="gray" d="M310.5,589.5A6,6,0,1,1,298.5,589.5A6,6,0,1,1,310.5,589.5"></path><path id="kity_path_317" fill="none" stroke="gray"></path></g><path id="node_outline27" fill="none" stroke="none" d="M315.5,580.5h84a5,5,0,0,1,5,5v8a5,5,0,0,1,-5,5h-84a5,5,0,0,1,-5,-5v-8a5,5,0,0,1,5,-5z"></path><g id="node_text27" fill="black"><text id="kity_text_165" text-rendering="inherit" font-size="12" dy=".8em" y="583.5" x="315.5">房产税法律制度</text></g></g><g id="minder_node29"><g id="node_expander27" style="cursor: pointer;" display="none"><path id="kity_path_319" fill="white" stroke="gray" d="M310.5,615.5A6,6,0,1,1,298.5,615.5A6,6,0,1,1,310.5,615.5"></path><path id="kity_path_320" fill="none" stroke="gray"></path></g><path id="node_outline28" fill="none" stroke="none" d="M315.5,606.5h60a5,5,0,0,1,5,5v8a5,5,0,0,1,-5,5h-60a5,5,0,0,1,-5,-5v-8a5,5,0,0,1,5,-5z"></path><g id="node_text28" fill="black"><text id="kity_text_167" text-rendering="inherit" font-size="12" dy=".8em" y="609.5" x="315.5">契税法制度</text></g></g><g id="minder_node30"><g id="node_expander28" style="cursor: pointer;" display="none"><path id="kity_path_322" fill="white" stroke="gray" d="M310.5,641.5A6,6,0,1,1,298.5,641.5A6,6,0,1,1,310.5,641.5"></path><path id="kity_path_323" fill="none" stroke="gray"></path></g><path id="node_outline29" fill="none" stroke="none" d="M315.5,632.5h108a5,5,0,0,1,5,5v8a5,5,0,0,1,-5,5h-108a5,5,0,0,1,-5,-5v-8a5,5,0,0,1,5,-5z"></path><g id="node_text29" fill="black"><text id="kity_text_169" text-rendering="inherit" font-size="12" dy=".8em" y="635.5" x="315.5">土地增值税法律制度</text></g></g><g id="minder_node31"><g id="node_expander29" style="cursor: pointer;" display="none"><path id="kity_path_325" fill="white" stroke="gray" d="M310.5,667.5A6,6,0,1,1,298.5,667.5A6,6,0,1,1,310.5,667.5"></path><path id="kity_path_326" fill="none" stroke="gray"></path></g><path id="node_outline30" fill="none" stroke="none" d="M315.5,658.5h132a5,5,0,0,1,5,5v8a5,5,0,0,1,-5,5h-132a5,5,0,0,1,-5,-5v-8a5,5,0,0,1,5,-5z"></path><g id="node_text30" fill="black"><text id="kity_text_171" text-rendering="inherit" font-size="12" dy=".8em" y="661.5" x="315.5">城镇土地使用税法律制度</text></g></g><g id="minder_node32"><g id="node_expander30" style="cursor: pointer;" display="none"><path id="kity_path_328" fill="white" stroke="gray" d="M310.5,693.5A6,6,0,1,1,298.5,693.5A6,6,0,1,1,310.5,693.5"></path><path id="kity_path_329" fill="none" stroke="gray"></path></g><path id="node_outline31" fill="none" stroke="none" d="M315.5,684.5h84a5,5,0,0,1,5,5v8a5,5,0,0,1,-5,5h-84a5,5,0,0,1,-5,-5v-8a5,5,0,0,1,5,-5z"></path><g id="node_text31" fill="black"><text id="kity_text_173" text-rendering="inherit" font-size="12" dy=".8em" y="687.5" x="315.5">车船税法律制度</text></g></g><g id="minder_node33"><g id="node_expander31" style="cursor: pointer;" display="none"><path id="kity_path_331" fill="white" stroke="gray" d="M310.5,719.5A6,6,0,1,1,298.5,719.5A6,6,0,1,1,310.5,719.5"></path><path id="kity_path_332" fill="none" stroke="gray"></path></g><path id="node_outline32" fill="none" stroke="none" d="M315.5,710.5h84a5,5,0,0,1,5,5v8a5,5,0,0,1,-5,5h-84a5,5,0,0,1,-5,-5v-8a5,5,0,0,1,5,-5z"></path><g id="node_text32" fill="black"><text id="kity_text_175" text-rendering="inherit" font-size="12" dy=".8em" y="713.5" x="315.5">印花税法律制度</text></g></g><g id="minder_node34"><g id="node_expander32" style="cursor: pointer;" display="none"><path id="kity_path_334" fill="white" stroke="gray" d="M310.5,745.5A6,6,0,1,1,298.5,745.5A6,6,0,1,1,310.5,745.5"></path><path id="kity_path_335" fill="none" stroke="gray"></path></g><path id="node_outline33" fill="none" stroke="none" d="M315.5,736.5h84a5,5,0,0,1,5,5v8a5,5,0,0,1,-5,5h-84a5,5,0,0,1,-5,-5v-8a5,5,0,0,1,5,-5z"></path><g id="node_text33" fill="black"><text id="kity_text_177" text-rendering="inherit" font-size="12" dy=".8em" y="739.5" x="315.5">资源税法律制度</text></g></g><g id="minder_node35"><g id="node_expander33" style="cursor: pointer;" display="none"><path id="kity_path_337" fill="white" stroke="gray" d="M310.5,771.5A6,6,0,1,1,298.5,771.5A6,6,0,1,1,310.5,771.5"></path><path id="kity_path_338" fill="none" stroke="gray"></path></g><path id="node_outline34" fill="none" stroke="none" d="M315.5,762.5h120a5,5,0,0,1,5,5v8a5,5,0,0,1,-5,5h-120a5,5,0,0,1,-5,-5v-8a5,5,0,0,1,5,-5z"></path><g id="node_text34" fill="black"><text id="kity_text_179" text-rendering="inherit" font-size="12" dy=".8em" y="765.5" x="315.5">其他相关税收法律制度</text></g></g><g id="minder_node36"><g id="node_expander39" style="cursor: pointer;"><path id="kity_path_355" fill="white" stroke="gray" d="M141.5,844.5A6,6,0,1,1,129.5,844.5A6,6,0,1,1,141.5,844.5"></path><path id="kity_path_356" fill="none" stroke="gray" d="M131,844.5L140,844.5"></path></g><path id="node_outline40" fill="rgb(238, 243, 246)" stroke="rgb(115, 161, 191)" d="M145.5,831.5h174a3,3,0,0,1,3,3v20a3,3,0,0,1,-3,3h-174a3,3,0,0,1,-3,-3v-20a3,3,0,0,1,3,-3z" stroke-width="1"></path><g id="node_text40" fill="black"><text id="kity_text_191" text-rendering="inherit" font-size="14" dy=".8em" y="837.5" x="162.5">税收征收管理法律制度</text></g></g><g id="minder_node37"><g id="node_expander35" style="cursor: pointer;" display="none"><path id="kity_path_343" fill="white" stroke="gray" d="M338.5,805.5A6,6,0,1,1,326.5,805.5A6,6,0,1,1,338.5,805.5"></path><path id="kity_path_344" fill="none" stroke="gray"></path></g><path id="node_outline36" fill="none" stroke="none" d="M343.5,796.5h48a5,5,0,0,1,5,5v8a5,5,0,0,1,-5,5h-48a5,5,0,0,1,-5,-5v-8a5,5,0,0,1,5,-5z"></path><g id="node_text36" fill="black"><text id="kity_text_183" text-rendering="inherit" font-size="12" dy=".8em" y="799.5" x="343.5">税务管理</text></g></g><g id="minder_node38"><g id="node_expander36" style="cursor: pointer;" display="none"><path id="kity_path_346" fill="white" stroke="gray" d="M338.5,831.5A6,6,0,1,1,326.5,831.5A6,6,0,1,1,338.5,831.5"></path><path id="kity_path_347" fill="none" stroke="gray"></path></g><path id="node_outline37" fill="none" stroke="none" d="M343.5,822.5h108a5,5,0,0,1,5,5v8a5,5,0,0,1,-5,5h-108a5,5,0,0,1,-5,-5v-8a5,5,0,0,1,5,-5z"></path><g id="node_text37" fill="black"><text id="kity_text_185" text-rendering="inherit" font-size="12" dy=".8em" y="825.5" x="343.5">税款征收与税务检查</text></g></g><g id="minder_node39"><g id="node_expander37" style="cursor: pointer;" display="none"><path id="kity_path_349" fill="white" stroke="gray" d="M338.5,857.5A6,6,0,1,1,326.5,857.5A6,6,0,1,1,338.5,857.5"></path><path id="kity_path_350" fill="none" stroke="gray"></path></g><path id="node_outline38" fill="none" stroke="none" d="M343.5,848.5h72a5,5,0,0,1,5,5v8a5,5,0,0,1,-5,5h-72a5,5,0,0,1,-5,-5v-8a5,5,0,0,1,5,-5z"></path><g id="node_text38" fill="black"><text id="kity_text_187" text-rendering="inherit" font-size="12" dy=".8em" y="851.5" x="343.5">税务行政复议</text></g></g><g id="minder_node40"><g id="node_expander38" style="cursor: pointer;" display="none"><path id="kity_path_352" fill="white" stroke="gray" d="M338.5,883.5A6,6,0,1,1,326.5,883.5A6,6,0,1,1,338.5,883.5"></path><path id="kity_path_353" fill="none" stroke="gray"></path></g><path id="node_outline39" fill="none" stroke="none" d="M343.5,874.5h72a5,5,0,0,1,5,5v8a5,5,0,0,1,-5,5h-72a5,5,0,0,1,-5,-5v-8a5,5,0,0,1,5,-5z"></path><g id="node_text39" fill="black"><text id="kity_text_189" text-rendering="inherit" font-size="12" dy=".8em" y="877.5" x="343.5">税收法律责任</text></g></g><g id="minder_node41"><g id="node_expander42" style="cursor: pointer;"><path id="kity_path_364" fill="white" stroke="gray" d="M141.5,930.5A6,6,0,1,1,129.5,930.5A6,6,0,1,1,141.5,930.5"></path><path id="kity_path_365" fill="none" stroke="gray" d="M131,930.5L140,930.5"></path></g><path id="node_outline43" fill="rgb(238, 243, 246)" stroke="rgb(115, 161, 191)" d="M145.5,917.5h216a3,3,0,0,1,3,3v20a3,3,0,0,1,-3,3h-216a3,3,0,0,1,-3,-3v-20a3,3,0,0,1,3,-3z" stroke-width="1"></path><g id="node_text43" fill="black"><text id="kity_text_197" text-rendering="inherit" font-size="14" dy=".8em" y="923.5" x="162.5">劳动合同与社会保险法律制度</text></g></g><g id="minder_node42"><g id="node_expander40" style="cursor: pointer;" display="none"><path id="kity_path_358" fill="white" stroke="gray" d="M380.5,917.5A6,6,0,1,1,368.5,917.5A6,6,0,1,1,380.5,917.5"></path><path id="kity_path_359" fill="none" stroke="gray"></path></g><path id="node_outline41" fill="none" stroke="none" d="M385.5,908.5h96a5,5,0,0,1,5,5v8a5,5,0,0,1,-5,5h-96a5,5,0,0,1,-5,-5v-8a5,5,0,0,1,5,-5z"></path><g id="node_text41" fill="black"><text id="kity_text_193" text-rendering="inherit" font-size="12" dy=".8em" y="911.5" x="385.5">劳动合同法律制度</text></g></g><g id="minder_node43"><g id="node_expander41" style="cursor: pointer;" display="none"><path id="kity_path_361" fill="white" stroke="gray" d="M380.5,943.5A6,6,0,1,1,368.5,943.5A6,6,0,1,1,380.5,943.5"></path><path id="kity_path_362" fill="none" stroke="gray"></path></g><path id="node_outline42" fill="none" stroke="none" d="M385.5,934.5h96a5,5,0,0,1,5,5v8a5,5,0,0,1,-5,5h-96a5,5,0,0,1,-5,-5v-8a5,5,0,0,1,5,-5z"></path><g id="node_text42" fill="black"><text id="kity_text_195" text-rendering="inherit" font-size="12" dy=".8em" y="937.5" x="385.5">社会保险法律制度</text></g></g></g></g></svg>