<svg id="kity_svg_6" xmlns="http://www.w3.org/2000/svg" xmlns:xlink="http://www.w3.org/1999/xlink" version="1.1" width="555" height="846" style="background: rgb(251, 251, 251); visibility: visible;" viewBox="0 0 555 846"><defs id="kity_defs_7"><linearGradient id="kity_linearGradient_17" x1="0" y1="0" x2="0" y2="1"><stop id="kity_stop_18" offset="0" stop-color="rgb(255, 255, 255)"></stop><stop id="kity_stop_19" offset="1" stop-color="rgb(204, 204, 204)"></stop></linearGradient><marker id="kity_marker_2" orient="auto" refX="6" refY="0" viewBox="-7 -7 14 14" markerWidth="7" markerHeight="7" markerUnits="userSpaceOnUse"><path id="kity_path_3" fill="rgb(115, 161, 191)" stroke="none" d="M6,0A6,6,0,1,1,-6,0A6,6,0,1,1,6,0"></path></marker></defs><g id="kity_g_8"><g id="minder1" text-rendering="optimize-speed"><g id="minder_connect_group1"><path id="kity_path_31" fill="none" stroke="rgb(115, 161, 191)" stroke-width="1" d="M64.5,457.5A60,311,0,0,1,124.5,146.5"></path><path id="kity_path_33" fill="none" stroke="rgb(115, 161, 191)" stroke-width="1" d="M222.5,146.5C230.5,146.5,230.5,29.5,238.5,29.5"></path><path id="kity_path_35" fill="none" stroke="rgb(115, 161, 191)" stroke-width="1" d="M222.5,146.5C230.5,146.5,230.5,107.5,238.5,107.5"></path><path id="kity_path_37" fill="none" stroke="rgb(115, 161, 191)" stroke-width="1" d="M356.5,107.5C364.5,107.5,364.5,55.5,372.5,55.5"></path><path id="kity_path_39" fill="none" stroke="rgb(115, 161, 191)" stroke-width="1" d="M356.5,107.5C364.5,107.5,364.5,81.5,372.5,81.5"></path><path id="kity_path_41" fill="none" stroke="rgb(115, 161, 191)" stroke-width="1" d="M356.5,107.5C364.5,107.5,364.5,107.5,372.5,107.5"></path><path id="kity_path_43" fill="none" stroke="rgb(115, 161, 191)" stroke-width="1" d="M356.5,107.5C364.5,107.5,364.5,133.5,372.5,133.5"></path><path id="kity_path_45" fill="none" stroke="rgb(115, 161, 191)" stroke-width="1" d="M356.5,107.5C364.5,107.5,364.5,159.5,372.5,159.5"></path><path id="kity_path_47" fill="none" stroke="rgb(115, 161, 191)" stroke-width="1" d="M222.5,146.5C230.5,146.5,230.5,211.5,238.5,211.5"></path><path id="kity_path_49" fill="none" stroke="rgb(115, 161, 191)" stroke-width="1" d="M320.5,211.5C328.5,211.5,328.5,185.5,336.5,185.5"></path><path id="kity_path_51" fill="none" stroke="rgb(115, 161, 191)" stroke-width="1" d="M320.5,211.5C328.5,211.5,328.5,211.5,336.5,211.5"></path><path id="kity_path_53" fill="none" stroke="rgb(115, 161, 191)" stroke-width="1" d="M320.5,211.5C328.5,211.5,328.5,237.5,336.5,237.5"></path><path id="kity_path_55" fill="none" stroke="rgb(115, 161, 191)" stroke-width="1" d="M222.5,146.5C230.5,146.5,230.5,263.5,238.5,263.5"></path><path id="kity_path_57" fill="none" stroke="rgb(115, 161, 191)" stroke-width="1" d="M64.5,457.5A61,26,0,0,0,125.5,483.5"></path><path id="kity_path_59" fill="none" stroke="rgb(115, 161, 191)" stroke-width="1" d="M279.5,483.5C287.5,483.5,287.5,338.5,295.5,338.5"></path><path id="kity_path_61" fill="none" stroke="rgb(115, 161, 191)" stroke-width="1" d="M401.5,338.5C409.5,338.5,409.5,286.5,417.5,286.5"></path><path id="kity_path_63" fill="none" stroke="rgb(115, 161, 191)" stroke-width="1" d="M401.5,338.5C409.5,338.5,409.5,312.5,417.5,312.5"></path><path id="kity_path_65" fill="none" stroke="rgb(115, 161, 191)" stroke-width="1" d="M401.5,338.5C409.5,338.5,409.5,338.5,417.5,338.5"></path><path id="kity_path_67" fill="none" stroke="rgb(115, 161, 191)" stroke-width="1" d="M401.5,338.5C409.5,338.5,409.5,364.5,417.5,364.5"></path><path id="kity_path_69" fill="none" stroke="rgb(115, 161, 191)" stroke-width="1" d="M401.5,338.5C409.5,338.5,409.5,390.5,417.5,390.5"></path><path id="kity_path_71" fill="none" stroke="rgb(115, 161, 191)" stroke-width="1" d="M279.5,483.5C287.5,483.5,287.5,455.5,295.5,455.5"></path><path id="kity_path_73" fill="none" stroke="rgb(115, 161, 191)" stroke-width="1" d="M401.5,455.5C409.5,455.5,409.5,416.5,417.5,416.5"></path><path id="kity_path_75" fill="none" stroke="rgb(115, 161, 191)" stroke-width="1" d="M401.5,455.5C409.5,455.5,409.5,442.5,417.5,442.5"></path><path id="kity_path_77" fill="none" stroke="rgb(115, 161, 191)" stroke-width="1" d="M401.5,455.5C409.5,455.5,409.5,468.5,417.5,468.5"></path><path id="kity_path_79" fill="none" stroke="rgb(115, 161, 191)" stroke-width="1" d="M401.5,455.5C409.5,455.5,409.5,494.5,417.5,494.5"></path><path id="kity_path_81" fill="none" stroke="rgb(115, 161, 191)" stroke-width="1" d="M279.5,483.5C287.5,483.5,287.5,555.5,295.5,555.5"></path><path id="kity_path_83" fill="none" stroke="rgb(115, 161, 191)" stroke-width="1" d="M389.5,555.5C397.5,555.5,397.5,520.5,405.5,520.5"></path><path id="kity_path_85" fill="none" stroke="rgb(115, 161, 191)" stroke-width="1" d="M389.5,555.5C397.5,555.5,397.5,555.5,405.5,555.5"></path><path id="kity_path_87" fill="none" stroke="rgb(115, 161, 191)" stroke-width="1" d="M389.5,555.5C397.5,555.5,397.5,590.5,405.5,590.5"></path><path id="kity_path_89" fill="none" stroke="rgb(115, 161, 191)" stroke-width="1" d="M279.5,483.5C287.5,483.5,287.5,629.5,295.5,629.5"></path><path id="kity_path_91" fill="none" stroke="rgb(115, 161, 191)" stroke-width="1" d="M401.5,629.5C409.5,629.5,409.5,616.5,417.5,616.5"></path><path id="kity_path_93" fill="none" stroke="rgb(115, 161, 191)" stroke-width="1" d="M401.5,629.5C409.5,629.5,409.5,642.5,417.5,642.5"></path><path id="kity_path_95" fill="none" stroke="rgb(115, 161, 191)" stroke-width="1" d="M64.5,457.5A60,301.5,0,0,0,124.5,759"></path><path id="kity_path_97" fill="none" stroke="rgb(115, 161, 191)" stroke-width="1" d="M250.5,759.5C258.5,759,258.5,700.5,266.5,700.5"></path><path id="kity_path_99" fill="none" stroke="rgb(115, 161, 191)" stroke-width="1" d="M336.5,700.5C344.5,700.5,344.5,687.5,352.5,687.5"></path><path id="kity_path_101" fill="none" stroke="rgb(115, 161, 191)" stroke-width="1" d="M336.5,700.5C344.5,700.5,344.5,713.5,352.5,713.5"></path><path id="kity_path_103" fill="none" stroke="rgb(115, 161, 191)" stroke-width="1" d="M250.5,759.5C258.5,759,258.5,739.5,266.5,739.5"></path><path id="kity_path_105" fill="none" stroke="rgb(115, 161, 191)" stroke-width="1" d="M250.5,759.5C258.5,759,258.5,765.5,266.5,765.5"></path><path id="kity_path_107" fill="none" stroke="rgb(115, 161, 191)" stroke-width="1" d="M250.5,759.5C258.5,759,258.5,791.5,266.5,791.5"></path><path id="kity_path_109" fill="none" stroke="rgb(115, 161, 191)" stroke-width="1" d="M250.5,759.5C258.5,759,258.5,817.5,266.5,817.5"></path></g><g id="minder_node1"><path id="node_outline1" fill="rgb(115, 161, 191)" stroke="rgb(57, 80, 96)" d="M25.5,443.5h78a5,5,0,0,1,5,5v18a5,5,0,0,1,-5,5h-78a5,5,0,0,1,-5,-5v-18a5,5,0,0,1,5,-5z" stroke-width="3"></path><g id="node_text1" fill="white"><text id="kity_text_22" text-rendering="inherit" font-size="16" dy=".8em" y="449.5" x="32.5">乌合之众</text></g></g><g id="kity_g_12"><path id="kity_path_13" fill="none" stroke="none" d="M32.5,457.5h0v0h0z"></path></g><g id="kity_g_14"><path id="kity_path_15" fill="none" stroke="none" d="M32.5,457.5h0v0h0z"></path><path id="kity_path_16" fill="none" stroke="none"></path></g><g id="minder_node2"><g id="node_expander13" style="cursor: pointer;"><path id="kity_path_274" fill="white" stroke="gray" d="M125.5,146.5A6,6,0,1,1,113.5,146.5A6,6,0,1,1,125.5,146.5"></path><path id="kity_path_275" fill="none" stroke="gray" d="M115,146.5L124,146.5"></path></g><path id="node_outline14" fill="rgb(238, 243, 246)" stroke="rgb(115, 161, 191)" d="M129.5,133.5h90a3,3,0,0,1,3,3v20a3,3,0,0,1,-3,3h-90a3,3,0,0,1,-3,-3v-20a3,3,0,0,1,3,-3z" stroke-width="1"></path><g id="node_text14" fill="black"><text id="kity_text_136" text-rendering="inherit" font-size="14" dy=".8em" y="139.5" x="146.5">群体心理</text></g></g><g id="minder_node3"><g id="node_expander1" display="none" style="cursor: pointer;"><path id="kity_path_238" fill="white" stroke="gray" d="M238.5,29.5A6,6,0,1,1,226.5,29.5A6,6,0,1,1,238.5,29.5"></path><path id="kity_path_239" fill="none" stroke="gray"></path></g><path id="node_outline2" fill="none" stroke="none" d="M243.5,20.5h84a5,5,0,0,1,5,5v8a5,5,0,0,1,-5,5h-84a5,5,0,0,1,-5,-5v-8a5,5,0,0,1,5,-5z"></path><g id="node_text2" fill="black"><text id="kity_text_111" text-rendering="inherit" font-size="12" dy=".8em" y="23.5" x="243.5">群体的一般特征</text></g></g><g id="minder_node4"><g id="node_expander7" style="cursor: pointer;"><path id="kity_path_256" fill="white" stroke="gray" d="M238.5,107.5A6,6,0,1,1,226.5,107.5A6,6,0,1,1,238.5,107.5"></path><path id="kity_path_257" fill="none" stroke="gray" d="M228,107.5L237,107.5"></path></g><path id="node_outline8" fill="none" stroke="none" d="M243.5,98.5h108a5,5,0,0,1,5,5v8a5,5,0,0,1,-5,5h-108a5,5,0,0,1,-5,-5v-8a5,5,0,0,1,5,-5z"></path><g id="node_text8" fill="black"><text id="kity_text_123" text-rendering="inherit" font-size="12" dy=".8em" y="101.5" x="243.5">群体的感情和道德观</text></g></g><g id="minder_node5"><g id="node_expander2" display="none" style="cursor: pointer;"><path id="kity_path_241" fill="white" stroke="gray" d="M372.5,55.5A6,6,0,1,1,360.5,55.5A6,6,0,1,1,372.5,55.5"></path><path id="kity_path_242" fill="none" stroke="gray"></path></g><path id="node_outline3" fill="none" stroke="none" d="M377.5,46.5h96a5,5,0,0,1,5,5v8a5,5,0,0,1,-5,5h-96a5,5,0,0,1,-5,-5v-8a5,5,0,0,1,5,-5z"></path><g id="node_text3" fill="black"><text id="kity_text_113" text-rendering="inherit" font-size="12" dy=".8em" y="49.5" x="377.5">冲动、易变和急躁</text></g></g><g id="minder_node6"><g id="node_expander3" display="none" style="cursor: pointer;"><path id="kity_path_244" fill="white" stroke="gray" d="M372.5,81.5A6,6,0,1,1,360.5,81.5A6,6,0,1,1,372.5,81.5"></path><path id="kity_path_245" fill="none" stroke="gray"></path></g><path id="node_outline4" fill="none" stroke="none" d="M377.5,72.5h84a5,5,0,0,1,5,5v8a5,5,0,0,1,-5,5h-84a5,5,0,0,1,-5,-5v-8a5,5,0,0,1,5,-5z"></path><g id="node_text4" fill="black"><text id="kity_text_115" text-rendering="inherit" font-size="12" dy=".8em" y="75.5" x="377.5">易受暗示和轻信</text></g></g><g id="minder_node7"><g id="node_expander4" display="none" style="cursor: pointer;"><path id="kity_path_247" fill="white" stroke="gray" d="M372.5,107.5A6,6,0,1,1,360.5,107.5A6,6,0,1,1,372.5,107.5"></path><path id="kity_path_248" fill="none" stroke="gray"></path></g><path id="node_outline5" fill="none" stroke="none" d="M377.5,98.5h72a5,5,0,0,1,5,5v8a5,5,0,0,1,-5,5h-72a5,5,0,0,1,-5,-5v-8a5,5,0,0,1,5,-5z"></path><g id="node_text5" fill="black"><text id="kity_text_117" text-rendering="inherit" font-size="12" dy=".8em" y="101.5" x="377.5">情绪夸张简单</text></g></g><g id="minder_node8"><g id="node_expander5" display="none" style="cursor: pointer;"><path id="kity_path_250" fill="white" stroke="gray" d="M372.5,133.5A6,6,0,1,1,360.5,133.5A6,6,0,1,1,372.5,133.5"></path><path id="kity_path_251" fill="none" stroke="gray"></path></g><path id="node_outline6" fill="none" stroke="none" d="M377.5,124.5h96a5,5,0,0,1,5,5v8a5,5,0,0,1,-5,5h-96a5,5,0,0,1,-5,-5v-8a5,5,0,0,1,5,-5z"></path><g id="node_text6" fill="black"><text id="kity_text_119" text-rendering="inherit" font-size="12" dy=".8em" y="127.5" x="377.5">固执、蛮横、守旧</text></g></g><g id="minder_node9"><g id="node_expander6" display="none" style="cursor: pointer;"><path id="kity_path_253" fill="white" stroke="gray" d="M372.5,159.5A6,6,0,1,1,360.5,159.5A6,6,0,1,1,372.5,159.5"></path><path id="kity_path_254" fill="none" stroke="gray"></path></g><path id="node_outline7" fill="none" stroke="none" d="M377.5,150.5h60a5,5,0,0,1,5,5v8a5,5,0,0,1,-5,5h-60a5,5,0,0,1,-5,-5v-8a5,5,0,0,1,5,-5z"></path><g id="node_text7" fill="black"><text id="kity_text_121" text-rendering="inherit" font-size="12" dy=".8em" y="153.5" x="377.5">群体的道德</text></g></g><g id="minder_node10"><g id="node_expander11" style="cursor: pointer;"><path id="kity_path_268" fill="white" stroke="gray" d="M238.5,211.5A6,6,0,1,1,226.5,211.5A6,6,0,1,1,238.5,211.5"></path><path id="kity_path_269" fill="none" stroke="gray" d="M228,211.5L237,211.5"></path></g><path id="node_outline12" fill="none" stroke="none" d="M243.5,193.5h72a5,5,0,0,1,5,5v26a5,5,0,0,1,-5,5h-72a5,5,0,0,1,-5,-5v-26a5,5,0,0,1,5,-5z"></path><g id="node_text12" fill="black"><text id="kity_text_131" text-rendering="inherit" font-size="12" dy=".8em" y="196.5" x="243.5">群体的观念、</text><text id="kity_text_132" text-rendering="inherit" font-size="12" dy=".8em" y="214.5" x="243.5">理性和想象力</text></g></g><g id="minder_node11"><g id="node_expander8" display="none" style="cursor: pointer;"><path id="kity_path_259" fill="white" stroke="gray" d="M336.5,185.5A6,6,0,1,1,324.5,185.5A6,6,0,1,1,336.5,185.5"></path><path id="kity_path_260" fill="none" stroke="gray"></path></g><path id="node_outline9" fill="none" stroke="none" d="M341.5,176.5h24a5,5,0,0,1,5,5v8a5,5,0,0,1,-5,5h-24a5,5,0,0,1,-5,-5v-8a5,5,0,0,1,5,-5z"></path><g id="node_text9" fill="black"><text id="kity_text_125" text-rendering="inherit" font-size="12" dy=".8em" y="179.5" x="341.5">观念</text></g></g><g id="minder_node12"><g id="node_expander9" display="none" style="cursor: pointer;"><path id="kity_path_262" fill="white" stroke="gray" d="M336.5,211.5A6,6,0,1,1,324.5,211.5A6,6,0,1,1,336.5,211.5"></path><path id="kity_path_263" fill="none" stroke="gray"></path></g><path id="node_outline10" fill="none" stroke="none" d="M341.5,202.5h24a5,5,0,0,1,5,5v8a5,5,0,0,1,-5,5h-24a5,5,0,0,1,-5,-5v-8a5,5,0,0,1,5,-5z"></path><g id="node_text10" fill="black"><text id="kity_text_127" text-rendering="inherit" font-size="12" dy=".8em" y="205.5" x="341.5">理性</text></g></g><g id="minder_node13"><g id="node_expander10" display="none" style="cursor: pointer;"><path id="kity_path_265" fill="white" stroke="gray" d="M336.5,237.5A6,6,0,1,1,324.5,237.5A6,6,0,1,1,336.5,237.5"></path><path id="kity_path_266" fill="none" stroke="gray"></path></g><path id="node_outline11" fill="none" stroke="none" d="M341.5,228.5h36a5,5,0,0,1,5,5v8a5,5,0,0,1,-5,5h-36a5,5,0,0,1,-5,-5v-8a5,5,0,0,1,5,-5z"></path><g id="node_text11" fill="black"><text id="kity_text_129" text-rendering="inherit" font-size="12" dy=".8em" y="231.5" x="341.5">想象力</text></g></g><g id="minder_node14"><g id="node_expander12" display="none" style="cursor: pointer;"><path id="kity_path_271" fill="white" stroke="gray" d="M238.5,263.5A6,6,0,1,1,226.5,263.5A6,6,0,1,1,238.5,263.5"></path><path id="kity_path_272" fill="none" stroke="gray"></path></g><path id="node_outline13" fill="none" stroke="none" d="M243.5,254.5h132a5,5,0,0,1,5,5v8a5,5,0,0,1,-5,5h-132a5,5,0,0,1,-5,-5v-8a5,5,0,0,1,5,-5z"></path><g id="node_text13" fill="black"><text id="kity_text_134" text-rendering="inherit" font-size="12" dy=".8em" y="257.5" x="243.5">群体信仰采用的宗教形式</text></g></g><g id="minder_node15"><g id="node_expander32" style="cursor: pointer;"><path id="kity_path_331" fill="white" stroke="gray" d="M126.5,483.5A6,6,0,1,1,114.5,483.5A6,6,0,1,1,126.5,483.5"></path><path id="kity_path_332" fill="none" stroke="gray" d="M116,483.5L125,483.5"></path></g><path id="node_outline33" fill="rgb(238, 243, 246)" stroke="rgb(115, 161, 191)" d="M130.5,470.5h146a3,3,0,0,1,3,3v20a3,3,0,0,1,-3,3h-146a3,3,0,0,1,-3,-3v-20a3,3,0,0,1,3,-3z" stroke-width="1"></path><g id="node_text33" fill="black"><text id="kity_text_179" text-rendering="inherit" font-size="14" dy=".8em" y="476.5" x="147.5">群体的意见和信念</text></g></g><g id="minder_node16"><g id="node_expander19" style="cursor: pointer;"><path id="kity_path_292" fill="white" stroke="gray" d="M295.5,338.5A6,6,0,1,1,283.5,338.5A6,6,0,1,1,295.5,338.5"></path><path id="kity_path_293" fill="none" stroke="gray" d="M285,338.5L294,338.5"></path></g><path id="node_outline20" fill="none" stroke="none" d="M300.5,320.5h96a5,5,0,0,1,5,5v26a5,5,0,0,1,-5,5h-96a5,5,0,0,1,-5,-5v-26a5,5,0,0,1,5,-5z"></path><g id="node_text20" fill="black"><text id="kity_text_148" text-rendering="inherit" font-size="12" dy=".8em" y="323.5" x="300.5">群体的意见与信念</text><text id="kity_text_149" text-rendering="inherit" font-size="12" dy=".8em" y="341.5" x="300.5">里的间接因素</text></g></g><g id="minder_node17"><g id="node_expander14" display="none" style="cursor: pointer;"><path id="kity_path_277" fill="white" stroke="gray" d="M417.5,286.5A6,6,0,1,1,405.5,286.5A6,6,0,1,1,417.5,286.5"></path><path id="kity_path_278" fill="none" stroke="gray"></path></g><path id="node_outline15" fill="none" stroke="none" d="M422.5,277.5h24a5,5,0,0,1,5,5v8a5,5,0,0,1,-5,5h-24a5,5,0,0,1,-5,-5v-8a5,5,0,0,1,5,-5z"></path><g id="node_text15" fill="black"><text id="kity_text_138" text-rendering="inherit" font-size="12" dy=".8em" y="280.5" x="422.5">种族</text></g></g><g id="minder_node18"><g id="node_expander15" display="none" style="cursor: pointer;"><path id="kity_path_280" fill="white" stroke="gray" d="M417.5,312.5A6,6,0,1,1,405.5,312.5A6,6,0,1,1,417.5,312.5"></path><path id="kity_path_281" fill="none" stroke="gray"></path></g><path id="node_outline16" fill="none" stroke="none" d="M422.5,303.5h24a5,5,0,0,1,5,5v8a5,5,0,0,1,-5,5h-24a5,5,0,0,1,-5,-5v-8a5,5,0,0,1,5,-5z"></path><g id="node_text16" fill="black"><text id="kity_text_140" text-rendering="inherit" font-size="12" dy=".8em" y="306.5" x="422.5">传统</text></g></g><g id="minder_node19"><g id="node_expander16" display="none" style="cursor: pointer;"><path id="kity_path_283" fill="white" stroke="gray" d="M417.5,338.5A6,6,0,1,1,405.5,338.5A6,6,0,1,1,417.5,338.5"></path><path id="kity_path_284" fill="none" stroke="gray"></path></g><path id="node_outline17" fill="none" stroke="none" d="M422.5,329.5h24a5,5,0,0,1,5,5v8a5,5,0,0,1,-5,5h-24a5,5,0,0,1,-5,-5v-8a5,5,0,0,1,5,-5z"></path><g id="node_text17" fill="black"><text id="kity_text_142" text-rendering="inherit" font-size="12" dy=".8em" y="332.5" x="422.5">事件</text></g></g><g id="minder_node20"><g id="node_expander17" display="none" style="cursor: pointer;"><path id="kity_path_286" fill="white" stroke="gray" d="M417.5,364.5A6,6,0,1,1,405.5,364.5A6,6,0,1,1,417.5,364.5"></path><path id="kity_path_287" fill="none" stroke="gray"></path></g><path id="node_outline18" fill="none" stroke="none" d="M422.5,355.5h84a5,5,0,0,1,5,5v8a5,5,0,0,1,-5,5h-84a5,5,0,0,1,-5,-5v-8a5,5,0,0,1,5,-5z"></path><g id="node_text18" fill="black"><text id="kity_text_144" text-rendering="inherit" font-size="12" dy=".8em" y="358.5" x="422.5">政治和社会制度</text></g></g><g id="minder_node21"><g id="node_expander18" display="none" style="cursor: pointer;"><path id="kity_path_289" fill="white" stroke="gray" d="M417.5,390.5A6,6,0,1,1,405.5,390.5A6,6,0,1,1,417.5,390.5"></path><path id="kity_path_290" fill="none" stroke="gray"></path></g><path id="node_outline19" fill="none" stroke="none" d="M422.5,381.5h24a5,5,0,0,1,5,5v8a5,5,0,0,1,-5,5h-24a5,5,0,0,1,-5,-5v-8a5,5,0,0,1,5,-5z"></path><g id="node_text19" fill="black"><text id="kity_text_146" text-rendering="inherit" font-size="12" dy=".8em" y="384.5" x="422.5">教育</text></g></g><g id="minder_node22"><g id="node_expander24" style="cursor: pointer;"><path id="kity_path_307" fill="white" stroke="gray" d="M295.5,455.5A6,6,0,1,1,283.5,455.5A6,6,0,1,1,295.5,455.5"></path><path id="kity_path_308" fill="none" stroke="gray" d="M285,455.5L294,455.5"></path></g><path id="node_outline25" fill="none" stroke="none" d="M300.5,437.5h96a5,5,0,0,1,5,5v26a5,5,0,0,1,-5,5h-96a5,5,0,0,1,-5,-5v-26a5,5,0,0,1,5,-5z"></path><g id="node_text25" fill="black"><text id="kity_text_159" text-rendering="inherit" font-size="12" dy=".8em" y="440.5" x="300.5">直接影响群体意见</text><text id="kity_text_160" text-rendering="inherit" font-size="12" dy=".8em" y="458.5" x="300.5">的因素</text></g></g><g id="minder_node23"><g id="node_expander20" display="none" style="cursor: pointer;"><path id="kity_path_295" fill="white" stroke="gray" d="M417.5,416.5A6,6,0,1,1,405.5,416.5A6,6,0,1,1,417.5,416.5"></path><path id="kity_path_296" fill="none" stroke="gray"></path></g><path id="node_outline21" fill="none" stroke="none" d="M422.5,407.5h96a5,5,0,0,1,5,5v8a5,5,0,0,1,-5,5h-96a5,5,0,0,1,-5,-5v-8a5,5,0,0,1,5,-5z"></path><g id="node_text21" fill="black"><text id="kity_text_151" text-rendering="inherit" font-size="12" dy=".8em" y="410.5" x="422.5">形象、词语、套话</text></g></g><g id="minder_node24"><g id="node_expander21" display="none" style="cursor: pointer;"><path id="kity_path_298" fill="white" stroke="gray" d="M417.5,442.5A6,6,0,1,1,405.5,442.5A6,6,0,1,1,417.5,442.5"></path><path id="kity_path_299" fill="none" stroke="gray"></path></g><path id="node_outline22" fill="none" stroke="none" d="M422.5,433.5h24a5,5,0,0,1,5,5v8a5,5,0,0,1,-5,5h-24a5,5,0,0,1,-5,-5v-8a5,5,0,0,1,5,-5z"></path><g id="node_text22" fill="black"><text id="kity_text_153" text-rendering="inherit" font-size="12" dy=".8em" y="436.5" x="422.5">幻觉</text></g></g><g id="minder_node25"><g id="node_expander22" display="none" style="cursor: pointer;"><path id="kity_path_301" fill="white" stroke="gray" d="M417.5,468.5A6,6,0,1,1,405.5,468.5A6,6,0,1,1,417.5,468.5"></path><path id="kity_path_302" fill="none" stroke="gray"></path></g><path id="node_outline23" fill="none" stroke="none" d="M422.5,459.5h24a5,5,0,0,1,5,5v8a5,5,0,0,1,-5,5h-24a5,5,0,0,1,-5,-5v-8a5,5,0,0,1,5,-5z"></path><g id="node_text23" fill="black"><text id="kity_text_155" text-rendering="inherit" font-size="12" dy=".8em" y="462.5" x="422.5">经验</text></g></g><g id="minder_node26"><g id="node_expander23" display="none" style="cursor: pointer;"><path id="kity_path_304" fill="white" stroke="gray" d="M417.5,494.5A6,6,0,1,1,405.5,494.5A6,6,0,1,1,417.5,494.5"></path><path id="kity_path_305" fill="none" stroke="gray"></path></g><path id="node_outline24" fill="none" stroke="none" d="M422.5,485.5h24a5,5,0,0,1,5,5v8a5,5,0,0,1,-5,5h-24a5,5,0,0,1,-5,-5v-8a5,5,0,0,1,5,-5z"></path><g id="node_text24" fill="black"><text id="kity_text_157" text-rendering="inherit" font-size="12" dy=".8em" y="488.5" x="422.5">理性</text></g></g><g id="minder_node27"><g id="node_expander28" style="cursor: pointer;"><path id="kity_path_319" fill="white" stroke="gray" d="M295.5,555.5A6,6,0,1,1,283.5,555.5A6,6,0,1,1,295.5,555.5"></path><path id="kity_path_320" fill="none" stroke="gray" d="M285,555.5L294,555.5"></path></g><path id="node_outline29" fill="none" stroke="none" d="M300.5,537.5h84a5,5,0,0,1,5,5v26a5,5,0,0,1,-5,5h-84a5,5,0,0,1,-5,-5v-26a5,5,0,0,1,5,-5z"></path><g id="node_text29" fill="black"><text id="kity_text_169" text-rendering="inherit" font-size="12" dy=".8em" y="540.5" x="300.5">群体领袖和</text><text id="kity_text_170" text-rendering="inherit" font-size="12" dy=".8em" y="558.5" x="300.5">他们的说服方法</text></g></g><g id="minder_node28"><g id="node_expander25" display="none" style="cursor: pointer;"><path id="kity_path_310" fill="white" stroke="gray" d="M405.5,520.5A6,6,0,1,1,393.5,520.5A6,6,0,1,1,405.5,520.5"></path><path id="kity_path_311" fill="none" stroke="gray"></path></g><path id="node_outline26" fill="none" stroke="none" d="M410.5,511.5h60a5,5,0,0,1,5,5v8a5,5,0,0,1,-5,5h-60a5,5,0,0,1,-5,-5v-8a5,5,0,0,1,5,-5z"></path><g id="node_text26" fill="black"><text id="kity_text_162" text-rendering="inherit" font-size="12" dy=".8em" y="514.5" x="410.5">群体的领袖</text></g></g><g id="minder_node29"><g id="node_expander26" display="none" style="cursor: pointer;"><path id="kity_path_313" fill="white" stroke="gray" d="M405.5,555.5A6,6,0,1,1,393.5,555.5A6,6,0,1,1,405.5,555.5"></path><path id="kity_path_314" fill="none" stroke="gray"></path></g><path id="node_outline27" fill="none" stroke="none" d="M410.5,537.5h120a5,5,0,0,1,5,5v26a5,5,0,0,1,-5,5h-120a5,5,0,0,1,-5,-5v-26a5,5,0,0,1,5,-5z"></path><g id="node_text27" fill="black"><text id="kity_text_164" text-rendering="inherit" font-size="12" dy=".8em" y="540.5" x="410.5">作为领袖的动员方法：</text><text id="kity_text_165" text-rendering="inherit" font-size="12" dy=".8em" y="558.5" x="410.5">断言、重复、感染</text></g></g><g id="minder_node30"><g id="node_expander27" display="none" style="cursor: pointer;"><path id="kity_path_316" fill="white" stroke="gray" d="M405.5,590.5A6,6,0,1,1,393.5,590.5A6,6,0,1,1,405.5,590.5"></path><path id="kity_path_317" fill="none" stroke="gray"></path></g><path id="node_outline28" fill="none" stroke="none" d="M410.5,581.5h24a5,5,0,0,1,5,5v8a5,5,0,0,1,-5,5h-24a5,5,0,0,1,-5,-5v-8a5,5,0,0,1,5,-5z"></path><g id="node_text28" fill="black"><text id="kity_text_167" text-rendering="inherit" font-size="12" dy=".8em" y="584.5" x="410.5">名望</text></g></g><g id="minder_node31"><g id="node_expander31" style="cursor: pointer;"><path id="kity_path_328" fill="white" stroke="gray" d="M295.5,629.5A6,6,0,1,1,283.5,629.5A6,6,0,1,1,295.5,629.5"></path><path id="kity_path_329" fill="none" stroke="gray" d="M285,629.5L294,629.5"></path></g><path id="node_outline32" fill="none" stroke="none" d="M300.5,611.5h96a5,5,0,0,1,5,5v26a5,5,0,0,1,-5,5h-96a5,5,0,0,1,-5,-5v-26a5,5,0,0,1,5,-5z"></path><g id="node_text32" fill="black"><text id="kity_text_176" text-rendering="inherit" font-size="12" dy=".8em" y="614.5" x="300.5">群体的信念和意见</text><text id="kity_text_177" text-rendering="inherit" font-size="12" dy=".8em" y="632.5" x="300.5">的变化范围</text></g></g><g id="minder_node32"><g id="node_expander29" display="none" style="cursor: pointer;"><path id="kity_path_322" fill="white" stroke="gray" d="M417.5,616.5A6,6,0,1,1,405.5,616.5A6,6,0,1,1,417.5,616.5"></path><path id="kity_path_323" fill="none" stroke="gray"></path></g><path id="node_outline30" fill="none" stroke="none" d="M422.5,607.5h60a5,5,0,0,1,5,5v8a5,5,0,0,1,-5,5h-60a5,5,0,0,1,-5,-5v-8a5,5,0,0,1,5,-5z"></path><g id="node_text30" fill="black"><text id="kity_text_172" text-rendering="inherit" font-size="12" dy=".8em" y="610.5" x="422.5">牢固的信念</text></g></g><g id="minder_node33"><g id="node_expander30" display="none" style="cursor: pointer;"><path id="kity_path_325" fill="white" stroke="gray" d="M417.5,642.5A6,6,0,1,1,405.5,642.5A6,6,0,1,1,417.5,642.5"></path><path id="kity_path_326" fill="none" stroke="gray"></path></g><path id="node_outline31" fill="none" stroke="none" d="M422.5,633.5h84a5,5,0,0,1,5,5v8a5,5,0,0,1,-5,5h-84a5,5,0,0,1,-5,-5v-8a5,5,0,0,1,5,-5z"></path><g id="node_text31" fill="black"><text id="kity_text_174" text-rendering="inherit" font-size="12" dy=".8em" y="636.5" x="422.5">群体意见的多变</text></g></g><g id="minder_node34"><g id="node_expander40" style="cursor: pointer;"><path id="kity_path_355" fill="white" stroke="gray" d="M125.5,759A6,6,0,1,1,113.5,759A6,6,0,1,1,125.5,759"></path><path id="kity_path_356" fill="none" stroke="gray" d="M115,759L124,759"></path></g><path id="node_outline41" fill="rgb(238, 243, 246)" stroke="rgb(115, 161, 191)" d="M129.5,735.5h118a3,3,0,0,1,3,3v41a3,3,0,0,1,-3,3h-118a3,3,0,0,1,-3,-3v-41a3,3,0,0,1,3,-3z" stroke-width="1"></path><g id="node_text41" fill="black"><text id="kity_text_195" text-rendering="inherit" font-size="14" dy=".8em" y="741" x="146.5">不同群体的</text><text id="kity_text_196" text-rendering="inherit" font-size="14" dy=".8em" y="762" x="146.5">分类及其特点</text></g></g><g id="minder_node35"><g id="node_expander35" style="cursor: pointer;"><path id="kity_path_340" fill="white" stroke="gray" d="M266.5,700.5A6,6,0,1,1,254.5,700.5A6,6,0,1,1,266.5,700.5"></path><path id="kity_path_341" fill="none" stroke="gray" d="M256,700.5L265,700.5"></path></g><path id="node_outline36" fill="none" stroke="none" d="M271.5,691.5h60a5,5,0,0,1,5,5v8a5,5,0,0,1,-5,5h-60a5,5,0,0,1,-5,-5v-8a5,5,0,0,1,5,-5z"></path><g id="node_text36" fill="black"><text id="kity_text_185" text-rendering="inherit" font-size="12" dy=".8em" y="694.5" x="271.5">群体的分类</text></g></g><g id="minder_node36"><g id="node_expander33" display="none" style="cursor: pointer;"><path id="kity_path_334" fill="white" stroke="gray" d="M352.5,687.5A6,6,0,1,1,340.5,687.5A6,6,0,1,1,352.5,687.5"></path><path id="kity_path_335" fill="none" stroke="gray"></path></g><path id="node_outline34" fill="none" stroke="none" d="M357.5,678.5h60a5,5,0,0,1,5,5v8a5,5,0,0,1,-5,5h-60a5,5,0,0,1,-5,-5v-8a5,5,0,0,1,5,-5z"></path><g id="node_text34" fill="black"><text id="kity_text_181" text-rendering="inherit" font-size="12" dy=".8em" y="681.5" x="357.5">异质性群体</text></g></g><g id="minder_node37"><g id="node_expander34" display="none" style="cursor: pointer;"><path id="kity_path_337" fill="white" stroke="gray" d="M352.5,713.5A6,6,0,1,1,340.5,713.5A6,6,0,1,1,352.5,713.5"></path><path id="kity_path_338" fill="none" stroke="gray"></path></g><path id="node_outline35" fill="none" stroke="none" d="M357.5,704.5h60a5,5,0,0,1,5,5v8a5,5,0,0,1,-5,5h-60a5,5,0,0,1,-5,-5v-8a5,5,0,0,1,5,-5z"></path><g id="node_text35" fill="black"><text id="kity_text_183" text-rendering="inherit" font-size="12" dy=".8em" y="707.5" x="357.5">同质性群体</text></g></g><g id="minder_node38"><g id="node_expander36" display="none" style="cursor: pointer;"><path id="kity_path_343" fill="white" stroke="gray" d="M266.5,739.5A6,6,0,1,1,254.5,739.5A6,6,0,1,1,266.5,739.5"></path><path id="kity_path_344" fill="none" stroke="gray"></path></g><path id="node_outline37" fill="none" stroke="none" d="M271.5,730.5h120a5,5,0,0,1,5,5v8a5,5,0,0,1,-5,5h-120a5,5,0,0,1,-5,-5v-8a5,5,0,0,1,5,-5z"></path><g id="node_text37" fill="black"><text id="kity_text_187" text-rendering="inherit" font-size="12" dy=".8em" y="733.5" x="271.5">被称为犯罪群体的群体</text></g></g><g id="minder_node39"><g id="node_expander37" display="none" style="cursor: pointer;"><path id="kity_path_346" fill="white" stroke="gray" d="M266.5,765.5A6,6,0,1,1,254.5,765.5A6,6,0,1,1,266.5,765.5"></path><path id="kity_path_347" fill="none" stroke="gray"></path></g><path id="node_outline38" fill="none" stroke="none" d="M271.5,756.5h96a5,5,0,0,1,5,5v8a5,5,0,0,1,-5,5h-96a5,5,0,0,1,-5,-5v-8a5,5,0,0,1,5,-5z"></path><g id="node_text38" fill="black"><text id="kity_text_189" text-rendering="inherit" font-size="12" dy=".8em" y="759.5" x="271.5">刑事案件的陪审团</text></g></g><g id="minder_node40"><g id="node_expander38" display="none" style="cursor: pointer;"><path id="kity_path_349" fill="white" stroke="gray" d="M266.5,791.5A6,6,0,1,1,254.5,791.5A6,6,0,1,1,266.5,791.5"></path><path id="kity_path_350" fill="none" stroke="gray"></path></g><path id="node_outline39" fill="none" stroke="none" d="M271.5,782.5h48a5,5,0,0,1,5,5v8a5,5,0,0,1,-5,5h-48a5,5,0,0,1,-5,-5v-8a5,5,0,0,1,5,-5z"></path><g id="node_text39" fill="black"><text id="kity_text_191" text-rendering="inherit" font-size="12" dy=".8em" y="785.5" x="271.5">选民群体</text></g></g><g id="minder_node41"><g id="node_expander39" display="none" style="cursor: pointer;"><path id="kity_path_352" fill="white" stroke="gray" d="M266.5,817.5A6,6,0,1,1,254.5,817.5A6,6,0,1,1,266.5,817.5"></path><path id="kity_path_353" fill="none" stroke="gray"></path></g><path id="node_outline40" fill="none" stroke="none" d="M271.5,808.5h24a5,5,0,0,1,5,5v8a5,5,0,0,1,-5,5h-24a5,5,0,0,1,-5,-5v-8a5,5,0,0,1,5,-5z"></path><g id="node_text40" fill="black"><text id="kity_text_193" text-rendering="inherit" font-size="12" dy=".8em" y="811.5" x="271.5">议会</text></g></g></g></g></svg>