<svg id="kity_svg_6" xmlns="http://www.w3.org/2000/svg" xmlns:xlink="http://www.w3.org/1999/xlink" version="1.1" width="779" height="577" style="background: rgb(251, 251, 251); visibility: visible;" viewBox="0 0 779 577"><defs id="kity_defs_7"><linearGradient id="kity_linearGradient_17" x1="0" y1="0" x2="0" y2="1"><stop id="kity_stop_18" offset="0" stop-color="rgb(255, 255, 255)"></stop><stop id="kity_stop_19" offset="1" stop-color="rgb(204, 204, 204)"></stop></linearGradient><marker id="kity_marker_2" orient="auto" refX="6" refY="0" viewBox="-7 -7 14 14" markerWidth="7" markerHeight="7" markerUnits="userSpaceOnUse"><path id="kity_path_3" fill="rgb(115, 161, 191)" stroke="none" d="M6,0A6,6,0,1,1,-6,0A6,6,0,1,1,6,0"></path></marker></defs><g id="kity_g_8"><g id="minder1" text-rendering="optimize-speed"><g id="minder_connect_group1"><path id="kity_path_31" fill="none" stroke="rgb(115, 161, 191)" stroke-width="1" d="M64.5,257.5A66,197,0,0,1,130.5,60.5"></path><path id="kity_path_41" fill="none" stroke="rgb(115, 161, 191)" stroke-width="1" d="M64.5,257.5A60,66,0,0,1,124.5,191.5"></path><path id="kity_path_43" fill="none" stroke="rgb(115, 161, 191)" stroke-width="1" d="M222.5,191.5C230.5,191.5,230.5,191.5,238.5,191.5"></path><path id="kity_path_45" fill="none" stroke="rgb(115, 161, 191)" stroke-width="1" d="M356.5,191.5C366,191.5,366,138.5,375.5,138.5"></path><path id="kity_path_63" fill="none" stroke="rgb(115, 161, 191)" stroke-width="1" d="M64.5,257.5A60,154.5,0,0,0,124.5,412"></path><path id="kity_path_65" fill="none" stroke="rgb(115, 161, 191)" stroke-width="1" d="M250.5,412.5C258.5,412,258.5,288.5,266.5,288.5"></path><path id="kity_path_67" fill="none" stroke="rgb(115, 161, 191)" stroke-width="1" d="M348.5,288.5C356.5,288.5,356.5,262.5,364.5,262.5"></path><path id="kity_path_69" fill="none" stroke="rgb(115, 161, 191)" stroke-width="1" d="M348.5,288.5C356.5,288.5,356.5,288.5,364.5,288.5"></path><path id="kity_path_71" fill="none" stroke="rgb(115, 161, 191)" stroke-width="1" d="M348.5,288.5C356.5,288.5,356.5,314.5,364.5,314.5"></path><path id="kity_path_73" fill="none" stroke="rgb(115, 161, 191)" stroke-width="1" d="M250.5,412.5C258.5,412,258.5,379.5,266.5,379.5"></path><path id="kity_path_75" fill="none" stroke="rgb(115, 161, 191)" stroke-width="1" d="M336.5,379.5C344.5,379.5,344.5,340.5,352.5,340.5"></path><path id="kity_path_77" fill="none" stroke="rgb(115, 161, 191)" stroke-width="1" d="M336.5,379.5C344.5,379.5,344.5,366.5,352.5,366.5"></path><path id="kity_path_79" fill="none" stroke="rgb(115, 161, 191)" stroke-width="1" d="M336.5,379.5C344.5,379.5,344.5,392.5,352.5,392.5"></path><path id="kity_path_81" fill="none" stroke="rgb(115, 161, 191)" stroke-width="1" d="M336.5,379.5C344.5,379.5,344.5,418.5,352.5,418.5"></path><path id="kity_path_83" fill="none" stroke="rgb(115, 161, 191)" stroke-width="1" d="M250.5,412.5C258.5,412,258.5,470.5,266.5,470.5"></path><path id="kity_path_85" fill="none" stroke="rgb(115, 161, 191)" stroke-width="1" d="M336.5,470.5C344.5,470.5,344.5,444.5,352.5,444.5"></path><path id="kity_path_87" fill="none" stroke="rgb(115, 161, 191)" stroke-width="1" d="M336.5,470.5C344.5,470.5,344.5,470.5,352.5,470.5"></path><path id="kity_path_89" fill="none" stroke="rgb(115, 161, 191)" stroke-width="1" d="M336.5,470.5C344.5,470.5,344.5,496.5,352.5,496.5"></path><path id="kity_path_91" fill="none" stroke="rgb(115, 161, 191)" stroke-width="1" d="M250.5,412.5C258.5,412,258.5,535.5,266.5,535.5"></path><path id="kity_path_93" fill="none" stroke="rgb(115, 161, 191)" stroke-width="1" d="M312.5,535.5C320.5,535.5,320.5,522.5,328.5,522.5"></path><path id="kity_path_95" fill="none" stroke="rgb(115, 161, 191)" stroke-width="1" d="M312.5,535.5C320.5,535.5,320.5,548.5,328.5,548.5"></path><path id="kity_path_299" fill="none" stroke="rgb(115, 161, 191)" stroke-width="1" d="M304.5,38.5C312.5,38.5,312.5,38.5,320.5,38.5"></path><path id="kity_path_300" fill="none" stroke="rgb(115, 161, 191)" stroke-width="1" d="M242.5,60.5C250.5,60.5,250.5,38.5,258.5,38.5"></path><path id="kity_path_301" fill="none" stroke="rgb(115, 161, 191)" stroke-width="1" d="M304.5,82.5C312.5,82.5,312.5,82.5,320.5,82.5"></path><path id="kity_path_302" fill="none" stroke="rgb(115, 161, 191)" stroke-width="1" d="M242.5,60.5C250.5,60.5,250.5,82.5,258.5,82.5"></path><path id="kity_path_309" fill="none" stroke="rgb(115, 161, 191)" stroke-width="1" d="M356.5,191.5C364.5,191.5,364.5,215.5,372.5,215.5"></path><path id="kity_path_310" fill="none" stroke="rgb(115, 161, 191)" stroke-width="1" d="M433.5,138.5C441.5,138.5,441.5,138.5,449.5,138.5"></path><path id="kity_path_311" fill="none" stroke="rgb(115, 161, 191)" stroke-width="1" d="M652.5,202.5C660.5,202.5,660.5,202.5,668.5,202.5"></path><path id="kity_path_312" fill="none" stroke="rgb(115, 161, 191)" stroke-width="1" d="M578.5,202.5C586.5,202.5,586.5,202.5,594.5,202.5"></path><path id="kity_path_313" fill="none" stroke="rgb(115, 161, 191)" stroke-width="1" d="M516.5,215.5C524.5,215.5,524.5,202.5,532.5,202.5"></path><path id="kity_path_314" fill="none" stroke="rgb(115, 161, 191)" stroke-width="1" d="M578.5,228.5C586.5,228.5,586.5,228.5,594.5,228.5"></path><path id="kity_path_315" fill="none" stroke="rgb(115, 161, 191)" stroke-width="1" d="M516.5,215.5C524.5,215.5,524.5,228.5,532.5,228.5"></path><path id="kity_path_316" fill="none" stroke="rgb(115, 161, 191)" stroke-width="1" d="M430.5,215.5C438.5,215.5,438.5,215.5,446.5,215.5"></path></g><g id="minder_node1"><path id="node_outline1" fill="rgb(115, 161, 191)" stroke="rgb(115, 161, 191)" d="M25.5,243.5h78a5,5,0,0,1,5,5v18a5,5,0,0,1,-5,5h-78a5,5,0,0,1,-5,-5v-18a5,5,0,0,1,5,-5z" stroke-width="3"></path><g id="node_text1" fill="white"><text id="kity_text_22" text-rendering="inherit" font-size="16" dy=".8em" y="249.5" x="32.5">编译原理</text></g></g><g id="kity_g_14" display="none"><path id="kity_path_15" fill="none" stroke="none" d="M32.5,257.5h0v0h0z"></path><path id="kity_path_16" fill="none" stroke="none"></path></g><g id="minder_node2" opacity="1"><g id="node_expander5" style="cursor: pointer;"><path id="kity_path_213" fill="white" stroke="gray" d="M131.5,60.5A6,6,0,1,1,119.5,60.5A6,6,0,1,1,131.5,60.5"></path><path id="kity_path_214" fill="none" stroke="gray" d="M121,60.5L130,60.5"></path></g><path id="node_outline6" fill="rgb(238, 243, 246)" stroke="rgb(115, 161, 191)" d="M135.5,47.5h104a3,3,0,0,1,3,3v20a3,3,0,0,1,-3,3h-104a3,3,0,0,1,-3,-3v-20a3,3,0,0,1,3,-3z" stroke-width="1"></path><g id="node_text6" fill="black"><text id="kity_text_107" text-rendering="inherit" font-size="14" dy=".8em" y="53.5" x="152.5">语言处理器</text></g></g><g id="minder_node7"><g id="node_expander16" style="cursor: pointer;"><path id="kity_path_246" fill="white" stroke="gray" d="M125.5,191.5A6,6,0,1,1,113.5,191.5A6,6,0,1,1,125.5,191.5"></path><path id="kity_path_247" fill="none" stroke="gray" d="M115,191.5L124,191.5"></path></g><path id="node_outline17" fill="rgb(238, 243, 246)" stroke="rgb(115, 161, 191)" d="M129.5,178.5h90a3,3,0,0,1,3,3v20a3,3,0,0,1,-3,3h-90a3,3,0,0,1,-3,-3v-20a3,3,0,0,1,3,-3z" stroke-width="1"></path><g id="node_text17" fill="black"><text id="kity_text_131" text-rendering="inherit" font-size="14" dy=".8em" y="184.5" x="146.5">处理过程</text></g></g><g id="minder_node8"><g id="node_expander15" style="cursor: pointer;"><path id="kity_path_243" fill="white" stroke="gray" d="M238.5,191.5A6,6,0,1,1,226.5,191.5A6,6,0,1,1,238.5,191.5"></path><path id="kity_path_244" fill="none" stroke="gray" d="M228,191.5L237,191.5"></path></g><path id="node_outline16" fill="none" stroke="none" d="M243.5,173.5h108a5,5,0,0,1,5,5v26a5,5,0,0,1,-5,5h-108a5,5,0,0,1,-5,-5v-26a5,5,0,0,1,5,-5z"></path><g id="node_text16" fill="black"><text id="kity_text_128" text-rendering="inherit" font-size="12" dy=".8em" y="176.5" x="243.5">源代码:</text><text id="kity_text_129" text-rendering="inherit" font-size="12" dy=".8em" y="194.5" x="243.5">串整行相连的字符串</text></g></g><g id="minder_node9" opacity="1"><g id="node_expander14" style="cursor: pointer;"><path id="kity_path_240" fill="white" stroke="gray" d="M375.5,138.5A6,6,0,1,1,363.5,138.5A6,6,0,1,1,375.5,138.5"></path><path id="kity_path_241" fill="none" stroke="gray" d="M365,138.5L374,138.5"></path></g><path id="node_outline15" fill="none" stroke="none" d="M380.5,129.5h48a5,5,0,0,1,5,5v8a5,5,0,0,1,-5,5h-48a5,5,0,0,1,-5,-5v-8a5,5,0,0,1,5,-5z" stroke-width="3"></path><g id="node_text15" fill="black"><text id="kity_text_126" text-rendering="inherit" font-size="12" dy=".8em" y="132.5" x="380.5">词法分析</text></g></g><g id="minder_node18"><g id="node_expander33" style="cursor: pointer;"><path id="kity_path_297" fill="white" stroke="gray" d="M125.5,412A6,6,0,1,1,113.5,412A6,6,0,1,1,125.5,412"></path><path id="kity_path_298" fill="none" stroke="gray" d="M115,412L124,412"></path></g><path id="node_outline34" fill="rgb(238, 243, 246)" stroke="rgb(115, 161, 191)" d="M129.5,388.5h118a3,3,0,0,1,3,3v41a3,3,0,0,1,-3,3h-118a3,3,0,0,1,-3,-3v-41a3,3,0,0,1,3,-3z" stroke-width="1"></path><g id="node_text34" fill="black"><text id="kity_text_165" text-rendering="inherit" font-size="14" dy=".8em" y="394" x="146.5">设计脚本语言</text><text id="kity_text_166" text-rendering="inherit" font-size="14" dy=".8em" y="415" x="146.5">制作解释器</text></g></g><g id="minder_node19"><g id="node_expander20" style="cursor: pointer;"><path id="kity_path_258" fill="white" stroke="gray" d="M266.5,288.5A6,6,0,1,1,254.5,288.5A6,6,0,1,1,266.5,288.5"></path><path id="kity_path_259" fill="none" stroke="gray" d="M256,288.5L265,288.5"></path></g><path id="node_outline21" fill="none" stroke="none" d="M271.5,279.5h72a5,5,0,0,1,5,5v8a5,5,0,0,1,-5,5h-72a5,5,0,0,1,-5,-5v-8a5,5,0,0,1,5,-5z"></path><g id="node_text21" fill="black"><text id="kity_text_139" text-rendering="inherit" font-size="12" dy=".8em" y="282.5" x="271.5">设计基本语法</text></g></g><g id="minder_node20"><g id="node_expander17" display="none" style="cursor: pointer;"><path id="kity_path_249" fill="white" stroke="gray" d="M364.5,262.5A6,6,0,1,1,352.5,262.5A6,6,0,1,1,364.5,262.5"></path><path id="kity_path_250" fill="none" stroke="gray"></path></g><path id="node_outline18" fill="none" stroke="none" d="M369.5,253.5h61a5,5,0,0,1,5,5v8a5,5,0,0,1,-5,5h-61a5,5,0,0,1,-5,-5v-8a5,5,0,0,1,5,-5z"></path><g id="node_text18" fill="black"><text id="kity_text_133" text-rendering="inherit" font-size="12" dy=".8em" y="256.5" x="369.5">1. 变量定义</text></g></g><g id="minder_node21"><g id="node_expander18" display="none" style="cursor: pointer;"><path id="kity_path_252" fill="white" stroke="gray" d="M364.5,288.5A6,6,0,1,1,352.5,288.5A6,6,0,1,1,364.5,288.5"></path><path id="kity_path_253" fill="none" stroke="gray"></path></g><path id="node_outline19" fill="none" stroke="none" d="M369.5,279.5h45a5,5,0,0,1,5,5v8a5,5,0,0,1,-5,5h-45a5,5,0,0,1,-5,-5v-8a5,5,0,0,1,5,-5z"></path><g id="node_text19" fill="black"><text id="kity_text_135" text-rendering="inherit" font-size="12" dy=".8em" y="282.5" x="369.5">2. if else</text></g></g><g id="minder_node22"><g id="node_expander19" display="none" style="cursor: pointer;"><path id="kity_path_255" fill="white" stroke="gray" d="M364.5,314.5A6,6,0,1,1,352.5,314.5A6,6,0,1,1,364.5,314.5"></path><path id="kity_path_256" fill="none" stroke="gray"></path></g><path id="node_outline20" fill="none" stroke="none" d="M369.5,305.5h73a5,5,0,0,1,5,5v8a5,5,0,0,1,-5,5h-73a5,5,0,0,1,-5,-5v-8a5,5,0,0,1,5,-5z"></path><g id="node_text20" fill="black"><text id="kity_text_137" text-rendering="inherit" font-size="12" dy=".8em" y="308.5" x="369.5">3. 分号，END</text></g></g><g id="minder_node23"><g id="node_expander25" style="cursor: pointer;"><path id="kity_path_273" fill="white" stroke="gray" d="M266.5,379.5A6,6,0,1,1,254.5,379.5A6,6,0,1,1,266.5,379.5"></path><path id="kity_path_274" fill="none" stroke="gray" d="M256,379.5L265,379.5"></path></g><path id="node_outline26" fill="none" stroke="none" d="M271.5,370.5h60a5,5,0,0,1,5,5v8a5,5,0,0,1,-5,5h-60a5,5,0,0,1,-5,-5v-8a5,5,0,0,1,5,-5z"></path><g id="node_text26" fill="black"><text id="kity_text_149" text-rendering="inherit" font-size="12" dy=".8em" y="373.5" x="271.5">词法分析器</text></g></g><g id="minder_node24"><g id="node_expander21" display="none" style="cursor: pointer;"><path id="kity_path_261" fill="white" stroke="gray" d="M352.5,340.5A6,6,0,1,1,340.5,340.5A6,6,0,1,1,352.5,340.5"></path><path id="kity_path_262" fill="none" stroke="gray"></path></g><path id="node_outline22" fill="none" stroke="none" d="M357.5,331.5h61a5,5,0,0,1,5,5v8a5,5,0,0,1,-5,5h-61a5,5,0,0,1,-5,-5v-8a5,5,0,0,1,5,-5z"></path><g id="node_text22" fill="black"><text id="kity_text_141" text-rendering="inherit" font-size="12" dy=".8em" y="334.5" x="357.5">1. 分割单词</text></g></g><g id="minder_node25"><g id="node_expander22" display="none" style="cursor: pointer;"><path id="kity_path_264" fill="white" stroke="gray" d="M352.5,366.5A6,6,0,1,1,340.5,366.5A6,6,0,1,1,352.5,366.5"></path><path id="kity_path_265" fill="none" stroke="gray"></path></g><path id="node_outline23" fill="none" stroke="none" d="M357.5,357.5h73a5,5,0,0,1,5,5v8a5,5,0,0,1,-5,5h-73a5,5,0,0,1,-5,-5v-8a5,5,0,0,1,5,-5z"></path><g id="node_text23" fill="black"><text id="kity_text_143" text-rendering="inherit" font-size="12" dy=".8em" y="360.5" x="357.5">2. 正则表达式</text></g></g><g id="minder_node26"><g id="node_expander23" display="none" style="cursor: pointer;"><path id="kity_path_267" fill="white" stroke="gray" d="M352.5,392.5A6,6,0,1,1,340.5,392.5A6,6,0,1,1,352.5,392.5"></path><path id="kity_path_268" fill="none" stroke="gray"></path></g><path id="node_outline24" fill="none" stroke="none" d="M357.5,383.5h73a5,5,0,0,1,5,5v8a5,5,0,0,1,-5,5h-73a5,5,0,0,1,-5,-5v-8a5,5,0,0,1,5,-5z"></path><g id="node_text24" fill="black"><text id="kity_text_145" text-rendering="inherit" font-size="12" dy=".8em" y="386.5" x="357.5">3. 运行分析器</text></g></g><g id="minder_node27"><g id="node_expander24" display="none" style="cursor: pointer;"><path id="kity_path_270" fill="white" stroke="gray" d="M352.5,418.5A6,6,0,1,1,340.5,418.5A6,6,0,1,1,352.5,418.5"></path><path id="kity_path_271" fill="none" stroke="gray"></path></g><path id="node_outline25" fill="none" stroke="none" d="M357.5,409.5h97a5,5,0,0,1,5,5v8a5,5,0,0,1,-5,5h-97a5,5,0,0,1,-5,-5v-8a5,5,0,0,1,5,-5z"></path><g id="node_text25" fill="black"><text id="kity_text_147" text-rendering="inherit" font-size="12" dy=".8em" y="412.5" x="357.5">4. 得到分割的单词</text></g></g><g id="minder_node28"><g id="node_expander29" style="cursor: pointer;"><path id="kity_path_285" fill="white" stroke="gray" d="M266.5,470.5A6,6,0,1,1,254.5,470.5A6,6,0,1,1,266.5,470.5"></path><path id="kity_path_286" fill="none" stroke="gray" d="M256,470.5L265,470.5"></path></g><path id="node_outline30" fill="none" stroke="none" d="M271.5,461.5h60a5,5,0,0,1,5,5v8a5,5,0,0,1,-5,5h-60a5,5,0,0,1,-5,-5v-8a5,5,0,0,1,5,-5z"></path><g id="node_text30" fill="black"><text id="kity_text_157" text-rendering="inherit" font-size="12" dy=".8em" y="464.5" x="271.5">语法分析器</text></g></g><g id="minder_node29"><g id="node_expander26" display="none" style="cursor: pointer;"><path id="kity_path_276" fill="white" stroke="gray" d="M352.5,444.5A6,6,0,1,1,340.5,444.5A6,6,0,1,1,352.5,444.5"></path><path id="kity_path_277" fill="none" stroke="gray"></path></g><path id="node_outline27" fill="none" stroke="none" d="M357.5,435.5h328a5,5,0,0,1,5,5v8a5,5,0,0,1,-5,5h-328a5,5,0,0,1,-5,-5v-8a5,5,0,0,1,5,-5z"></path><g id="node_text27" fill="black"><text id="kity_text_151" text-rendering="inherit" font-size="12" dy=".8em" y="438.5" x="357.5">1. 将单词序列与语法规则定义,的模式进行匹配构造抽象语法树</text></g></g><g id="minder_node30"><g id="node_expander27" display="none" style="cursor: pointer;"><path id="kity_path_279" fill="white" stroke="gray" d="M352.5,470.5A6,6,0,1,1,340.5,470.5A6,6,0,1,1,352.5,470.5"></path><path id="kity_path_280" fill="none" stroke="gray"></path></g><path id="node_outline28" fill="none" stroke="none" d="M357.5,461.5h73a5,5,0,0,1,5,5v8a5,5,0,0,1,-5,5h-73a5,5,0,0,1,-5,-5v-8a5,5,0,0,1,5,-5z"></path><g id="node_text28" fill="black"><text id="kity_text_153" text-rendering="inherit" font-size="12" dy=".8em" y="464.5" x="357.5">2. 设计节点类</text></g></g><g id="minder_node31"><g id="node_expander28" display="none" style="cursor: pointer;"><path id="kity_path_282" fill="white" stroke="gray" d="M352.5,496.5A6,6,0,1,1,340.5,496.5A6,6,0,1,1,352.5,496.5"></path><path id="kity_path_283" fill="none" stroke="gray"></path></g><path id="node_outline29" fill="none" stroke="none" d="M357.5,487.5h97a5,5,0,0,1,5,5v8a5,5,0,0,1,-5,5h-97a5,5,0,0,1,-5,-5v-8a5,5,0,0,1,5,-5z"></path><g id="node_text29" fill="black"><text id="kity_text_155" text-rendering="inherit" font-size="12" dy=".8em" y="490.5" x="357.5">3. 得到抽象语法树</text></g></g><g id="minder_node32"><g id="node_expander32" style="cursor: pointer;"><path id="kity_path_294" fill="white" stroke="gray" d="M266.5,535.5A6,6,0,1,1,254.5,535.5A6,6,0,1,1,266.5,535.5"></path><path id="kity_path_295" fill="none" stroke="gray" d="M256,535.5L265,535.5"></path></g><path id="node_outline33" fill="none" stroke="none" d="M271.5,526.5h36a5,5,0,0,1,5,5v8a5,5,0,0,1,-5,5h-36a5,5,0,0,1,-5,-5v-8a5,5,0,0,1,5,-5z"></path><g id="node_text33" fill="black"><text id="kity_text_163" text-rendering="inherit" font-size="12" dy=".8em" y="529.5" x="271.5">解释器</text></g></g><g id="minder_node33"><g id="node_expander30" display="none" style="cursor: pointer;"><path id="kity_path_288" fill="white" stroke="gray" d="M328.5,522.5A6,6,0,1,1,316.5,522.5A6,6,0,1,1,328.5,522.5"></path><path id="kity_path_289" fill="none" stroke="gray"></path></g><path id="node_outline31" fill="none" stroke="none" d="M333.5,513.5h205a5,5,0,0,1,5,5v8a5,5,0,0,1,-5,5h-205a5,5,0,0,1,-5,-5v-8a5,5,0,0,1,5,-5z"></path><g id="node_text31" fill="black"><text id="kity_text_159" text-rendering="inherit" font-size="12" dy=".8em" y="516.5" x="333.5">1. 遍历抽象语法树，计算各个节点内容</text></g></g><g id="minder_node34"><g id="node_expander31" display="none" style="cursor: pointer;"><path id="kity_path_291" fill="white" stroke="gray" d="M328.5,548.5A6,6,0,1,1,316.5,548.5A6,6,0,1,1,328.5,548.5"></path><path id="kity_path_292" fill="none" stroke="gray"></path></g><path id="node_outline32" fill="none" stroke="none" d="M333.5,539.5h121a5,5,0,0,1,5,5v8a5,5,0,0,1,-5,5h-121a5,5,0,0,1,-5,-5v-8a5,5,0,0,1,5,-5z"></path><g id="node_text32" fill="black"><text id="kity_text_161" text-rendering="inherit" font-size="12" dy=".8em" y="542.5" x="333.5">2. 执行程序，得到结果</text></g></g><g id="minder_node4"><g id="node_expander1" display="none" style="cursor: pointer;"><path id="kity_path_201" fill="white" stroke="gray" d="M320.5,38.5A6,6,0,1,1,308.5,38.5A6,6,0,1,1,320.5,38.5"></path><path id="kity_path_202" fill="none" stroke="gray"></path></g><path id="node_outline2" fill="none" stroke="none" d="M325.5,20.5h169a5,5,0,0,1,5,5v26a5,5,0,0,1,-5,5h-169a5,5,0,0,1,-5,-5v-26a5,5,0,0,1,5,-5z"></path><g id="node_text2" fill="black"><text id="kity_text_97" text-rendering="inherit" font-size="12" dy=".8em" y="23.5" x="325.5">1. 将某种语言转换成另一种语言</text><text id="kity_text_98" text-rendering="inherit" font-size="12" dy=".8em" y="41.5" x="325.5">2. 源程序转换为机器语言</text></g></g><g id="minder_node3"><g id="node_expander2" style="cursor: pointer;"><path id="kity_path_204" fill="white" stroke="gray" d="M258.5,38.5A6,6,0,1,1,246.5,38.5A6,6,0,1,1,258.5,38.5"></path><path id="kity_path_205" fill="none" stroke="gray" d="M248,38.5L257,38.5"></path></g><path id="node_outline3" fill="none" stroke="none" d="M263.5,29.5h36a5,5,0,0,1,5,5v8a5,5,0,0,1,-5,5h-36a5,5,0,0,1,-5,-5v-8a5,5,0,0,1,5,-5z"></path><g id="node_text3" fill="black"><text id="kity_text_100" text-rendering="inherit" font-size="12" dy=".8em" y="32.5" x="263.5">编译器</text></g></g><g id="minder_node6"><g id="node_expander3" display="none" style="cursor: pointer;"><path id="kity_path_207" fill="white" stroke="gray" d="M320.5,82.5A6,6,0,1,1,308.5,82.5A6,6,0,1,1,320.5,82.5"></path><path id="kity_path_208" fill="none" stroke="gray"></path></g><path id="node_outline4" fill="none" stroke="none" d="M325.5,64.5h157a5,5,0,0,1,5,5v26a5,5,0,0,1,-5,5h-157a5,5,0,0,1,-5,-5v-26a5,5,0,0,1,5,-5z"></path><g id="node_text4" fill="black"><text id="kity_text_102" text-rendering="inherit" font-size="12" dy=".8em" y="67.5" x="325.5">1. 根据程序中的算法执行运算</text><text id="kity_text_103" text-rendering="inherit" font-size="12" dy=".8em" y="85.5" x="325.5">2. 一种执行程序的软件</text></g></g><g id="minder_node5"><g id="node_expander4" style="cursor: pointer;"><path id="kity_path_210" fill="white" stroke="gray" d="M258.5,82.5A6,6,0,1,1,246.5,82.5A6,6,0,1,1,258.5,82.5"></path><path id="kity_path_211" fill="none" stroke="gray" d="M248,82.5L257,82.5"></path></g><path id="node_outline5" fill="none" stroke="none" d="M263.5,73.5h36a5,5,0,0,1,5,5v8a5,5,0,0,1,-5,5h-36a5,5,0,0,1,-5,-5v-8a5,5,0,0,1,5,-5z"></path><g id="node_text5" fill="black"><text id="kity_text_105" text-rendering="inherit" font-size="12" dy=".8em" y="76.5" x="263.5">解释器</text></g></g><g id="minder_node11" opacity="1"><g id="node_expander12" style="cursor: pointer;"><path id="kity_path_234" fill="white" stroke="gray" d="M372.5,215.5A6,6,0,1,1,360.5,215.5A6,6,0,1,1,372.5,215.5"></path><path id="kity_path_235" fill="none" stroke="gray" d="M362,215.5L371,215.5"></path></g><path id="node_outline13" fill="none" stroke="none" d="M377.5,206.5h48a5,5,0,0,1,5,5v8a5,5,0,0,1,-5,5h-48a5,5,0,0,1,-5,-5v-8a5,5,0,0,1,5,-5z" stroke-width="3"></path><g id="node_text13" fill="black"><text id="kity_text_121" text-rendering="inherit" font-size="12" dy=".8em" y="209.5" x="377.5">语法分析</text></g></g><g id="minder_node10"><g id="node_expander13" style="cursor: pointer;" display="none"><path id="kity_path_237" fill="white" stroke="gray" d="M449.5,138.5A6,6,0,1,1,437.5,138.5A6,6,0,1,1,449.5,138.5"></path><path id="kity_path_238" fill="none" stroke="gray" d="M439,138.5L448,138.5"></path></g><path id="node_outline14" fill="none" stroke="none" d="M454.5,120.5h96a5,5,0,0,1,5,5v26a5,5,0,0,1,-5,5h-96a5,5,0,0,1,-5,-5v-26a5,5,0,0,1,5,-5z"></path><g id="node_text14" fill="black"><text id="kity_text_123" text-rendering="inherit" font-size="12" dy=".8em" y="123.5" x="454.5">单词排列:</text><text id="kity_text_124" text-rendering="inherit" font-size="12" dy=".8em" y="141.5" x="454.5">简短字符串的排列</text></g></g><g id="kity_g_12" display="none"><path id="kity_path_13" fill="none" stroke="rgb(66, 94, 112)" d="M243.5,175.5h108a5,5,0,0,1,5,5v26a5,5,0,0,1,-5,5h-108a5,5,0,0,1,-5,-5v-26a5,5,0,0,1,5,-5z" stroke-width="5"></path></g><g id="minder_node15"><g id="node_expander6" display="none" style="cursor: pointer;"><path id="kity_path_216" fill="white" stroke="gray" d="M668.5,202.5A6,6,0,1,1,656.5,202.5A6,6,0,1,1,668.5,202.5"></path><path id="kity_path_217" fill="none" stroke="gray"></path></g><path id="node_outline7" fill="none" stroke="none" d="M673.5,193.5h81a5,5,0,0,1,5,5v8a5,5,0,0,1,-5,5h-81a5,5,0,0,1,-5,-5v-8a5,5,0,0,1,5,-5z"></path><g id="node_text7" fill="black"><text id="kity_text_109" text-rendering="inherit" font-size="12" dy=".8em" y="196.5" x="673.5">其他语言(机器)</text></g></g><g id="minder_node14"><g id="node_expander7" style="cursor: pointer;"><path id="kity_path_219" fill="white" stroke="gray" d="M594.5,202.5A6,6,0,1,1,582.5,202.5A6,6,0,1,1,594.5,202.5"></path><path id="kity_path_220" fill="none" stroke="gray" d="M584,202.5L593,202.5"></path></g><path id="node_outline8" fill="none" stroke="none" d="M599.5,193.5h48a5,5,0,0,1,5,5v8a5,5,0,0,1,-5,5h-48a5,5,0,0,1,-5,-5v-8a5,5,0,0,1,5,-5z"></path><g id="node_text8" fill="black"><text id="kity_text_111" text-rendering="inherit" font-size="12" dy=".8em" y="196.5" x="599.5">代码生成</text></g></g><g id="minder_node13"><g id="node_expander8" style="cursor: pointer;"><path id="kity_path_222" fill="white" stroke="gray" d="M532.5,202.5A6,6,0,1,1,520.5,202.5A6,6,0,1,1,532.5,202.5"></path><path id="kity_path_223" fill="none" stroke="gray" d="M522,202.5L531,202.5"></path></g><path id="node_outline9" fill="none" stroke="none" d="M537.5,193.5h36a5,5,0,0,1,5,5v8a5,5,0,0,1,-5,5h-36a5,5,0,0,1,-5,-5v-8a5,5,0,0,1,5,-5z"></path><g id="node_text9" fill="black"><text id="kity_text_113" text-rendering="inherit" font-size="12" dy=".8em" y="196.5" x="537.5">编译器</text></g></g><g id="minder_node17"><g id="node_expander9" display="none" style="cursor: pointer;"><path id="kity_path_225" fill="white" stroke="gray" d="M594.5,228.5A6,6,0,1,1,582.5,228.5A6,6,0,1,1,594.5,228.5"></path><path id="kity_path_226" fill="none" stroke="gray"></path></g><path id="node_outline10" fill="none" stroke="none" d="M599.5,219.5h84a5,5,0,0,1,5,5v8a5,5,0,0,1,-5,5h-84a5,5,0,0,1,-5,-5v-8a5,5,0,0,1,5,-5z"></path><g id="node_text10" fill="black"><text id="kity_text_115" text-rendering="inherit" font-size="12" dy=".8em" y="222.5" x="599.5">程序执行的结果</text></g></g><g id="minder_node16"><g id="node_expander10" style="cursor: pointer;"><path id="kity_path_228" fill="white" stroke="gray" d="M532.5,228.5A6,6,0,1,1,520.5,228.5A6,6,0,1,1,532.5,228.5"></path><path id="kity_path_229" fill="none" stroke="gray" d="M522,228.5L531,228.5"></path></g><path id="node_outline11" fill="none" stroke="none" d="M537.5,219.5h36a5,5,0,0,1,5,5v8a5,5,0,0,1,-5,5h-36a5,5,0,0,1,-5,-5v-8a5,5,0,0,1,5,-5z"></path><g id="node_text11" fill="black"><text id="kity_text_117" text-rendering="inherit" font-size="12" dy=".8em" y="222.5" x="537.5">解释器</text></g></g><g id="minder_node12"><g id="node_expander11" style="cursor: pointer;"><path id="kity_path_231" fill="white" stroke="gray" d="M446.5,215.5A6,6,0,1,1,434.5,215.5A6,6,0,1,1,446.5,215.5"></path><path id="kity_path_232" fill="none" stroke="gray" d="M436,215.5L445,215.5"></path></g><path id="node_outline12" fill="none" stroke="none" d="M451.5,206.5h60a5,5,0,0,1,5,5v8a5,5,0,0,1,-5,5h-60a5,5,0,0,1,-5,-5v-8a5,5,0,0,1,5,-5z" stroke-width="3"></path><g id="node_text12" fill="black"><text id="kity_text_119" text-rendering="inherit" font-size="12" dy=".8em" y="209.5" x="451.5">抽象语法树</text></g></g></g></g></svg>