<svg id="kity_svg_6" xmlns="http://www.w3.org/2000/svg" xmlns:xlink="http://www.w3.org/1999/xlink" version="1.1" width="492" height="642" style="background: rgb(251, 251, 251); visibility: visible;" viewBox="0 0 492 642"><defs id="kity_defs_7"><linearGradient id="kity_linearGradient_17" x1="0" y1="0" x2="0" y2="1"><stop id="kity_stop_18" offset="0" stop-color="rgb(255, 255, 255)"></stop><stop id="kity_stop_19" offset="1" stop-color="rgb(204, 204, 204)"></stop></linearGradient><marker id="kity_marker_2" orient="auto" refX="6" refY="0" viewBox="-7 -7 14 14" markerWidth="7" markerHeight="7" markerUnits="userSpaceOnUse"><path id="kity_path_3" fill="rgb(115, 161, 191)" stroke="none" d="M6,0A6,6,0,1,1,-6,0A6,6,0,1,1,6,0"></path></marker></defs><g id="kity_g_8"><g id="minder1" text-rendering="optimize-speed"><g id="minder_connect_group1"><path id="kity_path_31" fill="none" stroke="rgb(115, 161, 191)" stroke-width="1" d="M72.5,314.5A68,259,0,0,1,140.5,55.5"></path><path id="kity_path_33" fill="none" stroke="rgb(115, 161, 191)" stroke-width="1" d="M252.5,55.5C260.5,55.5,260.5,29.5,268.5,29.5"></path><path id="kity_path_35" fill="none" stroke="rgb(115, 161, 191)" stroke-width="1" d="M252.5,55.5C260.5,55.5,260.5,55.5,268.5,55.5"></path><path id="kity_path_37" fill="none" stroke="rgb(115, 161, 191)" stroke-width="1" d="M252.5,55.5C260.5,55.5,260.5,81.5,268.5,81.5"></path><path id="kity_path_39" fill="none" stroke="rgb(115, 161, 191)" stroke-width="1" d="M72.5,314.5A68,195,0,0,1,140.5,119.5"></path><path id="kity_path_43" fill="none" stroke="rgb(115, 161, 191)" stroke-width="1" d="M72.5,314.5A68,153,0,0,1,140.5,161.5"></path><path id="kity_path_45" fill="none" stroke="rgb(115, 161, 191)" stroke-width="1" d="M238.5,161.5C246.5,161.5,246.5,161.5,254.5,161.5"></path><path id="kity_path_47" fill="none" stroke="rgb(115, 161, 191)" stroke-width="1" d="M72.5,314.5A68,89,0,0,1,140.5,225.5"></path><path id="kity_path_49" fill="none" stroke="rgb(115, 161, 191)" stroke-width="1" d="M314.5,225.5C322.5,225.5,322.5,199.5,330.5,199.5"></path><path id="kity_path_51" fill="none" stroke="rgb(115, 161, 191)" stroke-width="1" d="M314.5,225.5C322.5,225.5,322.5,225.5,330.5,225.5"></path><path id="kity_path_53" fill="none" stroke="rgb(115, 161, 191)" stroke-width="1" d="M364.5,225.5C372.5,225.5,372.5,225.5,380.5,225.5"></path><path id="kity_path_55" fill="none" stroke="rgb(115, 161, 191)" stroke-width="1" d="M314.5,225.5C322.5,225.5,322.5,251.5,330.5,251.5"></path><path id="kity_path_57" fill="none" stroke="rgb(115, 161, 191)" stroke-width="1" d="M72.5,314.5A68,16,0,0,0,140.5,330.5"></path><path id="kity_path_59" fill="none" stroke="rgb(115, 161, 191)" stroke-width="1" d="M280.5,330.5C288.5,330.5,288.5,298.5,296.5,298.5"></path><path id="kity_path_61" fill="none" stroke="rgb(115, 161, 191)" stroke-width="1" d="M329.5,298.5C337.5,298.5,337.5,285.5,345.5,285.5"></path><path id="kity_path_63" fill="none" stroke="rgb(115, 161, 191)" stroke-width="1" d="M329.5,298.5C337.5,298.5,337.5,311.5,345.5,311.5"></path><path id="kity_path_65" fill="none" stroke="rgb(115, 161, 191)" stroke-width="1" d="M280.5,330.5C288.5,330.5,288.5,337.5,296.5,337.5"></path><path id="kity_path_67" fill="none" stroke="rgb(115, 161, 191)" stroke-width="1" d="M280.5,330.5C288.5,330.5,288.5,363.5,296.5,363.5"></path><path id="kity_path_69" fill="none" stroke="rgb(115, 161, 191)" stroke-width="1" d="M72.5,314.5A68,135,0,0,0,140.5,449.5"></path><path id="kity_path_71" fill="none" stroke="rgb(115, 161, 191)" stroke-width="1" d="M238.5,449.5C246.5,449.5,246.5,397.5,254.5,397.5"></path><path id="kity_path_73" fill="none" stroke="rgb(115, 161, 191)" stroke-width="1" d="M238.5,449.5C246.5,449.5,246.5,436.5,254.5,436.5"></path><path id="kity_path_75" fill="none" stroke="rgb(115, 161, 191)" stroke-width="1" d="M341.5,436.5C349.5,436.5,349.5,423.5,357.5,423.5"></path><path id="kity_path_77" fill="none" stroke="rgb(115, 161, 191)" stroke-width="1" d="M341.5,436.5C349.5,436.5,349.5,449.5,357.5,449.5"></path><path id="kity_path_79" fill="none" stroke="rgb(115, 161, 191)" stroke-width="1" d="M238.5,449.5C246.5,449.5,246.5,475.5,254.5,475.5"></path><path id="kity_path_81" fill="none" stroke="rgb(115, 161, 191)" stroke-width="1" d="M238.5,449.5C246.5,449.5,246.5,501.5,254.5,501.5"></path><path id="kity_path_83" fill="none" stroke="rgb(115, 161, 191)" stroke-width="1" d="M72.5,314.5A68,260,0,0,0,140.5,574.5"></path><path id="kity_path_85" fill="none" stroke="rgb(115, 161, 191)" stroke-width="1" d="M224.5,574.5C232.5,574.5,232.5,535.5,240.5,535.5"></path><path id="kity_path_87" fill="none" stroke="rgb(115, 161, 191)" stroke-width="1" d="M224.5,574.5C232.5,574.5,232.5,561.5,240.5,561.5"></path><path id="kity_path_89" fill="none" stroke="rgb(115, 161, 191)" stroke-width="1" d="M224.5,574.5C232.5,574.5,232.5,587.5,240.5,587.5"></path><path id="kity_path_91" fill="none" stroke="rgb(115, 161, 191)" stroke-width="1" d="M224.5,574.5C232.5,574.5,232.5,613.5,240.5,613.5"></path><path id="kity_path_278" fill="none" stroke="rgb(115, 161, 191)" stroke-width="1" d="M238.5,119.5C246.5,119.5,246.5,119.5,254.5,119.5"></path></g><g id="minder_node1"><path id="node_outline1" fill="rgb(115, 161, 191)" stroke="rgb(57, 80, 96)" d="M25.5,300.5h94a5,5,0,0,1,5,5v18a5,5,0,0,1,-5,5h-94a5,5,0,0,1,-5,-5v-18a5,5,0,0,1,5,-5z" stroke-width="3"></path><g id="node_text1" fill="white"><text id="kity_text_22" text-rendering="inherit" font-size="16" dy=".8em" y="306.5" x="32.5">计算机基础</text></g></g><g id="kity_g_12" display="none"><path id="kity_path_13" fill="none" stroke="none" d="M32.5,314.5h0v0h0z"></path></g><g id="kity_g_14" display="none"><path id="kity_path_15" fill="none" stroke="none" d="M32.5,314.5h0v0h0z"></path><path id="kity_path_16" fill="none" stroke="none"></path></g><g id="minder_node2"><g id="node_expander4" style="cursor: pointer;"><path id="kity_path_195" fill="white" stroke="gray" d="M141.5,55.5A6,6,0,1,1,129.5,55.5A6,6,0,1,1,141.5,55.5"></path><path id="kity_path_196" fill="none" stroke="gray" d="M131,55.5L140,55.5"></path></g><path id="node_outline5" fill="rgb(238, 243, 246)" stroke="rgb(115, 161, 191)" d="M145.5,42.5h104a3,3,0,0,1,3,3v20a3,3,0,0,1,-3,3h-104a3,3,0,0,1,-3,-3v-20a3,3,0,0,1,3,-3z" stroke-width="1"></path><g id="node_text5" fill="black"><text id="kity_text_99" text-rendering="inherit" font-size="14" dy=".8em" y="48.5" x="162.5">计算机系统</text></g></g><g id="minder_node3"><g id="node_expander1" style="cursor: pointer;" display="none"><path id="kity_path_186" fill="white" stroke="gray" d="M268.5,29.5A6,6,0,1,1,256.5,29.5A6,6,0,1,1,268.5,29.5"></path><path id="kity_path_187" fill="none" stroke="gray"></path></g><path id="node_outline2" fill="none" stroke="none" d="M273.5,20.5h24a5,5,0,0,1,5,5v8a5,5,0,0,1,-5,5h-24a5,5,0,0,1,-5,-5v-8a5,5,0,0,1,5,-5z"></path><g id="node_text2" fill="black"><text id="kity_text_93" text-rendering="inherit" font-size="12" dy=".8em" y="23.5" x="273.5">硬件</text></g></g><g id="minder_node4"><g id="node_expander2" style="cursor: pointer;" display="none"><path id="kity_path_189" fill="white" stroke="gray" d="M268.5,55.5A6,6,0,1,1,256.5,55.5A6,6,0,1,1,268.5,55.5"></path><path id="kity_path_190" fill="none" stroke="gray"></path></g><path id="node_outline3" fill="none" stroke="none" d="M273.5,46.5h72a5,5,0,0,1,5,5v8a5,5,0,0,1,-5,5h-72a5,5,0,0,1,-5,-5v-8a5,5,0,0,1,5,-5z"></path><g id="node_text3" fill="black"><text id="kity_text_95" text-rendering="inherit" font-size="12" dy=".8em" y="49.5" x="273.5">输入输出设备</text></g></g><g id="minder_node5"><g id="node_expander3" style="cursor: pointer;" display="none"><path id="kity_path_192" fill="white" stroke="gray" d="M268.5,81.5A6,6,0,1,1,256.5,81.5A6,6,0,1,1,268.5,81.5"></path><path id="kity_path_193" fill="none" stroke="gray"></path></g><path id="node_outline4" fill="none" stroke="none" d="M273.5,72.5h72a5,5,0,0,1,5,5v8a5,5,0,0,1,-5,5h-72a5,5,0,0,1,-5,-5v-8a5,5,0,0,1,5,-5z"></path><g id="node_text4" fill="black"><text id="kity_text_97" text-rendering="inherit" font-size="12" dy=".8em" y="75.5" x="273.5">计算存储设备</text></g></g><g id="minder_node6" opacity="1"><g id="node_expander6" style="cursor: pointer;"><path id="kity_path_201" fill="white" stroke="gray" d="M141.5,119.5A6,6,0,1,1,129.5,119.5A6,6,0,1,1,141.5,119.5"></path><path id="kity_path_202" fill="none" stroke="gray" d="M131,119.5L140,119.5"></path></g><path id="node_outline7" fill="rgb(238, 243, 246)" stroke="rgb(115, 161, 191)" d="M145.5,106.5h90a3,3,0,0,1,3,3v20a3,3,0,0,1,-3,3h-90a3,3,0,0,1,-3,-3v-20a3,3,0,0,1,3,-3z" stroke-width="1"></path><g id="node_text7" fill="black"><text id="kity_text_103" text-rendering="inherit" font-size="14" dy=".8em" y="112.5" x="162.5">操作系统</text></g></g><g id="minder_node8"><g id="node_expander8" style="cursor: pointer;"><path id="kity_path_207" fill="white" stroke="gray" d="M141.5,161.5A6,6,0,1,1,129.5,161.5A6,6,0,1,1,141.5,161.5"></path><path id="kity_path_208" fill="none" stroke="gray" d="M131,161.5L140,161.5"></path></g><path id="node_outline9" fill="rgb(238, 243, 246)" stroke="rgb(115, 161, 191)" d="M145.5,148.5h90a3,3,0,0,1,3,3v20a3,3,0,0,1,-3,3h-90a3,3,0,0,1,-3,-3v-20a3,3,0,0,1,3,-3z" stroke-width="1"></path><g id="node_text9" fill="black"><text id="kity_text_107" text-rendering="inherit" font-size="14" dy=".8em" y="154.5" x="162.5">编译原理</text></g></g><g id="minder_node9"><g id="node_expander7" style="cursor: pointer;" display="none"><path id="kity_path_204" fill="white" stroke="gray" d="M254.5,161.5A6,6,0,1,1,242.5,161.5A6,6,0,1,1,254.5,161.5"></path><path id="kity_path_205" fill="none" stroke="gray"></path></g><path id="node_outline8" fill="none" stroke="none" d="M259.5,152.5h48a5,5,0,0,1,5,5v8a5,5,0,0,1,-5,5h-48a5,5,0,0,1,-5,-5v-8a5,5,0,0,1,5,-5z"></path><g id="node_text8" fill="black"><text id="kity_text_105" text-rendering="inherit" font-size="12" dy=".8em" y="155.5" x="259.5">？？？？</text></g></g><g id="minder_node10"><g id="node_expander13" style="cursor: pointer;"><path id="kity_path_222" fill="white" stroke="gray" d="M141.5,225.5A6,6,0,1,1,129.5,225.5A6,6,0,1,1,141.5,225.5"></path><path id="kity_path_223" fill="none" stroke="gray" d="M131,225.5L140,225.5"></path></g><path id="node_outline14" fill="rgb(238, 243, 246)" stroke="rgb(115, 161, 191)" d="M145.5,212.5h166a3,3,0,0,1,3,3v20a3,3,0,0,1,-3,3h-166a3,3,0,0,1,-3,-3v-20a3,3,0,0,1,3,-3z" stroke-width="1"></path><g id="node_text14" fill="black"><text id="kity_text_117" text-rendering="inherit" font-size="14" dy=".8em" y="218.5" x="162.5">计算机网络/网络协议</text></g></g><g id="minder_node11"><g id="node_expander9" style="cursor: pointer;" display="none"><path id="kity_path_210" fill="white" stroke="gray" d="M330.5,199.5A6,6,0,1,1,318.5,199.5A6,6,0,1,1,330.5,199.5"></path><path id="kity_path_211" fill="none" stroke="gray"></path></g><path id="node_outline10" fill="none" stroke="none" d="M335.5,190.5h64a5,5,0,0,1,5,5v8a5,5,0,0,1,-5,5h-64a5,5,0,0,1,-5,-5v-8a5,5,0,0,1,5,-5z"></path><g id="node_text10" fill="black"><text id="kity_text_109" text-rendering="inherit" font-size="12" dy=".8em" y="193.5" x="335.5">websocket</text></g></g><g id="minder_node12"><g id="node_expander11" style="cursor: pointer;"><path id="kity_path_216" fill="white" stroke="gray" d="M330.5,225.5A6,6,0,1,1,318.5,225.5A6,6,0,1,1,330.5,225.5"></path><path id="kity_path_217" fill="none" stroke="gray" d="M320,225.5L329,225.5"></path></g><path id="node_outline12" fill="none" stroke="none" d="M335.5,216.5h24a5,5,0,0,1,5,5v8a5,5,0,0,1,-5,5h-24a5,5,0,0,1,-5,-5v-8a5,5,0,0,1,5,-5z"></path><g id="node_text12" fill="black"><text id="kity_text_113" text-rendering="inherit" font-size="12" dy=".8em" y="219.5" x="335.5">http</text></g></g><g id="minder_node13"><g id="node_expander10" style="cursor: pointer;" display="none"><path id="kity_path_213" fill="white" stroke="gray" d="M380.5,225.5A6,6,0,1,1,368.5,225.5A6,6,0,1,1,380.5,225.5"></path><path id="kity_path_214" fill="none" stroke="gray"></path></g><path id="node_outline11" fill="none" stroke="none" d="M385.5,216.5h82a5,5,0,0,1,5,5v8a5,5,0,0,1,-5,5h-82a5,5,0,0,1,-5,-5v-8a5,5,0,0,1,5,-5z"></path><g id="node_text11" fill="black"><text id="kity_text_111" text-rendering="inherit" font-size="12" dy=".8em" y="219.5" x="385.5">http client模拟</text></g></g><g id="minder_node14"><g id="node_expander12" style="cursor: pointer;" display="none"><path id="kity_path_219" fill="white" stroke="gray" d="M330.5,251.5A6,6,0,1,1,318.5,251.5A6,6,0,1,1,330.5,251.5"></path><path id="kity_path_220" fill="none" stroke="gray"></path></g><path id="node_outline13" fill="none" stroke="none" d="M335.5,242.5h41a5,5,0,0,1,5,5v8a5,5,0,0,1,-5,5h-41a5,5,0,0,1,-5,-5v-8a5,5,0,0,1,5,-5z"></path><g id="node_text13" fill="black"><text id="kity_text_115" text-rendering="inherit" font-size="12" dy=".8em" y="245.5" x="335.5">webrtc</text></g></g><g id="minder_node15"><g id="node_expander19" style="cursor: pointer;"><path id="kity_path_240" fill="white" stroke="gray" d="M141.5,330.5A6,6,0,1,1,129.5,330.5A6,6,0,1,1,141.5,330.5"></path><path id="kity_path_241" fill="none" stroke="gray" d="M131,330.5L140,330.5"></path></g><path id="node_outline20" fill="rgb(238, 243, 246)" stroke="rgb(115, 161, 191)" d="M145.5,317.5h132a3,3,0,0,1,3,3v20a3,3,0,0,1,-3,3h-132a3,3,0,0,1,-3,-3v-20a3,3,0,0,1,3,-3z" stroke-width="1"></path><g id="node_text20" fill="black"><text id="kity_text_129" text-rendering="inherit" font-size="14" dy=".8em" y="323.5" x="162.5">算法，数据结构</text></g></g><g id="minder_node16"><g id="node_expander16" style="cursor: pointer;"><path id="kity_path_231" fill="white" stroke="gray" d="M296.5,298.5A6,6,0,1,1,284.5,298.5A6,6,0,1,1,296.5,298.5"></path><path id="kity_path_232" fill="none" stroke="gray" d="M286,298.5L295,298.5"></path></g><path id="node_outline17" fill="none" stroke="none" d="M301.5,289.5h23a5,5,0,0,1,5,5v8a5,5,0,0,1,-5,5h-23a5,5,0,0,1,-5,-5v-8a5,5,0,0,1,5,-5z"></path><g id="node_text17" fill="black"><text id="kity_text_123" text-rendering="inherit" font-size="12" dy=".8em" y="292.5" x="301.5">tree</text></g></g><g id="minder_node17"><g id="node_expander14" style="cursor: pointer;" display="none"><path id="kity_path_225" fill="white" stroke="gray" d="M345.5,285.5A6,6,0,1,1,333.5,285.5A6,6,0,1,1,345.5,285.5"></path><path id="kity_path_226" fill="none" stroke="gray"></path></g><path id="node_outline15" fill="none" stroke="none" d="M350.5,276.5h16a5,5,0,0,1,5,5v8a5,5,0,0,1,-5,5h-16a5,5,0,0,1,-5,-5v-8a5,5,0,0,1,5,-5z"></path><g id="node_text15" fill="black"><text id="kity_text_119" text-rendering="inherit" font-size="12" dy=".8em" y="279.5" x="350.5">init</text></g></g><g id="minder_node18"><g id="node_expander15" style="cursor: pointer;" display="none"><path id="kity_path_228" fill="white" stroke="gray" d="M345.5,311.5A6,6,0,1,1,333.5,311.5A6,6,0,1,1,345.5,311.5"></path><path id="kity_path_229" fill="none" stroke="gray"></path></g><path id="node_outline16" fill="none" stroke="none" d="M350.5,302.5h45a5,5,0,0,1,5,5v8a5,5,0,0,1,-5,5h-45a5,5,0,0,1,-5,-5v-8a5,5,0,0,1,5,-5z"></path><g id="node_text16" fill="black"><text id="kity_text_121" text-rendering="inherit" font-size="12" dy=".8em" y="305.5" x="350.5">BFS/DFS</text></g></g><g id="minder_node19"><g id="node_expander17" style="cursor: pointer;" display="none"><path id="kity_path_234" fill="white" stroke="gray" d="M296.5,337.5A6,6,0,1,1,284.5,337.5A6,6,0,1,1,296.5,337.5"></path><path id="kity_path_235" fill="none" stroke="gray"></path></g><path id="node_outline18" fill="none" stroke="none" d="M301.5,328.5h51a5,5,0,0,1,5,5v8a5,5,0,0,1,-5,5h-51a5,5,0,0,1,-5,-5v-8a5,5,0,0,1,5,-5z"></path><g id="node_text18" fill="black"><text id="kity_text_125" text-rendering="inherit" font-size="12" dy=".8em" y="331.5" x="301.5">list arr set</text></g></g><g id="minder_node20"><g id="node_expander18" style="cursor: pointer;" display="none"><path id="kity_path_237" fill="white" stroke="gray" d="M296.5,363.5A6,6,0,1,1,284.5,363.5A6,6,0,1,1,296.5,363.5"></path><path id="kity_path_238" fill="none" stroke="gray"></path></g><path id="node_outline19" fill="none" stroke="none" d="M301.5,354.5h72a5,5,0,0,1,5,5v8a5,5,0,0,1,-5,5h-72a5,5,0,0,1,-5,-5v-8a5,5,0,0,1,5,-5z"></path><g id="node_text19" fill="black"><text id="kity_text_127" text-rendering="inherit" font-size="12" dy=".8em" y="357.5" x="301.5">各种排序算法</text></g></g><g id="minder_node21"><g id="node_expander26" style="cursor: pointer;"><path id="kity_path_261" fill="white" stroke="gray" d="M141.5,449.5A6,6,0,1,1,129.5,449.5A6,6,0,1,1,141.5,449.5"></path><path id="kity_path_262" fill="none" stroke="gray" d="M131,449.5L140,449.5"></path></g><path id="node_outline27" fill="rgb(238, 243, 246)" stroke="rgb(115, 161, 191)" d="M145.5,436.5h90a3,3,0,0,1,3,3v20a3,3,0,0,1,-3,3h-90a3,3,0,0,1,-3,-3v-20a3,3,0,0,1,3,-3z" stroke-width="1"></path><g id="node_text27" fill="black"><text id="kity_text_143" text-rendering="inherit" font-size="14" dy=".8em" y="442.5" x="162.5">设计模式</text></g></g><g id="minder_node22"><g id="node_expander20" style="cursor: pointer;" display="none"><path id="kity_path_243" fill="white" stroke="gray" d="M254.5,397.5A6,6,0,1,1,242.5,397.5A6,6,0,1,1,254.5,397.5"></path><path id="kity_path_244" fill="none" stroke="gray"></path></g><path id="node_outline21" fill="none" stroke="none" d="M259.5,388.5h24a5,5,0,0,1,5,5v8a5,5,0,0,1,-5,5h-24a5,5,0,0,1,-5,-5v-8a5,5,0,0,1,5,-5z"></path><g id="node_text21" fill="black"><text id="kity_text_131" text-rendering="inherit" font-size="12" dy=".8em" y="391.5" x="259.5">单例</text></g></g><g id="minder_node23"><g id="node_expander23" style="cursor: pointer;"><path id="kity_path_252" fill="white" stroke="gray" d="M254.5,436.5A6,6,0,1,1,242.5,436.5A6,6,0,1,1,254.5,436.5"></path><path id="kity_path_253" fill="none" stroke="gray" d="M244,436.5L253,436.5"></path></g><path id="node_outline24" fill="none" stroke="none" d="M259.5,427.5h77a5,5,0,0,1,5,5v8a5,5,0,0,1,-5,5h-77a5,5,0,0,1,-5,-5v-8a5,5,0,0,1,5,-5z"></path><g id="node_text24" fill="black"><text id="kity_text_137" text-rendering="inherit" font-size="12" dy=".8em" y="430.5" x="259.5">架构模式MVC</text></g></g><g id="minder_node24"><g id="node_expander21" style="cursor: pointer;" display="none"><path id="kity_path_246" fill="white" stroke="gray" d="M357.5,423.5A6,6,0,1,1,345.5,423.5A6,6,0,1,1,357.5,423.5"></path><path id="kity_path_247" fill="none" stroke="gray"></path></g><path id="node_outline22" fill="none" stroke="none" d="M362.5,414.5h39a5,5,0,0,1,5,5v8a5,5,0,0,1,-5,5h-39a5,5,0,0,1,-5,-5v-8a5,5,0,0,1,5,-5z"></path><g id="node_text22" fill="black"><text id="kity_text_133" text-rendering="inherit" font-size="12" dy=".8em" y="417.5" x="362.5">MVVM</text></g></g><g id="minder_node25"><g id="node_expander22" style="cursor: pointer;" display="none"><path id="kity_path_249" fill="white" stroke="gray" d="M357.5,449.5A6,6,0,1,1,345.5,449.5A6,6,0,1,1,357.5,449.5"></path><path id="kity_path_250" fill="none" stroke="gray"></path></g><path id="node_outline23" fill="none" stroke="none" d="M362.5,440.5h21a5,5,0,0,1,5,5v8a5,5,0,0,1,-5,5h-21a5,5,0,0,1,-5,-5v-8a5,5,0,0,1,5,-5z"></path><g id="node_text23" fill="black"><text id="kity_text_135" text-rendering="inherit" font-size="12" dy=".8em" y="443.5" x="362.5">Flux</text></g></g><g id="minder_node26"><g id="node_expander24" style="cursor: pointer;" display="none"><path id="kity_path_255" fill="white" stroke="gray" d="M254.5,475.5A6,6,0,1,1,242.5,475.5A6,6,0,1,1,254.5,475.5"></path><path id="kity_path_256" fill="none" stroke="gray"></path></g><path id="node_outline25" fill="none" stroke="none" d="M259.5,466.5h86a5,5,0,0,1,5,5v8a5,5,0,0,1,-5,5h-86a5,5,0,0,1,-5,-5v-8a5,5,0,0,1,5,-5z"></path><g id="node_text25" fill="black"><text id="kity_text_139" text-rendering="inherit" font-size="12" dy=".8em" y="469.5" x="259.5">依赖注入IOC DI</text></g></g><g id="minder_node27"><g id="node_expander25" style="cursor: pointer;" display="none"><path id="kity_path_258" fill="white" stroke="gray" d="M254.5,501.5A6,6,0,1,1,242.5,501.5A6,6,0,1,1,254.5,501.5"></path><path id="kity_path_259" fill="none" stroke="gray"></path></g><path id="node_outline26" fill="none" stroke="none" d="M259.5,492.5h72a5,5,0,0,1,5,5v8a5,5,0,0,1,-5,5h-72a5,5,0,0,1,-5,-5v-8a5,5,0,0,1,5,-5z"></path><g id="node_text26" fill="black"><text id="kity_text_141" text-rendering="inherit" font-size="12" dy=".8em" y="495.5" x="259.5">发布订阅模式</text></g></g><g id="minder_node28"><g id="node_expander31" style="cursor: pointer;"><path id="kity_path_276" fill="white" stroke="gray" d="M141.5,574.5A6,6,0,1,1,129.5,574.5A6,6,0,1,1,141.5,574.5"></path><path id="kity_path_277" fill="none" stroke="gray" d="M131,574.5L140,574.5"></path></g><path id="node_outline32" fill="rgb(238, 243, 246)" stroke="rgb(115, 161, 191)" d="M145.5,561.5h76a3,3,0,0,1,3,3v20a3,3,0,0,1,-3,3h-76a3,3,0,0,1,-3,-3v-20a3,3,0,0,1,3,-3z" stroke-width="1"></path><g id="node_text32" fill="black"><text id="kity_text_153" text-rendering="inherit" font-size="14" dy=".8em" y="567.5" x="162.5">工程化</text></g></g><g id="minder_node29"><g id="node_expander27" style="cursor: pointer;" display="none"><path id="kity_path_264" fill="white" stroke="gray" d="M240.5,535.5A6,6,0,1,1,228.5,535.5A6,6,0,1,1,240.5,535.5"></path><path id="kity_path_265" fill="none" stroke="gray"></path></g><path id="node_outline28" fill="none" stroke="none" d="M245.5,526.5h24a5,5,0,0,1,5,5v8a5,5,0,0,1,-5,5h-24a5,5,0,0,1,-5,-5v-8a5,5,0,0,1,5,-5z"></path><g id="node_text28" fill="black"><text id="kity_text_145" text-rendering="inherit" font-size="12" dy=".8em" y="529.5" x="245.5">测试</text></g></g><g id="minder_node30"><g id="node_expander28" style="cursor: pointer;" display="none"><path id="kity_path_267" fill="white" stroke="gray" d="M240.5,561.5A6,6,0,1,1,228.5,561.5A6,6,0,1,1,240.5,561.5"></path><path id="kity_path_268" fill="none" stroke="gray"></path></g><path id="node_outline29" fill="none" stroke="none" d="M245.5,552.5h24a5,5,0,0,1,5,5v8a5,5,0,0,1,-5,5h-24a5,5,0,0,1,-5,-5v-8a5,5,0,0,1,5,-5z"></path><g id="node_text29" fill="black"><text id="kity_text_147" text-rendering="inherit" font-size="12" dy=".8em" y="555.5" x="245.5">性能</text></g></g><g id="minder_node31"><g id="node_expander29" style="cursor: pointer;" display="none"><path id="kity_path_270" fill="white" stroke="gray" d="M240.5,587.5A6,6,0,1,1,228.5,587.5A6,6,0,1,1,240.5,587.5"></path><path id="kity_path_271" fill="none" stroke="gray"></path></g><path id="node_outline30" fill="none" stroke="none" d="M245.5,578.5h24a5,5,0,0,1,5,5v8a5,5,0,0,1,-5,5h-24a5,5,0,0,1,-5,-5v-8a5,5,0,0,1,5,-5z"></path><g id="node_text30" fill="black"><text id="kity_text_149" text-rendering="inherit" font-size="12" dy=".8em" y="581.5" x="245.5">安全</text></g></g><g id="minder_node32"><g id="node_expander30" style="cursor: pointer;" display="none"><path id="kity_path_273" fill="white" stroke="gray" d="M240.5,613.5A6,6,0,1,1,228.5,613.5A6,6,0,1,1,240.5,613.5"></path><path id="kity_path_274" fill="none" stroke="gray"></path></g><path id="node_outline31" fill="none" stroke="none" d="M245.5,604.5h24a5,5,0,0,1,5,5v8a5,5,0,0,1,-5,5h-24a5,5,0,0,1,-5,-5v-8a5,5,0,0,1,5,-5z"></path><g id="node_text31" fill="black"><text id="kity_text_151" text-rendering="inherit" font-size="12" dy=".8em" y="607.5" x="245.5">监控</text></g></g><g id="minder_node7"><g id="node_expander5" style="cursor: pointer;" display="none"><path id="kity_path_198" fill="white" stroke="gray" d="M254.5,119.5A6,6,0,1,1,242.5,119.5A6,6,0,1,1,254.5,119.5"></path><path id="kity_path_199" fill="none" stroke="gray"></path></g><path id="node_outline6" fill="none" stroke="none" d="M259.5,110.5h72a5,5,0,0,1,5,5v8a5,5,0,0,1,-5,5h-72a5,5,0,0,1,-5,-5v-8a5,5,0,0,1,5,-5z"></path><g id="node_text6" fill="black"><text id="kity_text_101" text-rendering="inherit" font-size="12" dy=".8em" y="113.5" x="259.5">与硬件打交道</text></g></g></g></g></svg>